font.ufo
<glyph name="quotedbl" format="1">
  <advance width="249"/>
  <unicode hex="0022"/>
  <outline>
    <contour>
      <point x="96" y="792" type="curve" smooth="yes"/>
      <point x="96" y="805"/>
      <point x="70" y="826"/>
      <point x="59" y="826" type="curve" smooth="yes"/>
      <point x="51" y="826"/>
      <point x="47" y="819"/>
      <point x="47" y="806" type="curve" smooth="yes"/>
      <point x="47" y="710"/>
      <point x="29" y="622"/>
      <point x="29" y="600" type="curve" smooth="yes"/>
      <point x="29" y="584"/>
      <point x="43" y="566"/>
      <point x="56" y="566" type="curve" smooth="yes"/>
      <point x="76" y="566"/>
      <point x="96" y="743"/>
    </contour>
    <contour>
      <point x="243" y="792" type="curve" smooth="yes"/>
      <point x="243" y="805"/>
      <point x="218" y="826"/>
      <point x="207" y="826" type="curve" smooth="yes"/>
      <point x="199" y="826"/>
      <point x="195" y="819"/>
      <point x="195" y="806" type="curve" smooth="yes"/>
      <point x="195" y="710"/>
      <point x="177" y="622"/>
      <point x="177" y="600" type="curve" smooth="yes"/>
      <point x="177" y="584"/>
      <point x="191" y="566"/>
      <point x="203" y="566" type="curve" smooth="yes"/>
      <point x="224" y="566"/>
      <point x="243" y="743"/>
    </contour>
  </outline>
</glyph>
<glyph name="parenleft" format="1">
  <advance width="489"/>
  <unicode hex="0028"/>
  <outline>
    <contour>
      <point x="146" y="262" type="curve" smooth="yes"/>
      <point x="146" y="628"/>
      <point x="537" y="791"/>
      <point x="537" y="831" type="curve" smooth="yes"/>
      <point x="537" y="848"/>
      <point x="517" y="868"/>
      <point x="500" y="868" type="curve" smooth="yes"/>
      <point x="449" y="868"/>
      <point x="84" y="640"/>
      <point x="84" y="271" type="curve" smooth="yes"/>
      <point x="84" y="8"/>
      <point x="315" y="-98"/>
      <point x="407" y="-98" type="curve" smooth="yes"/>
      <point x="426" y="-98"/>
      <point x="434" y="-90"/>
      <point x="434" y="-79" type="curve" smooth="yes"/>
      <point x="434" y="-33"/>
      <point x="146" y="-9"/>
    </contour>
  </outline>
</glyph>
<glyph name="parenright" format="1">
  <advance width="490"/>
  <unicode hex="0029"/>
  <outline>
    <contour>
      <point x="-12" y="-78" type="curve" smooth="yes"/>
      <point x="41" y="-78"/>
      <point x="411" y="164"/>
      <point x="411" y="547" type="curve" smooth="yes"/>
      <point x="411" y="733"/>
      <point x="288" y="844"/>
      <point x="220" y="844" type="curve" smooth="yes"/>
      <point x="200" y="844"/>
      <point x="178" y="839"/>
      <point x="178" y="818" type="curve" smooth="yes"/>
      <point x="178" y="774"/>
      <point x="343" y="749"/>
      <point x="343" y="528" type="curve" smooth="yes"/>
      <point x="343" y="182"/>
      <point x="-28" y="-27"/>
      <point x="-28" y="-64" type="curve" smooth="yes"/>
      <point x="-28" y="-74"/>
      <point x="-20" y="-78"/>
    </contour>
  </outline>
</glyph>
<glyph name="hyphen" format="1">
  <advance width="420"/>
  <unicode hex="002D"/>
  <outline>
    <contour>
      <point x="226" y="277" type="curve" smooth="yes"/>
      <point x="362" y="304"/>
      <point x="382" y="308"/>
      <point x="382" y="324" type="curve" smooth="yes"/>
      <point x="382" y="337"/>
      <point x="362" y="344"/>
      <point x="330" y="344" type="curve" smooth="yes"/>
      <point x="275" y="344"/>
      <point x="55" y="313"/>
      <point x="55" y="284" type="curve" smooth="yes"/>
      <point x="55" y="272"/>
      <point x="76" y="253"/>
      <point x="91" y="253" type="curve" smooth="yes"/>
      <point x="112" y="253"/>
      <point x="149" y="262"/>
    </contour>
  </outline>
</glyph>
<glyph name="two" format="1">
  <advance width="580"/>
  <unicode hex="0032"/>
  <outline>
    <contour>
      <point x="196" y="577" type="curve" smooth="yes"/>
      <point x="213" y="577"/>
      <point x="264" y="653"/>
      <point x="342" y="653" type="curve" smooth="yes"/>
      <point x="400" y="653"/>
      <point x="431" y="604"/>
      <point x="431" y="543" type="curve" smooth="yes"/>
      <point x="431" y="312"/>
      <point x="59" y="148"/>
      <point x="59" y="87" type="curve" smooth="yes"/>
      <point x="59" y="50"/>
      <point x="102" y="23"/>
      <point x="137" y="23" type="curve" smooth="yes"/>
      <point x="203" y="23"/>
      <point x="491" y="73"/>
      <point x="491" y="108" type="curve" smooth="yes"/>
      <point x="491" y="122"/>
      <point x="476" y="122"/>
      <point x="447" y="122" type="curve" smooth="yes"/>
      <point x="398" y="122"/>
      <point x="155" y="76"/>
      <point x="103" y="74" type="curve"/>
      <point x="101" y="70" type="line"/>
      <point x="325" y="225"/>
      <point x="494" y="379"/>
      <point x="494" y="549" type="curve" smooth="yes"/>
      <point x="494" y="640"/>
      <point x="429" y="714"/>
      <point x="333" y="714" type="curve" smooth="yes"/>
      <point x="257" y="714"/>
      <point x="156" y="637"/>
      <point x="156" y="605" type="curve" smooth="yes"/>
      <point x="156" y="587"/>
      <point x="182" y="577"/>
    </contour>
  </outline>
</glyph>
<glyph name="semicolon" format="1">
  <advance width="306"/>
  <unicode hex="003B"/>
  <outline>
    <contour>
      <point x="131" y="446" type="curve" smooth="yes"/>
      <point x="131" y="418"/>
      <point x="179" y="363"/>
      <point x="208" y="363" type="curve" smooth="yes"/>
      <point x="218" y="363"/>
      <point x="227" y="372"/>
      <point x="227" y="379" type="curve" smooth="yes"/>
      <point x="227" y="407"/>
      <point x="194" y="499"/>
      <point x="169" y="499" type="curve" smooth="yes"/>
      <point x="152" y="499"/>
      <point x="131" y="467"/>
    </contour>
    <component base="comma" xOffset="-5" yOffset="-32"/>
  </outline>
</glyph>
<glyph name="B" format="1">
  <advance width="644"/>
  <unicode hex="0042"/>
  <outline>
    <contour>
      <point x="149" y="672" type="curve" smooth="yes"/>
      <point x="149" y="659"/>
      <point x="170" y="633"/>
      <point x="193" y="633" type="curve" smooth="yes"/>
      <point x="238" y="633"/>
      <point x="278" y="645"/>
      <point x="351" y="645" type="curve" smooth="yes"/>
      <point x="434" y="645"/>
      <point x="507" y="610"/>
      <point x="507" y="556" type="curve" smooth="yes"/>
      <point x="507" y="479"/>
      <point x="397" y="443"/>
      <point x="317" y="417" type="curve" smooth="yes"/>
      <point x="271" y="402"/>
      <point x="228" y="392"/>
      <point x="228" y="371" type="curve" smooth="yes"/>
      <point x="228" y="356"/>
      <point x="252" y="337"/>
      <point x="276" y="337" type="curve" smooth="yes"/>
      <point x="383" y="337"/>
      <point x="514" y="304"/>
      <point x="514" y="254" type="curve" smooth="yes"/>
      <point x="514" y="162"/>
      <point x="329" y="76"/>
      <point x="146" y="76" type="curve" smooth="yes"/>
      <point x="60" y="76"/>
      <point x="36" y="125"/>
      <point x="18" y="125" type="curve" smooth="yes"/>
      <point x="13" y="125"/>
      <point x="7" y="120"/>
      <point x="7" y="106" type="curve" smooth="yes"/>
      <point x="7" y="68"/>
      <point x="65" y="22"/>
      <point x="165" y="22" type="curve" smooth="yes"/>
      <point x="385" y="22"/>
      <point x="580" y="133"/>
      <point x="580" y="250" type="curve" smooth="yes"/>
      <point x="580" y="315"/>
      <point x="494" y="378"/>
      <point x="360" y="378" type="curve" smooth="yes"/>
      <point x="349" y="378"/>
      <point x="336" y="378"/>
      <point x="324" y="377" type="curve"/>
      <point x="327" y="376" type="line"/>
      <point x="499" y="407"/>
      <point x="571" y="472"/>
      <point x="571" y="559" type="curve" smooth="yes"/>
      <point x="571" y="644"/>
      <point x="481" y="703"/>
      <point x="288" y="703" type="curve" smooth="yes"/>
      <point x="211" y="703"/>
      <point x="149" y="687"/>
    </contour>
    <contour>
      <point x="237" y="648" type="curve" smooth="yes"/>
      <point x="225" y="648"/>
      <point x="221" y="639"/>
      <point x="221" y="625" type="curve" smooth="yes"/>
      <point x="221" y="444"/>
      <point x="104" y="171"/>
      <point x="104" y="127" type="curve" smooth="yes"/>
      <point x="104" y="99"/>
      <point x="118" y="72"/>
      <point x="131" y="72" type="curve" smooth="yes"/>
      <point x="141" y="72"/>
      <point x="159" y="111"/>
      <point x="187" y="209" type="curve" smooth="yes"/>
      <point x="232" y="367"/>
      <point x="280" y="554"/>
      <point x="280" y="592" type="curve" smooth="yes"/>
      <point x="280" y="612"/>
      <point x="254" y="648"/>
    </contour>
  </outline>
</glyph>
<glyph name="M" format="1">
  <advance width="806"/>
  <unicode hex="004D"/>
  <outline>
    <contour>
      <point x="220" y="704" type="curve" smooth="yes"/>
      <point x="206" y="704"/>
      <point x="204" y="698"/>
      <point x="204" y="675" type="curve" smooth="yes"/>
      <point x="204" y="558"/>
      <point x="68" y="139"/>
      <point x="68" y="68" type="curve" smooth="yes"/>
      <point x="68" y="47"/>
      <point x="87" y="23"/>
      <point x="98" y="23" type="curve" smooth="yes"/>
      <point x="108" y="23"/>
      <point x="144" y="165"/>
      <point x="180" y="288" type="curve" smooth="yes"/>
      <point x="202" y="363"/>
      <point x="227" y="464"/>
      <point x="240" y="542" type="curve"/>
      <point x="278" y="432"/>
      <point x="331" y="316"/>
      <point x="353" y="278" type="curve" smooth="yes"/>
      <point x="366" y="257"/>
      <point x="385" y="243"/>
      <point x="402" y="243" type="curve" smooth="yes"/>
      <point x="434" y="243"/>
      <point x="505" y="328"/>
      <point x="739" y="619" type="curve"/>
      <point x="677" y="453"/>
      <point x="604" y="141"/>
      <point x="604" y="78" type="curve" smooth="yes"/>
      <point x="604" y="44"/>
      <point x="621" y="23"/>
      <point x="634" y="23" type="curve" smooth="yes"/>
      <point x="645" y="23"/>
      <point x="675" y="188"/>
      <point x="712" y="320" type="curve" smooth="yes"/>
      <point x="759" y="486"/>
      <point x="797" y="612"/>
      <point x="797" y="652" type="curve" smooth="yes"/>
      <point x="797" y="675"/>
      <point x="768" y="701"/>
      <point x="751" y="701" type="curve" smooth="yes"/>
      <point x="715" y="701"/>
      <point x="607" y="541"/>
      <point x="407" y="301" type="curve"/>
      <point x="341" y="440"/>
      <point x="277" y="591"/>
      <point x="269" y="643" type="curve" smooth="yes"/>
      <point x="264" y="675"/>
      <point x="232" y="704"/>
    </contour>
  </outline>
</glyph>
<glyph name="V" format="1">
  <advance width="532"/>
  <unicode hex="0056"/>
  <outline>
    <contour>
      <point x="89" y="704" type="curve" smooth="yes"/>
      <point x="81" y="704"/>
      <point x="78" y="696"/>
      <point x="78" y="680" type="curve" smooth="yes"/>
      <point x="78" y="611"/>
      <point x="155" y="164"/>
      <point x="192" y="76" type="curve" smooth="yes"/>
      <point x="206" y="43"/>
      <point x="220" y="12"/>
      <point x="237" y="12" type="curve" smooth="yes"/>
      <point x="264" y="12"/>
      <point x="304" y="133"/>
      <point x="422" y="366" type="curve" smooth="yes"/>
      <point x="524" y="570"/>
      <point x="591" y="641"/>
      <point x="591" y="682" type="curve" smooth="yes"/>
      <point x="591" y="693"/>
      <point x="575" y="704"/>
      <point x="563" y="704" type="curve" smooth="yes"/>
      <point x="517" y="704"/>
      <point x="279" y="234"/>
      <point x="233" y="84" type="curve"/>
      <point x="248" y="80" type="line"/>
      <point x="176" y="300"/>
      <point x="161" y="576"/>
      <point x="141" y="643" type="curve" smooth="yes"/>
      <point x="130" y="678"/>
      <point x="108" y="704"/>
    </contour>
  </outline>
</glyph>
<glyph name="c" format="1">
  <advance width="422"/>
  <unicode hex="0063"/>
  <outline>
    <contour>
      <point x="270" y="470" type="move" name="top"/>
    </contour>
    <contour>
      <point x="175" y="0" type="move" name="cedilla"/>
    </contour>
    <contour>
      <point x="35" y="160" type="curve" smooth="yes"/>
      <point x="35" y="76"/>
      <point x="107" y="17"/>
      <point x="189" y="17" type="curve" smooth="yes"/>
      <point x="256" y="17"/>
      <point x="369" y="80"/>
      <point x="369" y="107" type="curve" smooth="yes"/>
      <point x="369" y="118"/>
      <point x="366" y="123"/>
      <point x="355" y="123" type="curve" smooth="yes"/>
      <point x="325" y="123"/>
      <point x="289" y="76"/>
      <point x="181" y="76" type="curve" smooth="yes"/>
      <point x="129" y="76"/>
      <point x="96" y="112"/>
      <point x="96" y="158" type="curve" smooth="yes"/>
      <point x="96" y="261"/>
      <point x="225" y="442"/>
      <point x="309" y="442" type="curve" smooth="yes"/>
      <point x="346" y="442"/>
      <point x="366" y="399"/>
      <point x="391" y="399" type="curve" smooth="yes"/>
      <point x="398" y="399"/>
      <point x="404" y="405"/>
      <point x="404" y="414" type="curve" smooth="yes"/>
      <point x="404" y="438"/>
      <point x="372" y="502"/>
      <point x="305" y="502" type="curve" smooth="yes"/>
      <point x="181" y="502"/>
      <point x="35" y="296"/>
    </contour>
  </outline>
</glyph>
<glyph name="g" format="1">
  <advance width="471"/>
  <unicode hex="0067"/>
  <outline>
    <contour>
      <point x="326" y="470" type="move" name="top"/>
    </contour>
    <contour>
      <point x="301" y="502" type="curve" smooth="yes"/>
      <point x="176" y="502"/>
      <point x="26" y="262"/>
      <point x="26" y="132" type="curve" smooth="yes"/>
      <point x="26" y="75"/>
      <point x="78" y="17"/>
      <point x="141" y="17" type="curve" smooth="yes"/>
      <point x="238" y="17"/>
      <point x="422" y="190"/>
      <point x="422" y="289" type="curve" smooth="yes"/>
      <point x="422" y="309"/>
      <point x="413" y="330"/>
      <point x="400" y="330" type="curve" smooth="yes"/>
      <point x="387" y="330"/>
      <point x="380" y="320"/>
      <point x="376" y="308" type="curve" smooth="yes"/>
      <point x="326" y="169"/>
      <point x="218" y="76"/>
      <point x="138" y="76" type="curve" smooth="yes"/>
      <point x="109" y="76"/>
      <point x="84" y="97"/>
      <point x="84" y="128" type="curve" smooth="yes"/>
      <point x="84" y="228"/>
      <point x="215" y="443"/>
      <point x="305" y="443" type="curve" smooth="yes"/>
      <point x="343" y="443"/>
      <point x="352" y="392"/>
      <point x="361" y="338" type="curve" smooth="yes"/>
      <point x="367" y="307"/>
      <point x="375" y="289"/>
      <point x="387" y="289" type="curve" smooth="yes"/>
      <point x="401" y="289"/>
      <point x="412" y="303"/>
      <point x="412" y="334" type="curve" smooth="yes"/>
      <point x="412" y="401"/>
      <point x="380" y="502"/>
    </contour>
    <contour>
      <point x="360" y="265" type="line"/>
      <point x="242" y="66"/>
      <point x="254" y="-191"/>
      <point x="151" y="-191" type="curve" smooth="yes"/>
      <point x="51" y="-191"/>
      <point x="40" y="-99"/>
      <point x="7" y="-99" type="curve" smooth="yes"/>
      <point x="-2" y="-99"/>
      <point x="-11" y="-119"/>
      <point x="-11" y="-130" type="curve" smooth="yes"/>
      <point x="-11" y="-177"/>
      <point x="51" y="-240"/>
      <point x="154" y="-240" type="curve" smooth="yes"/>
      <point x="306" y="-240"/>
      <point x="282" y="20"/>
      <point x="408" y="243" type="curve"/>
    </contour>
  </outline>
</glyph>
<glyph name="h" format="1">
  <advance width="522"/>
  <unicode hex="0068"/>
  <outline>
    <contour>
      <point x="168" y="782" type="curve" smooth="yes"/>
      <point x="151" y="782"/>
      <point x="148" y="774"/>
      <point x="148" y="745" type="curve" smooth="yes"/>
      <point x="148" y="701"/>
      <point x="146" y="589"/>
      <point x="106" y="386" type="curve" smooth="yes"/>
      <point x="73" y="217"/>
      <point x="26" y="88"/>
      <point x="26" y="60" type="curve" smooth="yes"/>
      <point x="26" y="40"/>
      <point x="49" y="17"/>
      <point x="62" y="17" type="curve" smooth="yes"/>
      <point x="72" y="17"/>
      <point x="117" y="100"/>
      <point x="174" y="186" type="curve" smooth="yes"/>
      <point x="270" y="330"/>
      <point x="331" y="430"/>
      <point x="378" y="430" type="curve" smooth="yes"/>
      <point x="392" y="430"/>
      <point x="417" y="409"/>
      <point x="417" y="377" type="curve" smooth="yes"/>
      <point x="417" y="345"/>
      <point x="405" y="294"/>
      <point x="388" y="238" type="curve" smooth="yes"/>
      <point x="360" y="144"/>
      <point x="325" y="72"/>
      <point x="325" y="37" type="curve" smooth="yes"/>
      <point x="325" y="24"/>
      <point x="330" y="17"/>
      <point x="341" y="17" type="curve" smooth="yes"/>
      <point x="373" y="17"/>
      <point x="408" y="113"/>
      <point x="445" y="229" type="curve" smooth="yes"/>
      <point x="464" y="289"/>
      <point x="476" y="342"/>
      <point x="476" y="383" type="curve" smooth="yes"/>
      <point x="476" y="440"/>
      <point x="418" y="502"/>
      <point x="389" y="502" type="curve" smooth="yes"/>
      <point x="329" y="502"/>
      <point x="256" y="421"/>
      <point x="93" y="136" type="curve"/>
      <point x="184" y="393"/>
      <point x="210" y="640"/>
      <point x="210" y="714" type="curve" smooth="yes"/>
      <point x="210" y="746"/>
      <point x="186" y="782"/>
    </contour>
  </outline>
</glyph>
<glyph name="j" format="1">
  <advance width="251"/>
  <unicode hex="006A"/>
  <outline>
    <contour>
      <point x="271" y="605" type="curve" smooth="yes"/>
      <point x="271" y="635"/>
      <point x="240" y="696"/>
      <point x="220" y="696" type="curve" smooth="yes"/>
      <point x="203" y="696"/>
      <point x="184" y="675"/>
      <point x="184" y="655" type="curve" smooth="yes"/>
      <point x="184" y="630"/>
      <point x="227" y="588"/>
      <point x="255" y="588" type="curve" smooth="yes"/>
      <point x="262" y="588"/>
      <point x="271" y="596"/>
    </contour>
    <contour>
      <point x="144" y="466" type="curve" smooth="yes"/>
      <point x="26" y="7"/>
      <point x="19" y="-190"/>
      <point x="-61" y="-190" type="curve" smooth="yes"/>
      <point x="-89" y="-190"/>
      <point x="-112" y="-171"/>
      <point x="-132" y="-147" type="curve" smooth="yes"/>
      <point x="-153" y="-123"/>
      <point x="-170" y="-97"/>
      <point x="-181" y="-97" type="curve" smooth="yes"/>
      <point x="-189" y="-97"/>
      <point x="-200" y="-118"/>
      <point x="-200" y="-128" type="curve" smooth="yes"/>
      <point x="-200" y="-161"/>
      <point x="-130" y="-239"/>
      <point x="-60" y="-239" type="curve" smooth="yes"/>
      <point x="8" y="-239"/>
      <point x="42" y="-188"/>
      <point x="65" y="-97" type="curve" smooth="yes"/>
      <point x="175" y="347"/>
      <point x="197" y="431"/>
      <point x="197" y="463" type="curve" smooth="yes"/>
      <point x="197" y="483"/>
      <point x="177" y="502"/>
      <point x="163" y="502" type="curve" smooth="yes"/>
      <point x="157" y="502"/>
      <point x="151" y="490"/>
    </contour>
  </outline>
</glyph>
<glyph name="o" format="1">
  <advance width="452"/>
  <unicode hex="006F"/>
  <outline>
    <contour>
      <point x="287" y="470" type="move" name="top"/>
    </contour>
    <contour>
      <point x="410" y="337" type="curve" smooth="yes"/>
      <point x="410" y="421"/>
      <point x="364" y="502"/>
      <point x="289" y="502" type="curve" smooth="yes"/>
      <point x="158" y="502"/>
      <point x="45" y="325"/>
      <point x="45" y="175" type="curve" smooth="yes"/>
      <point x="45" y="87"/>
      <point x="87" y="17"/>
      <point x="155" y="17" type="curve" smooth="yes"/>
      <point x="294" y="17"/>
      <point x="410" y="185"/>
    </contour>
    <contour>
      <point x="294" y="457" type="curve"/>
      <point x="330" y="440"/>
      <point x="351" y="392"/>
      <point x="351" y="341" type="curve" smooth="yes"/>
      <point x="351" y="240"/>
      <point x="274" y="79"/>
      <point x="156" y="67" type="curve"/>
      <point x="117" y="81"/>
      <point x="105" y="120"/>
      <point x="105" y="160" type="curve" smooth="yes"/>
      <point x="105" y="282"/>
      <point x="177" y="435"/>
    </contour>
  </outline>
</glyph>
<glyph name="q" format="1">
  <advance width="450"/>
  <unicode hex="0071"/>
  <outline>
    <contour>
      <point x="298" y="502" type="curve" smooth="yes"/>
      <point x="172" y="502"/>
      <point x="10" y="263"/>
      <point x="10" y="132" type="curve" smooth="yes"/>
      <point x="10" y="78"/>
      <point x="68" y="17"/>
      <point x="118" y="17" type="curve" smooth="yes"/>
      <point x="183" y="17"/>
      <point x="288" y="84"/>
      <point x="330" y="171" type="curve"/>
      <point x="304" y="149" type="line"/>
      <point x="207" y="-117"/>
      <point x="187" y="-164"/>
      <point x="187" y="-190" type="curve" smooth="yes"/>
      <point x="187" y="-208"/>
      <point x="201" y="-239"/>
      <point x="218" y="-239" type="curve" smooth="yes"/>
      <point x="233" y="-239"/>
      <point x="289" y="-189"/>
      <point x="361" y="-150" type="curve" smooth="yes"/>
      <point x="385" y="-137"/>
      <point x="398" y="-126"/>
      <point x="398" y="-115" type="curve" smooth="yes"/>
      <point x="398" y="-105"/>
      <point x="388" y="-98"/>
      <point x="379" y="-98" type="curve" smooth="yes"/>
      <point x="356" y="-98"/>
      <point x="304" y="-121"/>
      <point x="225" y="-180" type="curve"/>
      <point x="236" y="-195" type="line"/>
      <point x="341" y="108"/>
      <point x="405" y="255"/>
      <point x="405" y="296" type="curve" smooth="yes"/>
      <point x="405" y="308"/>
      <point x="388" y="323"/>
      <point x="369" y="323" type="curve" smooth="yes"/>
      <point x="359" y="323"/>
      <point x="355" y="321"/>
      <point x="352" y="309" type="curve" smooth="yes"/>
      <point x="312" y="161"/>
      <point x="193" y="76"/>
      <point x="117" y="76" type="curve" smooth="yes"/>
      <point x="91" y="76"/>
      <point x="67" y="102"/>
      <point x="67" y="128" type="curve" smooth="yes"/>
      <point x="67" y="228"/>
      <point x="212" y="444"/>
      <point x="305" y="444" type="curve" smooth="yes"/>
      <point x="346" y="444"/>
      <point x="363" y="398"/>
      <point x="391" y="398" type="curve" smooth="yes"/>
      <point x="400" y="398"/>
      <point x="404" y="405"/>
      <point x="404" y="414" type="curve" smooth="yes"/>
      <point x="404" y="443"/>
      <point x="354" y="502"/>
    </contour>
  </outline>
</glyph>
<glyph name="s" format="1">
  <advance width="404"/>
  <unicode hex="0073"/>
  <outline>
    <contour>
      <point x="240" y="470" type="move" name="top"/>
    </contour>
    <contour>
      <point x="151" y="-30" type="move" name="cedilla"/>
    </contour>
    <contour>
      <point x="387" y="412" type="curve" smooth="yes"/>
      <point x="387" y="436"/>
      <point x="350" y="502"/>
      <point x="302" y="502" type="curve" smooth="yes"/>
      <point x="235" y="502"/>
      <point x="96" y="415"/>
      <point x="96" y="342" type="curve" smooth="yes"/>
      <point x="96" y="251"/>
      <point x="284" y="216"/>
      <point x="284" y="136" type="curve" smooth="yes"/>
      <point x="284" y="105"/>
      <point x="258" y="74"/>
      <point x="166" y="74" type="curve" smooth="yes"/>
      <point x="78" y="74"/>
      <point x="47" y="133"/>
      <point x="21" y="133" type="curve" smooth="yes"/>
      <point x="13" y="133"/>
      <point x="4" y="125"/>
      <point x="4" y="112" type="curve" smooth="yes"/>
      <point x="4" y="79"/>
      <point x="85" y="17"/>
      <point x="172" y="17" type="curve" smooth="yes"/>
      <point x="276" y="17"/>
      <point x="349" y="75"/>
      <point x="349" y="130" type="curve" smooth="yes"/>
      <point x="349" y="231"/>
      <point x="159" y="288"/>
      <point x="159" y="339" type="curve" smooth="yes"/>
      <point x="159" y="389"/>
      <point x="264" y="442"/>
      <point x="298" y="442" type="curve" smooth="yes"/>
      <point x="333" y="442"/>
      <point x="349" y="398"/>
      <point x="374" y="398" type="curve" smooth="yes"/>
      <point x="383" y="398"/>
      <point x="387" y="403"/>
    </contour>
  </outline>
</glyph>
<glyph name="v" format="1">
  <advance width="422"/>
  <unicode hex="0076"/>
  <outline>
    <contour>
      <point x="209" y="62" type="line"/>
      <point x="140" y="175"/>
      <point x="124" y="372"/>
      <point x="120" y="455" type="curve" smooth="yes"/>
      <point x="117" y="482"/>
      <point x="86" y="502"/>
      <point x="69" y="502" type="curve" smooth="yes"/>
      <point x="61" y="502"/>
      <point x="56" y="496"/>
      <point x="56" y="477" type="curve" smooth="yes"/>
      <point x="56" y="369"/>
      <point x="109" y="154"/>
      <point x="143" y="73" type="curve" smooth="yes"/>
      <point x="155" y="44"/>
      <point x="174" y="13"/>
      <point x="192" y="13" type="curve" smooth="yes"/>
      <point x="221" y="13"/>
      <point x="233" y="54"/>
      <point x="344" y="299" type="curve" smooth="yes"/>
      <point x="370" y="356"/>
      <point x="412" y="450"/>
      <point x="412" y="471" type="curve" smooth="yes"/>
      <point x="412" y="488"/>
      <point x="390" y="502"/>
      <point x="376" y="502" type="curve" smooth="yes"/>
      <point x="355" y="502"/>
      <point x="266" y="251"/>
      <point x="189" y="68" type="curve"/>
    </contour>
  </outline>
</glyph>
<glyph name="y" format="1">
  <advance width="442"/>
  <unicode hex="0079"/>
  <outline>
    <contour>
      <point x="276" y="470" type="move" name="top"/>
    </contour>
    <contour>
      <point x="203" y="464" type="curve" smooth="yes"/>
      <point x="203" y="485"/>
      <point x="187" y="502"/>
      <point x="174" y="502" type="curve" smooth="yes"/>
      <point x="134" y="502"/>
      <point x="31" y="264"/>
      <point x="31" y="132" type="curve" smooth="yes"/>
      <point x="31" y="77"/>
      <point x="75" y="17"/>
      <point x="139" y="17" type="curve" smooth="yes"/>
      <point x="218" y="17"/>
      <point x="295" y="98"/>
      <point x="351" y="250" type="curve"/>
      <point x="326" y="230" type="line"/>
      <point x="247" y="25"/>
      <point x="203" y="-191"/>
      <point x="129" y="-191" type="curve" smooth="yes"/>
      <point x="58" y="-191"/>
      <point x="20" y="-106"/>
      <point x="2" y="-106" type="curve" smooth="yes"/>
      <point x="-5" y="-106"/>
      <point x="-20" y="-124"/>
      <point x="-20" y="-137" type="curve" smooth="yes"/>
      <point x="-20" y="-187"/>
      <point x="64" y="-239"/>
      <point x="131" y="-239" type="curve" smooth="yes"/>
      <point x="191" y="-239"/>
      <point x="231" y="-192"/>
      <point x="264" y="-100" type="curve" smooth="yes"/>
      <point x="363" y="176"/>
      <point x="454" y="423"/>
      <point x="454" y="444" type="curve" smooth="yes"/>
      <point x="454" y="476"/>
      <point x="431" y="502"/>
      <point x="415" y="502" type="curve" smooth="yes"/>
      <point x="401" y="502"/>
      <point x="403" y="493"/>
      <point x="397" y="472" type="curve" smooth="yes"/>
      <point x="353" y="327"/>
      <point x="248" y="71"/>
      <point x="142" y="71" type="curve" smooth="yes"/>
      <point x="115" y="71"/>
      <point x="92" y="94"/>
      <point x="92" y="125" type="curve" smooth="yes"/>
      <point x="92" y="272"/>
      <point x="203" y="433"/>
    </contour>
  </outline>
</glyph>
<glyph name="bar" format="1">
  <advance width="320"/>
  <unicode hex="007C"/>
  <outline>
    <contour>
      <point x="87" y="-119" type="curve" smooth="yes"/>
      <point x="102" y="-119"/>
      <point x="167" y="180"/>
      <point x="197" y="296" type="curve" smooth="yes"/>
      <point x="236" y="451"/>
      <point x="294" y="703"/>
      <point x="294" y="736" type="curve" smooth="yes"/>
      <point x="294" y="769"/>
      <point x="268" y="803"/>
      <point x="251" y="803" type="curve" smooth="yes"/>
      <point x="236" y="803"/>
      <point x="234" y="795"/>
      <point x="234" y="773" type="curve" smooth="yes"/>
      <point x="234" y="669"/>
      <point x="52" y="-14"/>
      <point x="52" y="-75" type="curve" smooth="yes"/>
      <point x="52" y="-96"/>
      <point x="74" y="-119"/>
    </contour>
  </outline>
</glyph>
<glyph name="braceright" format="1">
  <advance width="490"/>
  <unicode hex="007D"/>
  <outline>
    <contour>
      <point x="351" y="853" type="curve" smooth="yes"/>
      <point x="279" y="853"/>
      <point x="190" y="795"/>
      <point x="190" y="749" type="curve" smooth="yes"/>
      <point x="190" y="739"/>
      <point x="213" y="717"/>
      <point x="224" y="717" type="curve" smooth="yes"/>
      <point x="247" y="717"/>
      <point x="270" y="798"/>
      <point x="342" y="798" type="curve" smooth="yes"/>
      <point x="395" y="798"/>
      <point x="443" y="759"/>
      <point x="443" y="703" type="curve" smooth="yes"/>
      <point x="443" y="599"/>
      <point x="273" y="515"/>
      <point x="273" y="426" type="curve" smooth="yes"/>
      <point x="273" y="361"/>
      <point x="340" y="310"/>
      <point x="401" y="310" type="curve" smooth="yes"/>
      <point x="428" y="310"/>
      <point x="446" y="328"/>
      <point x="446" y="342" type="curve" smooth="yes"/>
      <point x="446" y="351"/>
      <point x="435" y="351"/>
      <point x="413" y="355" type="curve" smooth="yes"/>
      <point x="400" y="357"/>
      <point x="387" y="361"/>
      <point x="375" y="366" type="curve" smooth="yes"/>
      <point x="351" y="377"/>
      <point x="331" y="396"/>
      <point x="331" y="426" type="curve" smooth="yes"/>
      <point x="331" y="493"/>
      <point x="505" y="584"/>
      <point x="505" y="709" type="curve" smooth="yes"/>
      <point x="505" y="783"/>
      <point x="425" y="853"/>
    </contour>
    <contour>
      <point x="217" y="-83" type="curve" smooth="yes"/>
      <point x="414" y="-83"/>
      <point x="289" y="268"/>
      <point x="422" y="314" type="curve"/>
      <point x="433" y="342" type="line"/>
      <point x="423" y="344"/>
      <point x="415" y="345"/>
      <point x="407" y="345" type="curve" smooth="yes"/>
      <point x="236" y="345"/>
      <point x="354" y="-30"/>
      <point x="210" y="-30" type="curve" smooth="yes"/>
      <point x="121" y="-30"/>
      <point x="131" y="20"/>
      <point x="95" y="20" type="curve" smooth="yes"/>
      <point x="87" y="20"/>
      <point x="81" y="12"/>
      <point x="81" y="-2" type="curve" smooth="yes"/>
      <point x="81" y="-37"/>
      <point x="147" y="-83"/>
    </contour>
  </outline>
</glyph>
<glyph name="exclamdown" format="1">
  <advance width="316"/>
  <unicode hex="00A1"/>
  <outline>
    <contour>
      <point x="137" y="-212" type="curve" smooth="yes"/>
      <point x="143" y="-212"/>
      <point x="145" y="-204"/>
      <point x="145" y="-188" type="curve" smooth="yes"/>
      <point x="145" y="75"/>
      <point x="209" y="308"/>
      <point x="209" y="324" type="curve" smooth="yes"/>
      <point x="209" y="341"/>
      <point x="197" y="357"/>
      <point x="184" y="357" type="curve" smooth="yes"/>
      <point x="153" y="357"/>
      <point x="79" y="-55"/>
      <point x="79" y="-175" type="curve" smooth="yes"/>
      <point x="79" y="-190"/>
      <point x="121" y="-212"/>
    </contour>
    <contour>
      <point x="249" y="469" type="curve" smooth="yes"/>
      <point x="267" y="469"/>
      <point x="289" y="499"/>
      <point x="289" y="519" type="curve" smooth="yes"/>
      <point x="289" y="547"/>
      <point x="241" y="596"/>
      <point x="212" y="596" type="curve" smooth="yes"/>
      <point x="203" y="596"/>
      <point x="193" y="587"/>
      <point x="193" y="582" type="curve" smooth="yes"/>
      <point x="193" y="555"/>
      <point x="227" y="469"/>
    </contour>
  </outline>
</glyph>
<glyph name="cent" format="1">
  <advance width="448"/>
  <unicode hex="00A2"/>
  <outline>
    <contour>
      <point x="169" y="-45" type="curve" smooth="yes"/>
      <point x="169" y="-55"/>
      <point x="185" y="-73"/>
      <point x="192" y="-73" type="curve" smooth="yes"/>
      <point x="211" y="-73"/>
      <point x="326" y="412"/>
      <point x="354" y="512" type="curve" smooth="yes"/>
      <point x="361" y="539"/>
      <point x="369" y="554"/>
      <point x="369" y="568" type="curve" smooth="yes"/>
      <point x="369" y="586"/>
      <point x="359" y="605"/>
      <point x="346" y="605" type="curve" smooth="yes"/>
      <point x="311" y="605"/>
      <point x="171" y="-11"/>
    </contour>
    <contour>
      <point x="331" y="505" type="curve" smooth="yes"/>
      <point x="207" y="505"/>
      <point x="61" y="299"/>
      <point x="61" y="163" type="curve" smooth="yes"/>
      <point x="61" y="79"/>
      <point x="132" y="20"/>
      <point x="214" y="20" type="curve" smooth="yes"/>
      <point x="282" y="20"/>
      <point x="396" y="82"/>
      <point x="396" y="109" type="curve" smooth="yes"/>
      <point x="396" y="120"/>
      <point x="392" y="125"/>
      <point x="382" y="125" type="curve" smooth="yes"/>
      <point x="351" y="125"/>
      <point x="315" y="79"/>
      <point x="206" y="79" type="curve" smooth="yes"/>
      <point x="154" y="79"/>
      <point x="121" y="115"/>
      <point x="121" y="161" type="curve" smooth="yes"/>
      <point x="121" y="264"/>
      <point x="241" y="446"/>
      <point x="334" y="446" type="curve" smooth="yes"/>
      <point x="372" y="446"/>
      <point x="394" y="400"/>
      <point x="420" y="400" type="curve" smooth="yes"/>
      <point x="427" y="400"/>
      <point x="432" y="405"/>
      <point x="432" y="414" type="curve" smooth="yes"/>
      <point x="432" y="440"/>
      <point x="399" y="505"/>
    </contour>
  </outline>
</glyph>
<glyph name="sterling" format="1">
  <advance width="617"/>
  <unicode hex="00A3"/>
  <outline>
    <contour>
      <point x="549" y="656" type="curve" smooth="yes"/>
      <point x="477" y="656"/>
      <point x="414" y="625"/>
      <point x="334" y="363" type="curve" smooth="yes"/>
      <point x="255" y="107"/>
      <point x="221" y="70"/>
      <point x="198" y="70" type="curve" smooth="yes"/>
      <point x="168" y="70"/>
      <point x="128" y="116"/>
      <point x="128" y="140" type="curve" smooth="yes"/>
      <point x="128" y="165"/>
      <point x="146" y="178"/>
      <point x="170" y="178" type="curve" smooth="yes"/>
      <point x="237" y="178"/>
      <point x="309" y="15"/>
      <point x="439" y="15" type="curve" smooth="yes"/>
      <point x="507" y="15"/>
      <point x="594" y="89"/>
      <point x="594" y="122" type="curve" smooth="yes"/>
      <point x="594" y="138"/>
      <point x="584" y="150"/>
      <point x="565" y="150" type="curve" smooth="yes"/>
      <point x="532" y="150"/>
      <point x="513" y="69"/>
      <point x="428" y="69" type="curve" smooth="yes"/>
      <point x="342" y="69"/>
      <point x="283" y="231"/>
      <point x="164" y="231" type="curve" smooth="yes"/>
      <point x="112" y="231"/>
      <point x="67" y="197"/>
      <point x="67" y="143" type="curve" smooth="yes"/>
      <point x="67" y="84"/>
      <point x="147" y="17"/>
      <point x="196" y="17" type="curve" smooth="yes"/>
      <point x="264" y="17"/>
      <point x="295" y="61"/>
      <point x="393" y="354" type="curve" smooth="yes"/>
      <point x="462" y="563"/>
      <point x="505" y="599"/>
      <point x="545" y="599" type="curve" smooth="yes"/>
      <point x="573" y="599"/>
      <point x="591" y="583"/>
      <point x="591" y="551" type="curve" smooth="yes"/>
      <point x="591" y="536"/>
      <point x="585" y="528"/>
      <point x="585" y="516" type="curve" smooth="yes"/>
      <point x="585" y="508"/>
      <point x="591" y="503"/>
      <point x="598" y="503" type="curve" smooth="yes"/>
      <point x="611" y="503"/>
      <point x="647" y="531"/>
      <point x="647" y="560" type="curve" smooth="yes"/>
      <point x="647" y="613"/>
      <point x="610" y="656"/>
    </contour>
    <contour>
      <point x="551" y="370" type="curve" smooth="yes"/>
      <point x="551" y="382"/>
      <point x="535" y="383"/>
      <point x="372" y="383" type="curve" smooth="yes"/>
      <point x="339" y="383"/>
      <point x="292" y="385"/>
      <point x="248" y="385" type="curve" smooth="yes"/>
      <point x="234" y="385"/>
      <point x="216" y="363"/>
      <point x="216" y="347" type="curve" smooth="yes"/>
      <point x="216" y="334"/>
      <point x="275" y="330"/>
      <point x="337" y="330" type="curve" smooth="yes"/>
      <point x="417" y="330"/>
      <point x="551" y="338"/>
    </contour>
  </outline>
</glyph>
<glyph name="yen" format="1">
  <advance width="535"/>
  <unicode hex="00A5"/>
  <outline>
    <contour>
      <point x="430" y="332" type="curve" smooth="yes"/>
      <point x="430" y="340"/>
      <point x="418" y="345"/>
      <point x="396" y="348" type="curve" smooth="yes"/>
      <point x="380" y="350"/>
      <point x="361" y="350"/>
      <point x="340" y="350" type="curve" smooth="yes"/>
      <point x="251" y="350"/>
      <point x="51" y="339"/>
      <point x="51" y="311" type="curve" smooth="yes"/>
      <point x="51" y="293"/>
      <point x="65" y="282"/>
      <point x="73" y="282" type="curve" smooth="yes"/>
      <point x="116" y="282"/>
      <point x="198" y="288"/>
      <point x="266" y="294" type="curve" smooth="yes"/>
      <point x="397" y="305"/>
      <point x="430" y="313"/>
    </contour>
    <contour>
      <point x="421" y="218" type="curve" smooth="yes"/>
      <point x="421" y="231"/>
      <point x="385" y="234"/>
      <point x="345" y="234" type="curve" smooth="yes"/>
      <point x="258" y="234"/>
      <point x="37" y="222"/>
      <point x="37" y="195" type="curve" smooth="yes"/>
      <point x="37" y="184"/>
      <point x="47" y="163"/>
      <point x="59" y="163" type="curve" smooth="yes"/>
      <point x="126" y="163"/>
      <point x="188" y="169"/>
      <point x="250" y="176" type="curve" smooth="yes"/>
      <point x="391" y="189"/>
      <point x="421" y="199"/>
    </contour>
    <contour>
      <point x="109" y="648" type="curve" smooth="yes"/>
      <point x="99" y="648"/>
      <point x="94" y="642"/>
      <point x="94" y="632" type="curve" smooth="yes"/>
      <point x="94" y="565"/>
      <point x="173" y="397"/>
      <point x="211" y="341" type="curve"/>
      <point x="210" y="231"/>
      <point x="156" y="120"/>
      <point x="156" y="59" type="curve" smooth="yes"/>
      <point x="156" y="37"/>
      <point x="179" y="17"/>
      <point x="192" y="17" type="curve" smooth="yes"/>
      <point x="205" y="17"/>
      <point x="214" y="76"/>
      <point x="240" y="174" type="curve" smooth="yes"/>
      <point x="257" y="236"/>
      <point x="268" y="294"/>
      <point x="270" y="328" type="curve"/>
      <point x="348" y="419"/>
      <point x="561" y="604"/>
      <point x="561" y="626" type="curve" smooth="yes"/>
      <point x="561" y="634"/>
      <point x="545" y="648"/>
      <point x="533" y="648" type="curve" smooth="yes"/>
      <point x="491" y="648"/>
      <point x="313" y="463"/>
      <point x="250" y="379" type="curve"/>
      <point x="192" y="478"/>
      <point x="177" y="580"/>
      <point x="161" y="612" type="curve" smooth="yes"/>
      <point x="151" y="633"/>
      <point x="129" y="648"/>
    </contour>
  </outline>
</glyph>
<glyph name="brokenbar" format="1">
  <advance width="322"/>
  <unicode hex="00A6"/>
  <outline>
    <contour>
      <point x="53" y="-75" type="curve" smooth="yes"/>
      <point x="53" y="-96"/>
      <point x="75" y="-119"/>
      <point x="88" y="-119" type="curve" smooth="yes"/>
      <point x="110" y="-119"/>
      <point x="168" y="147"/>
      <point x="168" y="187" type="curve" smooth="yes"/>
      <point x="168" y="220"/>
      <point x="142" y="254"/>
      <point x="126" y="254" type="curve" smooth="yes"/>
      <point x="111" y="254"/>
      <point x="108" y="246"/>
      <point x="108" y="224" type="curve" smooth="yes"/>
      <point x="108" y="120"/>
      <point x="53" y="-14"/>
    </contour>
    <contour>
      <point x="180" y="473" type="curve" smooth="yes"/>
      <point x="180" y="453"/>
      <point x="202" y="430"/>
      <point x="215" y="430" type="curve" smooth="yes"/>
      <point x="238" y="430"/>
      <point x="295" y="696"/>
      <point x="295" y="736" type="curve" smooth="yes"/>
      <point x="295" y="769"/>
      <point x="270" y="803"/>
      <point x="253" y="803" type="curve" smooth="yes"/>
      <point x="238" y="803"/>
      <point x="235" y="795"/>
      <point x="235" y="773" type="curve" smooth="yes"/>
      <point x="235" y="669"/>
      <point x="180" y="535"/>
    </contour>
  </outline>
</glyph>
<glyph name="copyright" format="1">
  <advance width="708"/>
  <unicode hex="00A9"/>
  <outline>
    <contour>
      <point x="447" y="533" type="move" name="top"/>
    </contour>
    <contour>
      <point x="337" y="152" type="move" name="cedilla"/>
    </contour>
    <contour>
      <point x="704" y="404" type="curve" smooth="yes"/>
      <point x="704" y="549"/>
      <point x="607" y="660"/>
      <point x="447" y="660" type="curve" smooth="yes"/>
      <point x="267" y="660"/>
      <point x="90" y="492"/>
      <point x="90" y="309" type="curve" smooth="yes"/>
      <point x="90" y="170"/>
      <point x="175" y="60"/>
      <point x="338" y="60" type="curve" smooth="yes"/>
      <point x="544" y="60"/>
      <point x="704" y="206"/>
    </contour>
    <contour>
      <point x="324" y="102" type="curve" smooth="yes"/>
      <point x="221" y="102"/>
      <point x="145" y="168"/>
      <point x="145" y="289" type="curve" smooth="yes"/>
      <point x="145" y="498"/>
      <point x="329" y="617"/>
      <point x="472" y="617" type="curve" smooth="yes"/>
      <point x="568" y="617"/>
      <point x="646" y="533"/>
      <point x="646" y="414" type="curve" smooth="yes"/>
      <point x="646" y="213"/>
      <point x="519" y="102"/>
    </contour>
    <contour>
      <point x="514" y="507" type="curve"/>
      <point x="514" y="497"/>
      <point x="508" y="494"/>
      <point x="503" y="494" type="curve"/>
      <point x="490" y="494"/>
      <point x="481" y="503"/>
      <point x="465" y="503" type="curve"/>
      <point x="413" y="503"/>
      <point x="294" y="383"/>
      <point x="294" y="279" type="curve"/>
      <point x="294" y="249"/>
      <point x="323" y="226"/>
      <point x="353" y="226" type="curve"/>
      <point x="423" y="226"/>
      <point x="465" y="272"/>
      <point x="486" y="272" type="curve"/>
      <point x="496" y="272"/>
      <point x="499" y="263"/>
      <point x="499" y="257" type="curve"/>
      <point x="499" y="233"/>
      <point x="415" y="175"/>
      <point x="352" y="175" type="curve"/>
      <point x="298" y="175"/>
      <point x="242" y="226"/>
      <point x="242" y="281" type="curve"/>
      <point x="242" y="384"/>
      <point x="364" y="552"/>
      <point x="467" y="552" type="curve"/>
      <point x="488" y="552"/>
      <point x="514" y="526"/>
    </contour>
  </outline>
</glyph>
<glyph name="ordfeminine" format="1">
  <advance width="440"/>
  <unicode hex="00AA"/>
  <outline>
    <contour>
      <point x="388" y="710" type="curve" smooth="yes"/>
      <point x="388" y="737"/>
      <point x="349" y="805"/>
      <point x="283" y="805" type="curve" smooth="yes"/>
      <point x="168" y="805"/>
      <point x="80" y="640"/>
      <point x="80" y="551" type="curve" smooth="yes"/>
      <point x="80" y="500"/>
      <point x="122" y="448"/>
      <point x="179" y="448" type="curve" smooth="yes"/>
      <point x="243" y="448"/>
      <point x="316" y="519"/>
      <point x="347" y="600" type="curve"/>
      <point x="322" y="613" type="line"/>
      <point x="316" y="582"/>
      <point x="314" y="567"/>
      <point x="314" y="525" type="curve" smooth="yes"/>
      <point x="314" y="485"/>
      <point x="328" y="448"/>
      <point x="344" y="448" type="curve" smooth="yes"/>
      <point x="358" y="448"/>
      <point x="360" y="468"/>
      <point x="360" y="497" type="curve" smooth="yes"/>
      <point x="360" y="622"/>
      <point x="384" y="632"/>
      <point x="384" y="681" type="curve" smooth="yes"/>
      <point x="384" y="702"/>
      <point x="376" y="718"/>
      <point x="367" y="718" type="curve" smooth="yes"/>
      <point x="354" y="718"/>
      <point x="348" y="709"/>
      <point x="344" y="696" type="curve" smooth="yes"/>
      <point x="310" y="587"/>
      <point x="243" y="499"/>
      <point x="179" y="499" type="curve" smooth="yes"/>
      <point x="148" y="499"/>
      <point x="133" y="519"/>
      <point x="133" y="549" type="curve" smooth="yes"/>
      <point x="133" y="629"/>
      <point x="207" y="753"/>
      <point x="285" y="753" type="curve" smooth="yes"/>
      <point x="320" y="753"/>
      <point x="342" y="713"/>
      <point x="342" y="693" type="curve" smooth="yes"/>
      <point x="342" y="659"/>
      <point x="345" y="647"/>
      <point x="357" y="647" type="curve" smooth="yes"/>
      <point x="368" y="647"/>
      <point x="388" y="681"/>
    </contour>
  </outline>
</glyph>
<glyph name="registered" format="1">
  <advance width="767"/>
  <unicode hex="00AE"/>
  <outline>
    <contour>
      <point x="430" y="518" type="move" name="top"/>
    </contour>
    <contour>
      <point x="451" y="660" type="curve" smooth="yes"/>
      <point x="271" y="660"/>
      <point x="94" y="492"/>
      <point x="94" y="309" type="curve" smooth="yes"/>
      <point x="94" y="170"/>
      <point x="179" y="60"/>
      <point x="342" y="60" type="curve" smooth="yes"/>
      <point x="548" y="60"/>
      <point x="708" y="206"/>
      <point x="708" y="404" type="curve" smooth="yes"/>
      <point x="708" y="549"/>
      <point x="611" y="660"/>
    </contour>
    <contour>
      <point x="150" y="289" type="curve" smooth="yes"/>
      <point x="150" y="498"/>
      <point x="333" y="617"/>
      <point x="477" y="617" type="curve" smooth="yes"/>
      <point x="573" y="617"/>
      <point x="650" y="533"/>
      <point x="650" y="414" type="curve" smooth="yes"/>
      <point x="650" y="213"/>
      <point x="524" y="102"/>
      <point x="328" y="102" type="curve" smooth="yes"/>
      <point x="225" y="102"/>
      <point x="150" y="168"/>
    </contour>
    <contour>
      <point x="382" y="339" type="curve"/>
      <point x="382" y="331"/>
      <point x="427" y="289"/>
      <point x="458" y="263" type="curve"/>
      <point x="485" y="240"/>
      <point x="516" y="219"/>
      <point x="516" y="205" type="curve"/>
      <point x="516" y="198"/>
      <point x="509" y="191"/>
      <point x="498" y="191" type="curve"/>
      <point x="462" y="191"/>
      <point x="334" y="305"/>
      <point x="334" y="346" type="curve" smooth="yes"/>
      <point x="334" y="372"/>
      <point x="484" y="400"/>
      <point x="484" y="467" type="curve"/>
      <point x="484" y="485"/>
      <point x="464" y="493"/>
      <point x="432" y="493" type="curve"/>
      <point x="394" y="493"/>
      <point x="364" y="475"/>
      <point x="349" y="475" type="curve"/>
      <point x="337" y="475"/>
      <point x="326" y="492"/>
      <point x="326" y="502" type="curve"/>
      <point x="326" y="521"/>
      <point x="384" y="537"/>
      <point x="422" y="537" type="curve"/>
      <point x="477" y="537"/>
      <point x="528" y="515"/>
      <point x="528" y="464" type="curve"/>
      <point x="528" y="373"/>
      <point x="382" y="342"/>
    </contour>
    <contour>
      <point x="353" y="517" type="curve"/>
      <point x="364" y="517"/>
      <point x="380" y="497"/>
      <point x="380" y="478" type="curve"/>
      <point x="380" y="458"/>
      <point x="370" y="410"/>
      <point x="346" y="325" type="curve"/>
      <point x="328" y="263"/>
      <point x="313" y="191"/>
      <point x="299" y="191" type="curve"/>
      <point x="290" y="191"/>
      <point x="275" y="206"/>
      <point x="275" y="219" type="curve"/>
      <point x="275" y="254"/>
      <point x="338" y="434"/>
      <point x="338" y="496" type="curve"/>
      <point x="338" y="508"/>
      <point x="340" y="517"/>
    </contour>
  </outline>
</glyph>
<glyph name="plusminus" format="1">
  <advance width="600"/>
  <unicode hex="00B1"/>
  <outline>
    <contour>
      <point x="137" y="396" type="curve" smooth="yes"/>
      <point x="320" y="396"/>
      <point x="574" y="429"/>
      <point x="574" y="461" type="curve"/>
      <point x="574" y="474"/>
      <point x="559" y="481"/>
      <point x="534" y="481" type="curve" smooth="yes"/>
      <point x="451" y="481"/>
      <point x="381" y="458"/>
      <point x="205" y="458" type="curve" smooth="yes"/>
      <point x="155" y="458"/>
      <point x="120" y="460"/>
      <point x="110" y="460" type="curve" smooth="yes"/>
      <point x="97" y="460"/>
      <point x="85" y="454"/>
      <point x="85" y="441" type="curve"/>
      <point x="85" y="422"/>
      <point x="111" y="396"/>
    </contour>
    <contour>
      <point x="347" y="422" type="curve"/>
      <point x="367" y="516"/>
      <point x="381" y="577"/>
      <point x="381" y="596" type="curve" smooth="yes"/>
      <point x="381" y="615"/>
      <point x="346" y="648"/>
      <point x="332" y="648" type="curve" smooth="yes"/>
      <point x="324" y="648"/>
      <point x="317" y="641"/>
      <point x="317" y="621" type="curve" smooth="yes"/>
      <point x="317" y="543"/>
      <point x="265" y="277"/>
      <point x="265" y="249" type="curve" smooth="yes"/>
      <point x="265" y="220"/>
      <point x="280" y="200"/>
      <point x="293" y="200" type="curve" smooth="yes"/>
      <point x="313" y="200"/>
      <point x="320" y="284"/>
    </contour>
    <contour>
      <point x="120" y="71" type="curve" smooth="yes"/>
      <point x="184" y="71"/>
      <point x="535" y="87"/>
      <point x="535" y="133" type="curve" smooth="yes"/>
      <point x="535" y="141"/>
      <point x="524" y="145"/>
      <point x="494" y="145" type="curve" smooth="yes"/>
      <point x="431" y="145"/>
      <point x="288" y="126"/>
      <point x="93" y="126" type="curve" smooth="yes"/>
      <point x="82" y="126"/>
      <point x="79" y="119"/>
      <point x="79" y="113" type="curve" smooth="yes"/>
      <point x="79" y="100"/>
      <point x="99" y="71"/>
    </contour>
  </outline>
</glyph>
<glyph name="threesuperior" format="1">
  <advance width="317"/>
  <unicode hex="00B3"/>
  <outline>
    <contour>
      <point x="313" y="650" type="curve"/>
      <point x="313" y="688"/>
      <point x="280" y="725"/>
      <point x="234" y="725" type="curve"/>
      <point x="193" y="725"/>
      <point x="125" y="698"/>
      <point x="125" y="675" type="curve"/>
      <point x="125" y="663"/>
      <point x="141" y="649"/>
      <point x="152" y="649" type="curve"/>
      <point x="172" y="649"/>
      <point x="200" y="681"/>
      <point x="238" y="681" type="curve"/>
      <point x="264" y="681"/>
      <point x="267" y="667"/>
      <point x="267" y="658" type="curve"/>
      <point x="267" y="594"/>
      <point x="128" y="575"/>
      <point x="128" y="540" type="curve" smooth="yes"/>
      <point x="128" y="531"/>
      <point x="138" y="529"/>
      <point x="150" y="529" type="curve" smooth="yes"/>
      <point x="177" y="529"/>
      <point x="313" y="584"/>
    </contour>
    <contour>
      <point x="118" y="368" type="curve"/>
      <point x="199" y="368"/>
      <point x="310" y="416"/>
      <point x="310" y="482" type="curve" smooth="yes"/>
      <point x="310" y="530"/>
      <point x="234" y="555"/>
      <point x="156" y="555" type="curve" smooth="yes"/>
      <point x="141" y="555"/>
      <point x="128" y="551"/>
      <point x="128" y="539" type="curve" smooth="yes"/>
      <point x="128" y="515"/>
      <point x="256" y="515"/>
      <point x="256" y="481" type="curve" smooth="yes"/>
      <point x="256" y="413"/>
      <point x="62" y="414"/>
      <point x="62" y="387" type="curve" smooth="yes"/>
      <point x="62" y="373"/>
      <point x="82" y="368"/>
    </contour>
  </outline>
</glyph>
<glyph name="acute" format="1">
  <advance width="0"/>
  <unicode hex="00B4"/>
  <outline>
    <contour>
      <point x="0" y="566" type="move" name="_top"/>
    </contour>
    <contour>
      <point x="8" y="682" type="curve" smooth="yes"/>
      <point x="8" y="670"/>
      <point x="18" y="663"/>
      <point x="27" y="663" type="curve" smooth="yes"/>
      <point x="42" y="663"/>
      <point x="57" y="677"/>
      <point x="107" y="716" type="curve" smooth="yes"/>
      <point x="159" y="757"/>
      <point x="181" y="770"/>
      <point x="181" y="791" type="curve" smooth="yes"/>
      <point x="181" y="809"/>
      <point x="167" y="834"/>
      <point x="150" y="834" type="curve" smooth="yes"/>
      <point x="133" y="834"/>
      <point x="105" y="798"/>
      <point x="73" y="764" type="curve" smooth="yes"/>
      <point x="29" y="717"/>
      <point x="8" y="701"/>
    </contour>
  </outline>
</glyph>
<glyph name="paragraph" format="1">
  <advance width="483"/>
  <unicode hex="00B6"/>
  <outline>
    <contour>
      <point x="153" y="370" type="curve" smooth="yes"/>
      <point x="184" y="370"/>
      <point x="214" y="384"/>
      <point x="242" y="405" type="curve"/>
      <point x="221" y="291"/>
      <point x="157" y="69"/>
      <point x="157" y="50" type="curve" smooth="yes"/>
      <point x="157" y="34"/>
      <point x="178" y="17"/>
      <point x="189" y="17" type="curve" smooth="yes"/>
      <point x="199" y="17"/>
      <point x="217" y="60"/>
      <point x="237" y="135" type="curve" smooth="yes"/>
      <point x="297" y="362"/>
      <point x="339" y="558"/>
      <point x="340" y="709" type="curve" smooth="yes"/>
      <point x="340" y="713"/>
      <point x="340" y="716"/>
      <point x="339" y="719" type="curve"/>
      <point x="386" y="727"/>
      <point x="413" y="731"/>
      <point x="429" y="736" type="curve"/>
      <point x="413" y="443"/>
      <point x="301" y="85"/>
      <point x="301" y="49" type="curve" smooth="yes"/>
      <point x="301" y="33"/>
      <point x="322" y="17"/>
      <point x="333" y="17" type="curve" smooth="yes"/>
      <point x="342" y="17"/>
      <point x="360" y="60"/>
      <point x="380" y="135" type="curve" smooth="yes"/>
      <point x="440" y="361"/>
      <point x="483" y="560"/>
      <point x="484" y="711" type="curve" smooth="yes"/>
      <point x="484" y="740"/>
      <point x="458" y="768"/>
      <point x="445" y="772" type="curve" smooth="yes"/>
      <point x="436" y="776"/>
      <point x="422" y="778"/>
      <point x="406" y="778" type="curve" smooth="yes"/>
      <point x="370" y="778"/>
      <point x="264" y="765"/>
      <point x="228" y="746" type="curve" smooth="yes"/>
      <point x="135" y="697"/>
      <point x="63" y="551"/>
      <point x="63" y="462" type="curve" smooth="yes"/>
      <point x="63" y="420"/>
      <point x="101" y="370"/>
    </contour>
  </outline>
</glyph>
<glyph name="cedilla" format="1">
  <advance width="0"/>
  <unicode hex="00B8"/>
  <outline>
    <contour>
      <point x="0" y="-36" type="move" name="_cedilla"/>
    </contour>
    <contour>
      <point x="-28" y="27" type="curve" smooth="yes"/>
      <point x="-38" y="27"/>
      <point x="-50" y="23"/>
      <point x="-55" y="6" type="curve" smooth="yes"/>
      <point x="-69" y="-38"/>
      <point x="-95" y="-77"/>
      <point x="-95" y="-96" type="curve" smooth="yes"/>
      <point x="-95" y="-118"/>
      <point x="-13" y="-113"/>
      <point x="-4" y="-134" type="curve"/>
      <point x="-34" y="-185"/>
      <point x="-144" y="-169"/>
      <point x="-144" y="-198" type="curve" smooth="yes"/>
      <point x="-144" y="-210"/>
      <point x="-133" y="-215"/>
      <point x="-114" y="-215" type="curve" smooth="yes"/>
      <point x="-55" y="-215"/>
      <point x="61" y="-192"/>
      <point x="61" y="-125" type="curve" smooth="yes"/>
      <point x="61" y="-97"/>
      <point x="14" y="-72"/>
      <point x="-28" y="-72" type="curve" smooth="yes"/>
      <point x="-41" y="-72"/>
      <point x="-59" y="-73"/>
      <point x="-69" y="-76" type="curve"/>
      <point x="-44" y="-85" type="line"/>
      <point x="-20" y="-46"/>
      <point x="-6" y="-12"/>
      <point x="-6" y="4" type="curve" smooth="yes"/>
      <point x="-6" y="19"/>
      <point x="-12" y="27"/>
    </contour>
  </outline>
</glyph>
<glyph name="onesuperior" format="1">
  <advance width="150"/>
  <unicode hex="00B9"/>
  <outline>
    <contour>
      <point x="168" y="691" type="curve" smooth="yes"/>
      <point x="168" y="704"/>
      <point x="143" y="726"/>
      <point x="132" y="726" type="curve" smooth="yes"/>
      <point x="124" y="726"/>
      <point x="121" y="718"/>
      <point x="121" y="705" type="curve" smooth="yes"/>
      <point x="121" y="585"/>
      <point x="83" y="425"/>
      <point x="83" y="400" type="curve" smooth="yes"/>
      <point x="83" y="380"/>
      <point x="99" y="365"/>
      <point x="108" y="365" type="curve" smooth="yes"/>
      <point x="126" y="365"/>
      <point x="137" y="442"/>
      <point x="149" y="523" type="curve" smooth="yes"/>
      <point x="159" y="590"/>
      <point x="168" y="649"/>
    </contour>
  </outline>
</glyph>
<glyph name="ordmasculine" format="1">
  <advance width="452"/>
  <unicode hex="00BA"/>
  <outline>
    <contour>
      <point x="385" y="646" type="curve" smooth="yes"/>
      <point x="385" y="724"/>
      <point x="347" y="805"/>
      <point x="272" y="805" type="curve" smooth="yes"/>
      <point x="167" y="805"/>
      <point x="95" y="696"/>
      <point x="95" y="604" type="curve" smooth="yes"/>
      <point x="95" y="531"/>
      <point x="135" y="452"/>
      <point x="200" y="452" type="curve" smooth="yes"/>
      <point x="314" y="452"/>
      <point x="385" y="564"/>
    </contour>
    <contour>
      <point x="149" y="595" type="curve" smooth="yes"/>
      <point x="149" y="667"/>
      <point x="183" y="739"/>
      <point x="273" y="761" type="curve"/>
      <point x="315" y="740"/>
      <point x="330" y="700"/>
      <point x="330" y="650" type="curve" smooth="yes"/>
      <point x="330" y="571"/>
      <point x="289" y="509"/>
      <point x="196" y="496" type="curve"/>
      <point x="170" y="513"/>
      <point x="149" y="551"/>
    </contour>
  </outline>
</glyph>
<glyph name="threequarters" format="1">
  <advance width="829"/>
  <unicode hex="00BE"/>
  <outline>
    <contour>
      <point x="744" y="201" type="curve"/>
      <point x="744" y="215"/>
      <point x="737" y="221"/>
      <point x="726" y="221" type="curve"/>
      <point x="696" y="221"/>
      <point x="630" y="181"/>
      <point x="575" y="181" type="curve" smooth="yes"/>
      <point x="550" y="181"/>
      <point x="539" y="194"/>
      <point x="539" y="221" type="curve" smooth="yes"/>
      <point x="539" y="298"/>
      <point x="692" y="442"/>
      <point x="692" y="465" type="curve"/>
      <point x="692" y="478"/>
      <point x="678" y="492"/>
      <point x="665" y="492" type="curve"/>
      <point x="640" y="492"/>
      <point x="486" y="302"/>
      <point x="486" y="220" type="curve" smooth="yes"/>
      <point x="486" y="166"/>
      <point x="522" y="131"/>
      <point x="576" y="131" type="curve" smooth="yes"/>
      <point x="640" y="131"/>
      <point x="744" y="177"/>
    </contour>
    <contour>
      <point x="725" y="330" type="curve"/>
      <point x="716" y="330"/>
      <point x="706" y="323"/>
      <point x="706" y="306" type="curve"/>
      <point x="706" y="143"/>
      <point x="647" y="40"/>
      <point x="647" y="8" type="curve"/>
      <point x="647" y="-5"/>
      <point x="655" y="-19"/>
      <point x="667" y="-19" type="curve"/>
      <point x="698" y="-19"/>
      <point x="761" y="192"/>
      <point x="761" y="286" type="curve"/>
      <point x="761" y="305"/>
      <point x="736" y="330"/>
    </contour>
    <contour>
      <point x="302" y="785" type="curve"/>
      <point x="248" y="785"/>
      <point x="164" y="750"/>
      <point x="164" y="724" type="curve"/>
      <point x="164" y="711"/>
      <point x="182" y="695"/>
      <point x="196" y="695" type="curve"/>
      <point x="221" y="695"/>
      <point x="256" y="736"/>
      <point x="306" y="736" type="curve"/>
      <point x="342" y="736"/>
      <point x="346" y="715"/>
      <point x="346" y="702" type="curve"/>
      <point x="346" y="620"/>
      <point x="168" y="586"/>
      <point x="168" y="552" type="curve"/>
      <point x="168" y="544"/>
      <point x="178" y="541"/>
      <point x="188" y="541" type="curve" smooth="yes"/>
      <point x="249" y="541"/>
      <point x="400" y="624"/>
      <point x="400" y="693" type="curve" smooth="yes"/>
      <point x="400" y="739"/>
      <point x="358" y="785"/>
    </contour>
    <contour>
      <point x="152" y="334" type="curve"/>
      <point x="256" y="334"/>
      <point x="396" y="396"/>
      <point x="396" y="476" type="curve"/>
      <point x="396" y="535"/>
      <point x="301" y="566"/>
      <point x="201" y="566" type="curve"/>
      <point x="182" y="566"/>
      <point x="167" y="566"/>
      <point x="167" y="546" type="curve"/>
      <point x="167" y="519"/>
      <point x="333" y="526"/>
      <point x="333" y="478" type="curve"/>
      <point x="333" y="378"/>
      <point x="83" y="382"/>
      <point x="83" y="357" type="curve"/>
      <point x="83" y="340"/>
      <point x="107" y="334"/>
    </contour>
    <contour>
      <point x="420" y="307" type="curve" smooth="yes"/>
      <point x="513" y="445"/>
      <point x="687" y="636"/>
      <point x="687" y="687" type="curve" smooth="yes"/>
      <point x="687" y="708"/>
      <point x="671" y="738"/>
      <point x="662" y="738" type="curve" smooth="yes"/>
      <point x="653" y="738"/>
      <point x="651" y="732"/>
      <point x="637" y="713" type="curve" smooth="yes"/>
      <point x="295" y="234"/>
      <point x="165" y="47"/>
      <point x="165" y="16" type="curve" smooth="yes"/>
      <point x="165" y="5"/>
      <point x="181" y="-17"/>
      <point x="187" y="-17" type="curve" smooth="yes"/>
      <point x="202" y="-17"/>
      <point x="221" y="11"/>
    </contour>
  </outline>
</glyph>
<glyph name="Acircumflex" format="1">
  <advance width="596"/>
  <unicode hex="00C2"/>
  <outline>
    <contour>
      <point x="365" y="683" type="move" name="top"/>
    </contour>
    <contour>
      <point x="420" y="0" type="move" name="ogonek"/>
    </contour>
    <contour>
      <point x="302" y="662" type="curve" smooth="yes"/>
      <point x="282" y="622"/>
      <point x="228" y="500"/>
      <point x="178" y="380" type="curve" smooth="yes"/>
      <point x="116" y="230"/>
      <point x="47" y="73"/>
      <point x="47" y="65" type="curve" smooth="yes"/>
      <point x="47" y="39"/>
      <point x="63" y="17"/>
      <point x="79" y="17" type="curve" smooth="yes"/>
      <point x="102" y="17"/>
      <point x="194" y="299"/>
      <point x="359" y="655" type="curve"/>
      <point x="352" y="655" type="line"/>
      <point x="389" y="503"/>
      <point x="407" y="320"/>
      <point x="419" y="96" type="curve" smooth="yes"/>
      <point x="422" y="43"/>
      <point x="431" y="17"/>
      <point x="452" y="17" type="curve" smooth="yes"/>
      <point x="469" y="17"/>
      <point x="476" y="60"/>
      <point x="476" y="123" type="curve" smooth="yes"/>
      <point x="476" y="244"/>
      <point x="435" y="722"/>
      <point x="367" y="722" type="curve" smooth="yes"/>
      <point x="332" y="722"/>
      <point x="320" y="699"/>
    </contour>
    <contour>
      <point x="524" y="390" type="curve" smooth="yes"/>
      <point x="460" y="390"/>
      <point x="48" y="291"/>
      <point x="48" y="257" type="curve" smooth="yes"/>
      <point x="48" y="236"/>
      <point x="68" y="232"/>
      <point x="88" y="232" type="curve" smooth="yes"/>
      <point x="108" y="232"/>
      <point x="158" y="248"/>
      <point x="298" y="286" type="curve" smooth="yes"/>
      <point x="441" y="324"/>
      <point x="553" y="350"/>
      <point x="553" y="369" type="curve" smooth="yes"/>
      <point x="553" y="385"/>
      <point x="540" y="390"/>
    </contour>
    <contour>
      <point x="405" y="939" type="curve" smooth="yes"/>
      <point x="386" y="939"/>
      <point x="344" y="910"/>
      <point x="297" y="883" type="curve" smooth="yes"/>
      <point x="248" y="855"/>
      <point x="229" y="837"/>
      <point x="229" y="811" type="curve" smooth="yes"/>
      <point x="229" y="795"/>
      <point x="243" y="788"/>
      <point x="254" y="788" type="curve" smooth="yes"/>
      <point x="286" y="788"/>
      <point x="338" y="851"/>
      <point x="408" y="887" type="curve"/>
      <point x="443" y="842"/>
      <point x="477" y="778"/>
      <point x="510" y="778" type="curve" smooth="yes"/>
      <point x="524" y="778"/>
      <point x="533" y="784"/>
      <point x="533" y="795" type="curve" smooth="yes"/>
      <point x="533" y="813"/>
      <point x="501" y="851"/>
      <point x="466" y="893" type="curve" smooth="yes"/>
      <point x="440" y="924"/>
      <point x="431" y="939"/>
    </contour>
  </outline>
</glyph>
<glyph name="Adieresis" format="1">
  <advance width="596"/>
  <unicode hex="00C4"/>
  <outline>
    <contour>
      <point x="365" y="683" type="move" name="top"/>
    </contour>
    <contour>
      <point x="420" y="0" type="move" name="ogonek"/>
    </contour>
    <contour>
      <point x="302" y="662" type="curve" smooth="yes"/>
      <point x="282" y="622"/>
      <point x="228" y="500"/>
      <point x="178" y="380" type="curve" smooth="yes"/>
      <point x="116" y="230"/>
      <point x="47" y="73"/>
      <point x="47" y="65" type="curve" smooth="yes"/>
      <point x="47" y="39"/>
      <point x="63" y="17"/>
      <point x="79" y="17" type="curve" smooth="yes"/>
      <point x="102" y="17"/>
      <point x="194" y="299"/>
      <point x="359" y="655" type="curve"/>
      <point x="352" y="655" type="line"/>
      <point x="389" y="503"/>
      <point x="407" y="320"/>
      <point x="419" y="96" type="curve" smooth="yes"/>
      <point x="422" y="43"/>
      <point x="431" y="17"/>
      <point x="452" y="17" type="curve" smooth="yes"/>
      <point x="469" y="17"/>
      <point x="476" y="60"/>
      <point x="476" y="123" type="curve" smooth="yes"/>
      <point x="476" y="244"/>
      <point x="435" y="722"/>
      <point x="367" y="722" type="curve" smooth="yes"/>
      <point x="332" y="722"/>
      <point x="320" y="699"/>
    </contour>
    <contour>
      <point x="524" y="390" type="curve" smooth="yes"/>
      <point x="460" y="390"/>
      <point x="48" y="291"/>
      <point x="48" y="257" type="curve" smooth="yes"/>
      <point x="48" y="236"/>
      <point x="68" y="232"/>
      <point x="88" y="232" type="curve" smooth="yes"/>
      <point x="108" y="232"/>
      <point x="158" y="248"/>
      <point x="298" y="286" type="curve" smooth="yes"/>
      <point x="441" y="324"/>
      <point x="553" y="350"/>
      <point x="553" y="369" type="curve" smooth="yes"/>
      <point x="553" y="385"/>
      <point x="540" y="390"/>
    </contour>
    <contour>
      <point x="319" y="905" type="curve" smooth="yes"/>
      <point x="302" y="905"/>
      <point x="284" y="883"/>
      <point x="284" y="864" type="curve" smooth="yes"/>
      <point x="284" y="840"/>
      <point x="325" y="799"/>
      <point x="352" y="799" type="curve" smooth="yes"/>
      <point x="360" y="799"/>
      <point x="368" y="808"/>
      <point x="368" y="816" type="curve" smooth="yes"/>
      <point x="368" y="844"/>
      <point x="338" y="905"/>
    </contour>
    <contour>
      <point x="455" y="905" type="curve" smooth="yes"/>
      <point x="438" y="905"/>
      <point x="420" y="883"/>
      <point x="420" y="864" type="curve" smooth="yes"/>
      <point x="420" y="840"/>
      <point x="461" y="799"/>
      <point x="488" y="799" type="curve" smooth="yes"/>
      <point x="496" y="799"/>
      <point x="504" y="808"/>
      <point x="504" y="816" type="curve" smooth="yes"/>
      <point x="504" y="844"/>
      <point x="474" y="905"/>
    </contour>
  </outline>
</glyph>
<glyph name="Igrave" format="1">
  <advance width="311"/>
  <unicode hex="00CC"/>
  <outline>
    <contour>
      <point x="247" y="683" type="move" name="top"/>
    </contour>
    <contour>
      <point x="74" y="29" type="move" name="ogonek"/>
    </contour>
    <contour>
      <point x="77" y="66" type="curve" smooth="yes"/>
      <point x="77" y="45"/>
      <point x="99" y="22"/>
      <point x="111" y="22" type="curve" smooth="yes"/>
      <point x="123" y="22"/>
      <point x="158" y="170"/>
      <point x="192" y="296" type="curve" smooth="yes"/>
      <point x="238" y="465"/>
      <point x="266" y="598"/>
      <point x="266" y="635" type="curve"/>
      <point x="266" y="670"/>
      <point x="240" y="704"/>
      <point x="223" y="704" type="curve" smooth="yes"/>
      <point x="210" y="704"/>
      <point x="208" y="698"/>
      <point x="208" y="675" type="curve" smooth="yes"/>
      <point x="208" y="559"/>
      <point x="77" y="132"/>
    </contour>
    <contour>
      <point x="225" y="831" type="curve" smooth="yes"/>
      <point x="257" y="807"/>
      <point x="284" y="780"/>
      <point x="299" y="780" type="curve" smooth="yes"/>
      <point x="309" y="780"/>
      <point x="319" y="790"/>
      <point x="319" y="799" type="curve" smooth="yes"/>
      <point x="319" y="816"/>
      <point x="306" y="826"/>
      <point x="254" y="882" type="curve" smooth="yes"/>
      <point x="217" y="921"/>
      <point x="202" y="945"/>
      <point x="187" y="945" type="curve" smooth="yes"/>
      <point x="166" y="945"/>
      <point x="150" y="920"/>
      <point x="150" y="903" type="curve" smooth="yes"/>
      <point x="150" y="884"/>
      <point x="178" y="867"/>
    </contour>
  </outline>
</glyph>
<glyph name="Iacute" format="1">
  <advance width="311"/>
  <unicode hex="00CD"/>
  <outline>
    <contour>
      <point x="247" y="683" type="move" name="top"/>
    </contour>
    <contour>
      <point x="74" y="29" type="move" name="ogonek"/>
    </contour>
    <contour>
      <point x="77" y="66" type="curve" smooth="yes"/>
      <point x="77" y="45"/>
      <point x="99" y="22"/>
      <point x="111" y="22" type="curve" smooth="yes"/>
      <point x="123" y="22"/>
      <point x="158" y="170"/>
      <point x="192" y="296" type="curve" smooth="yes"/>
      <point x="238" y="465"/>
      <point x="266" y="598"/>
      <point x="266" y="635" type="curve"/>
      <point x="266" y="670"/>
      <point x="240" y="704"/>
      <point x="223" y="704" type="curve" smooth="yes"/>
      <point x="210" y="704"/>
      <point x="208" y="698"/>
      <point x="208" y="675" type="curve" smooth="yes"/>
      <point x="208" y="559"/>
      <point x="77" y="132"/>
    </contour>
    <contour>
      <point x="255" y="799" type="curve" smooth="yes"/>
      <point x="255" y="787"/>
      <point x="265" y="780"/>
      <point x="274" y="780" type="curve" smooth="yes"/>
      <point x="289" y="780"/>
      <point x="304" y="794"/>
      <point x="354" y="833" type="curve" smooth="yes"/>
      <point x="406" y="874"/>
      <point x="428" y="887"/>
      <point x="428" y="908" type="curve" smooth="yes"/>
      <point x="428" y="926"/>
      <point x="414" y="951"/>
      <point x="397" y="951" type="curve" smooth="yes"/>
      <point x="380" y="951"/>
      <point x="352" y="915"/>
      <point x="320" y="881" type="curve" smooth="yes"/>
      <point x="276" y="834"/>
      <point x="255" y="818"/>
    </contour>
  </outline>
</glyph>
<glyph name="Eth" format="1">
  <advance width="603"/>
  <unicode hex="00D0"/>
  <outline>
    <contour>
      <point x="312" y="620" type="move" name="top"/>
    </contour>
    <contour>
      <point x="267" y="333" type="curve" smooth="yes"/>
      <point x="233" y="333"/>
      <point x="111" y="323"/>
      <point x="49" y="305" type="curve" smooth="yes"/>
      <point x="27" y="299"/>
      <point x="13" y="291"/>
      <point x="13" y="282" type="curve" smooth="yes"/>
      <point x="13" y="265"/>
      <point x="65" y="265"/>
      <point x="71" y="265" type="curve" smooth="yes"/>
      <point x="93" y="265"/>
      <point x="239" y="279"/>
      <point x="295" y="297" type="curve" smooth="yes"/>
      <point x="309" y="301"/>
      <point x="317" y="306"/>
      <point x="317" y="311" type="curve" smooth="yes"/>
      <point x="317" y="326"/>
      <point x="287" y="333"/>
    </contour>
    <contour>
      <point x="266" y="544" type="curve" smooth="yes"/>
      <point x="266" y="597"/>
      <point x="241" y="624"/>
      <point x="224" y="624" type="curve" smooth="yes"/>
      <point x="209" y="624"/>
      <point x="209" y="611"/>
      <point x="209" y="587" type="curve" smooth="yes"/>
      <point x="209" y="476"/>
      <point x="93" y="148"/>
      <point x="93" y="65" type="curve" smooth="yes"/>
      <point x="93" y="24"/>
      <point x="122" y="-17"/>
      <point x="148" y="-17" type="curve" smooth="yes"/>
      <point x="295" y="-17"/>
      <point x="596" y="192"/>
      <point x="596" y="324" type="curve" smooth="yes"/>
      <point x="596" y="512"/>
      <point x="344" y="675"/>
      <point x="171" y="675" type="curve" smooth="yes"/>
      <point x="159" y="675"/>
      <point x="151" y="670"/>
      <point x="151" y="657" type="curve" smooth="yes"/>
      <point x="151" y="638"/>
      <point x="175" y="616"/>
      <point x="226" y="607" type="curve" smooth="yes"/>
      <point x="384" y="579"/>
      <point x="532" y="439"/>
      <point x="532" y="326" type="curve" smooth="yes"/>
      <point x="532" y="251"/>
      <point x="309" y="52"/>
      <point x="153" y="45" type="curve"/>
      <point x="159" y="98"/>
      <point x="173" y="173"/>
      <point x="188" y="224" type="curve" smooth="yes"/>
      <point x="237" y="403"/>
      <point x="266" y="497"/>
    </contour>
  </outline>
</glyph>
<glyph name="Yacute" format="1">
  <advance width="582"/>
  <unicode hex="00DD"/>
  <outline>
    <contour>
      <point x="343" y="683" type="move" name="top"/>
    </contour>
    <contour>
      <point x="212" y="477" type="curve" smooth="yes"/>
      <point x="157" y="583"/>
      <point x="155" y="700"/>
      <point x="126" y="700" type="curve" smooth="yes"/>
      <point x="112" y="700"/>
      <point x="101" y="679"/>
      <point x="101" y="650" type="curve" smooth="yes"/>
      <point x="101" y="514"/>
      <point x="205" y="322"/>
      <point x="328" y="300" type="curve"/>
      <point x="262" y="174"/>
      <point x="205" y="66"/>
      <point x="205" y="28" type="curve" smooth="yes"/>
      <point x="205" y="13"/>
      <point x="209" y="7"/>
      <point x="217" y="7" type="curve" smooth="yes"/>
      <point x="246" y="7"/>
      <point x="293" y="113"/>
      <point x="396" y="303" type="curve" smooth="yes"/>
      <point x="494" y="485"/>
      <point x="607" y="642"/>
      <point x="607" y="674" type="curve" smooth="yes"/>
      <point x="607" y="691"/>
      <point x="597" y="700"/>
      <point x="577" y="700" type="curve" smooth="yes"/>
      <point x="530" y="700"/>
      <point x="383" y="356"/>
      <point x="341" y="356" type="curve" smooth="yes"/>
      <point x="310" y="356"/>
      <point x="256" y="390"/>
    </contour>
    <contour>
      <point x="351" y="799" type="curve" smooth="yes"/>
      <point x="351" y="787"/>
      <point x="361" y="780"/>
      <point x="370" y="780" type="curve" smooth="yes"/>
      <point x="385" y="780"/>
      <point x="400" y="794"/>
      <point x="450" y="833" type="curve" smooth="yes"/>
      <point x="502" y="874"/>
      <point x="524" y="887"/>
      <point x="524" y="908" type="curve" smooth="yes"/>
      <point x="524" y="926"/>
      <point x="510" y="951"/>
      <point x="493" y="951" type="curve" smooth="yes"/>
      <point x="476" y="951"/>
      <point x="448" y="915"/>
      <point x="416" y="881" type="curve" smooth="yes"/>
      <point x="372" y="834"/>
      <point x="351" y="818"/>
    </contour>
  </outline>
</glyph>
<glyph name="aacute" format="1">
  <advance width="447"/>
  <unicode hex="00E1"/>
  <outline>
    <contour>
      <point x="303" y="470" type="move" name="top"/>
    </contour>
    <contour>
      <point x="302" y="-31" type="move" name="ogonek"/>
    </contour>
    <contour>
      <point x="280" y="502" type="curve" smooth="yes"/>
      <point x="161" y="502"/>
      <point x="0" y="259"/>
      <point x="0" y="129" type="curve" smooth="yes"/>
      <point x="0" y="72"/>
      <point x="69" y="17"/>
      <point x="131" y="17" type="curve" smooth="yes"/>
      <point x="210" y="17"/>
      <point x="299" y="120"/>
      <point x="326" y="206" type="curve"/>
      <point x="309" y="209" type="line"/>
      <point x="303" y="192"/>
      <point x="301" y="174"/>
      <point x="301" y="156" type="curve" smooth="yes"/>
      <point x="301" y="77"/>
      <point x="302" y="17"/>
      <point x="328" y="17" type="curve" smooth="yes"/>
      <point x="348" y="17"/>
      <point x="343" y="72"/>
      <point x="354" y="134" type="curve" smooth="yes"/>
      <point x="368" y="211"/>
      <point x="371" y="261"/>
      <point x="371" y="291" type="curve" smooth="yes"/>
      <point x="371" y="313"/>
      <point x="355" y="330"/>
      <point x="339" y="330" type="curve" smooth="yes"/>
      <point x="325" y="330"/>
      <point x="317" y="320"/>
      <point x="314" y="308" type="curve" smooth="yes"/>
      <point x="277" y="177"/>
      <point x="195" y="76"/>
      <point x="126" y="76" type="curve" smooth="yes"/>
      <point x="97" y="76"/>
      <point x="62" y="97"/>
      <point x="62" y="128" type="curve" smooth="yes"/>
      <point x="62" y="228"/>
      <point x="206" y="443"/>
      <point x="285" y="443" type="curve" smooth="yes"/>
      <point x="318" y="443"/>
      <point x="331" y="395"/>
      <point x="331" y="354" type="curve" smooth="yes"/>
      <point x="331" y="318"/>
      <point x="334" y="305"/>
      <point x="347" y="305" type="curve" smooth="yes"/>
      <point x="358" y="305"/>
      <point x="384" y="344"/>
      <point x="384" y="378" type="curve" smooth="yes"/>
      <point x="384" y="417"/>
      <point x="350" y="502"/>
    </contour>
    <contour>
      <point x="340" y="586" type="curve" smooth="yes"/>
      <point x="340" y="574"/>
      <point x="350" y="567"/>
      <point x="359" y="567" type="curve" smooth="yes"/>
      <point x="374" y="567"/>
      <point x="389" y="581"/>
      <point x="439" y="620" type="curve" smooth="yes"/>
      <point x="491" y="661"/>
      <point x="513" y="674"/>
      <point x="513" y="695" type="curve" smooth="yes"/>
      <point x="513" y="713"/>
      <point x="499" y="738"/>
      <point x="482" y="738" type="curve" smooth="yes"/>
      <point x="465" y="738"/>
      <point x="437" y="702"/>
      <point x="405" y="668" type="curve" smooth="yes"/>
      <point x="361" y="621"/>
      <point x="340" y="605"/>
    </contour>
  </outline>
</glyph>
<glyph name="aring" format="1">
  <advance width="447"/>
  <unicode hex="00E5"/>
  <outline>
    <contour>
      <point x="303" y="470" type="move" name="top"/>
    </contour>
    <contour>
      <point x="302" y="-31" type="move" name="ogonek"/>
    </contour>
    <contour>
      <point x="280" y="502" type="curve" smooth="yes"/>
      <point x="161" y="502"/>
      <point x="0" y="259"/>
      <point x="0" y="129" type="curve" smooth="yes"/>
      <point x="0" y="72"/>
      <point x="69" y="17"/>
      <point x="131" y="17" type="curve" smooth="yes"/>
      <point x="210" y="17"/>
      <point x="299" y="120"/>
      <point x="326" y="206" type="curve"/>
      <point x="309" y="209" type="line"/>
      <point x="303" y="192"/>
      <point x="301" y="174"/>
      <point x="301" y="156" type="curve" smooth="yes"/>
      <point x="301" y="77"/>
      <point x="302" y="17"/>
      <point x="328" y="17" type="curve" smooth="yes"/>
      <point x="348" y="17"/>
      <point x="343" y="72"/>
      <point x="354" y="134" type="curve" smooth="yes"/>
      <point x="368" y="211"/>
      <point x="371" y="261"/>
      <point x="371" y="291" type="curve" smooth="yes"/>
      <point x="371" y="313"/>
      <point x="355" y="330"/>
      <point x="339" y="330" type="curve" smooth="yes"/>
      <point x="325" y="330"/>
      <point x="317" y="320"/>
      <point x="314" y="308" type="curve" smooth="yes"/>
      <point x="277" y="177"/>
      <point x="195" y="76"/>
      <point x="126" y="76" type="curve" smooth="yes"/>
      <point x="97" y="76"/>
      <point x="62" y="97"/>
      <point x="62" y="128" type="curve" smooth="yes"/>
      <point x="62" y="228"/>
      <point x="206" y="443"/>
      <point x="285" y="443" type="curve" smooth="yes"/>
      <point x="318" y="443"/>
      <point x="331" y="395"/>
      <point x="331" y="354" type="curve" smooth="yes"/>
      <point x="331" y="318"/>
      <point x="334" y="305"/>
      <point x="347" y="305" type="curve" smooth="yes"/>
      <point x="358" y="305"/>
      <point x="384" y="344"/>
      <point x="384" y="378" type="curve" smooth="yes"/>
      <point x="384" y="417"/>
      <point x="350" y="502"/>
    </contour>
    <contour>
      <point x="295" y="629" type="curve" smooth="yes"/>
      <point x="295" y="586"/>
      <point x="324" y="551"/>
      <point x="363" y="551" type="curve" smooth="yes"/>
      <point x="415" y="551"/>
      <point x="452" y="609"/>
      <point x="452" y="653" type="curve" smooth="yes"/>
      <point x="452" y="696"/>
      <point x="423" y="731"/>
      <point x="384" y="731" type="curve" smooth="yes"/>
      <point x="332" y="731"/>
      <point x="295" y="673"/>
    </contour>
    <contour>
      <point x="405" y="647" type="curve" smooth="yes"/>
      <point x="405" y="615"/>
      <point x="386" y="594"/>
      <point x="368" y="594" type="curve" smooth="yes"/>
      <point x="352" y="594"/>
      <point x="341" y="611"/>
      <point x="341" y="632" type="curve" smooth="yes"/>
      <point x="341" y="664"/>
      <point x="361" y="686"/>
      <point x="378" y="686" type="curve" smooth="yes"/>
      <point x="394" y="686"/>
      <point x="405" y="669"/>
    </contour>
  </outline>
</glyph>
<glyph name="ccedilla" format="1">
  <advance width="422"/>
  <unicode hex="00E7"/>
  <outline>
    <contour>
      <point x="270" y="470" type="move" name="top"/>
    </contour>
    <contour>
      <point x="175" y="0" type="move" name="cedilla"/>
    </contour>
    <contour>
      <point x="35" y="160" type="curve" smooth="yes"/>
      <point x="35" y="76"/>
      <point x="107" y="17"/>
      <point x="189" y="17" type="curve" smooth="yes"/>
      <point x="256" y="17"/>
      <point x="369" y="80"/>
      <point x="369" y="107" type="curve" smooth="yes"/>
      <point x="369" y="118"/>
      <point x="366" y="123"/>
      <point x="355" y="123" type="curve" smooth="yes"/>
      <point x="325" y="123"/>
      <point x="289" y="76"/>
      <point x="181" y="76" type="curve" smooth="yes"/>
      <point x="129" y="76"/>
      <point x="96" y="112"/>
      <point x="96" y="158" type="curve" smooth="yes"/>
      <point x="96" y="261"/>
      <point x="225" y="442"/>
      <point x="309" y="442" type="curve" smooth="yes"/>
      <point x="346" y="442"/>
      <point x="366" y="399"/>
      <point x="391" y="399" type="curve" smooth="yes"/>
      <point x="398" y="399"/>
      <point x="404" y="405"/>
      <point x="404" y="414" type="curve" smooth="yes"/>
      <point x="404" y="438"/>
      <point x="372" y="502"/>
      <point x="305" y="502" type="curve" smooth="yes"/>
      <point x="181" y="502"/>
      <point x="35" y="296"/>
    </contour>
    <contour>
      <point x="167" y="63" type="curve" smooth="yes"/>
      <point x="157" y="63"/>
      <point x="145" y="59"/>
      <point x="140" y="42" type="curve" smooth="yes"/>
      <point x="126" y="-2"/>
      <point x="100" y="-41"/>
      <point x="100" y="-60" type="curve" smooth="yes"/>
      <point x="100" y="-82"/>
      <point x="182" y="-77"/>
      <point x="191" y="-98" type="curve"/>
      <point x="161" y="-149"/>
      <point x="51" y="-133"/>
      <point x="51" y="-162" type="curve" smooth="yes"/>
      <point x="51" y="-174"/>
      <point x="62" y="-179"/>
      <point x="81" y="-179" type="curve" smooth="yes"/>
      <point x="140" y="-179"/>
      <point x="256" y="-156"/>
      <point x="256" y="-89" type="curve" smooth="yes"/>
      <point x="256" y="-61"/>
      <point x="209" y="-36"/>
      <point x="167" y="-36" type="curve" smooth="yes"/>
      <point x="154" y="-36"/>
      <point x="136" y="-37"/>
      <point x="126" y="-40" type="curve"/>
      <point x="151" y="-49" type="line"/>
      <point x="175" y="-10"/>
      <point x="189" y="24"/>
      <point x="189" y="40" type="curve" smooth="yes"/>
      <point x="189" y="55"/>
      <point x="183" y="63"/>
    </contour>
  </outline>
</glyph>
<glyph name="igrave" format="1">
  <advance width="226"/>
  <unicode hex="00EC"/>
  <outline>
    <contour>
      <point x="170" y="470" type="move" name="top"/>
    </contour>
    <contour>
      <point x="30" y="-30" type="move" name="ogonek"/>
    </contour>
    <contour>
      <point x="163" y="502" type="curve" smooth="yes"/>
      <point x="146" y="502"/>
      <point x="139" y="476"/>
      <point x="100" y="308" type="curve" smooth="yes"/>
      <point x="81" y="227"/>
      <point x="31" y="71"/>
      <point x="31" y="49" type="curve" smooth="yes"/>
      <point x="31" y="31"/>
      <point x="42" y="17"/>
      <point x="55" y="17" type="curve" smooth="yes"/>
      <point x="65" y="17"/>
      <point x="80" y="31"/>
      <point x="94" y="73" type="curve" smooth="yes"/>
      <point x="166" y="300"/>
      <point x="196" y="432"/>
      <point x="196" y="462" type="curve" smooth="yes"/>
      <point x="196" y="480"/>
      <point x="177" y="502"/>
    </contour>
    <contour>
      <point x="148" y="618" type="curve" smooth="yes"/>
      <point x="180" y="594"/>
      <point x="207" y="567"/>
      <point x="222" y="567" type="curve" smooth="yes"/>
      <point x="232" y="567"/>
      <point x="242" y="577"/>
      <point x="242" y="586" type="curve" smooth="yes"/>
      <point x="242" y="603"/>
      <point x="229" y="613"/>
      <point x="177" y="669" type="curve" smooth="yes"/>
      <point x="140" y="708"/>
      <point x="125" y="732"/>
      <point x="110" y="732" type="curve" smooth="yes"/>
      <point x="89" y="732"/>
      <point x="73" y="707"/>
      <point x="73" y="690" type="curve" smooth="yes"/>
      <point x="73" y="671"/>
      <point x="101" y="654"/>
    </contour>
  </outline>
</glyph>
<glyph name="ograve" format="1">
  <advance width="452"/>
  <unicode hex="00F2"/>
  <outline>
    <contour>
      <point x="287" y="470" type="move" name="top"/>
    </contour>
    <contour>
      <point x="289" y="502" type="curve" smooth="yes"/>
      <point x="158" y="502"/>
      <point x="45" y="325"/>
      <point x="45" y="175" type="curve" smooth="yes"/>
      <point x="45" y="87"/>
      <point x="87" y="17"/>
      <point x="155" y="17" type="curve" smooth="yes"/>
      <point x="294" y="17"/>
      <point x="410" y="185"/>
      <point x="410" y="337" type="curve" smooth="yes"/>
      <point x="410" y="421"/>
      <point x="364" y="502"/>
    </contour>
    <contour>
      <point x="351" y="341" type="curve" smooth="yes"/>
      <point x="351" y="240"/>
      <point x="274" y="79"/>
      <point x="156" y="67" type="curve"/>
      <point x="117" y="81"/>
      <point x="105" y="120"/>
      <point x="105" y="160" type="curve" smooth="yes"/>
      <point x="105" y="282"/>
      <point x="177" y="435"/>
      <point x="294" y="457" type="curve"/>
      <point x="330" y="440"/>
      <point x="351" y="392"/>
    </contour>
    <contour>
      <point x="265" y="618" type="curve" smooth="yes"/>
      <point x="297" y="594"/>
      <point x="324" y="567"/>
      <point x="339" y="567" type="curve" smooth="yes"/>
      <point x="349" y="567"/>
      <point x="359" y="577"/>
      <point x="359" y="586" type="curve" smooth="yes"/>
      <point x="359" y="603"/>
      <point x="346" y="613"/>
      <point x="294" y="669" type="curve" smooth="yes"/>
      <point x="257" y="708"/>
      <point x="242" y="732"/>
      <point x="227" y="732" type="curve" smooth="yes"/>
      <point x="206" y="732"/>
      <point x="190" y="707"/>
      <point x="190" y="690" type="curve" smooth="yes"/>
      <point x="190" y="671"/>
      <point x="218" y="654"/>
    </contour>
  </outline>
</glyph>
<glyph name="ocircumflex" format="1">
  <advance width="452"/>
  <unicode hex="00F4"/>
  <outline>
    <contour>
      <point x="287" y="470" type="move" name="top"/>
    </contour>
    <contour>
      <point x="327" y="726" type="curve" smooth="yes"/>
      <point x="308" y="726"/>
      <point x="266" y="697"/>
      <point x="219" y="670" type="curve" smooth="yes"/>
      <point x="170" y="642"/>
      <point x="151" y="624"/>
      <point x="151" y="598" type="curve" smooth="yes"/>
      <point x="151" y="582"/>
      <point x="165" y="575"/>
      <point x="176" y="575" type="curve" smooth="yes"/>
      <point x="208" y="575"/>
      <point x="260" y="638"/>
      <point x="330" y="674" type="curve"/>
      <point x="365" y="629"/>
      <point x="399" y="565"/>
      <point x="432" y="565" type="curve" smooth="yes"/>
      <point x="446" y="565"/>
      <point x="455" y="571"/>
      <point x="455" y="582" type="curve" smooth="yes"/>
      <point x="455" y="600"/>
      <point x="423" y="638"/>
      <point x="388" y="680" type="curve" smooth="yes"/>
      <point x="362" y="711"/>
      <point x="353" y="726"/>
    </contour>
    <contour>
      <point x="289" y="502" type="curve" smooth="yes"/>
      <point x="158" y="502"/>
      <point x="45" y="325"/>
      <point x="45" y="175" type="curve" smooth="yes"/>
      <point x="45" y="87"/>
      <point x="87" y="17"/>
      <point x="155" y="17" type="curve" smooth="yes"/>
      <point x="294" y="17"/>
      <point x="410" y="185"/>
      <point x="410" y="337" type="curve" smooth="yes"/>
      <point x="410" y="421"/>
      <point x="364" y="502"/>
    </contour>
    <contour>
      <point x="351" y="341" type="curve" smooth="yes"/>
      <point x="351" y="240"/>
      <point x="274" y="79"/>
      <point x="156" y="67" type="curve"/>
      <point x="117" y="81"/>
      <point x="105" y="120"/>
      <point x="105" y="160" type="curve" smooth="yes"/>
      <point x="105" y="282"/>
      <point x="177" y="435"/>
      <point x="294" y="457" type="curve"/>
      <point x="330" y="440"/>
      <point x="351" y="392"/>
    </contour>
  </outline>
</glyph>
<glyph name="ugrave" format="1">
  <advance width="479"/>
  <unicode hex="00F9"/>
  <outline>
    <contour>
      <point x="287" y="470" type="move" name="top"/>
    </contour>
    <contour>
      <point x="283" y="-30" type="move" name="ogonek"/>
    </contour>
    <contour>
      <point x="163" y="502" type="curve" smooth="yes"/>
      <point x="122" y="502"/>
      <point x="19" y="262"/>
      <point x="19" y="130" type="curve" smooth="yes"/>
      <point x="19" y="77"/>
      <point x="64" y="17"/>
      <point x="127" y="17" type="curve" smooth="yes"/>
      <point x="201" y="17"/>
      <point x="292" y="106"/>
      <point x="350" y="252" type="curve"/>
      <point x="343" y="254" type="line"/>
      <point x="313" y="171"/>
      <point x="287" y="81"/>
      <point x="287" y="50" type="curve" smooth="yes"/>
      <point x="287" y="29"/>
      <point x="297" y="17"/>
      <point x="309" y="17" type="curve" smooth="yes"/>
      <point x="317" y="17"/>
      <point x="329" y="32"/>
      <point x="337" y="59" type="curve" smooth="yes"/>
      <point x="401" y="282"/>
      <point x="446" y="429"/>
      <point x="446" y="445" type="curve" smooth="yes"/>
      <point x="446" y="473"/>
      <point x="424" y="502"/>
      <point x="408" y="502" type="curve" smooth="yes"/>
      <point x="394" y="502"/>
      <point x="395" y="494"/>
      <point x="390" y="472" type="curve" smooth="yes"/>
      <point x="364" y="354"/>
      <point x="238" y="71"/>
      <point x="130" y="71" type="curve" smooth="yes"/>
      <point x="103" y="71"/>
      <point x="80" y="94"/>
      <point x="80" y="125" type="curve" smooth="yes"/>
      <point x="80" y="272"/>
      <point x="191" y="436"/>
      <point x="191" y="464" type="curve" smooth="yes"/>
      <point x="191" y="485"/>
      <point x="177" y="502"/>
    </contour>
    <contour>
      <point x="265" y="618" type="curve" smooth="yes"/>
      <point x="297" y="594"/>
      <point x="324" y="567"/>
      <point x="339" y="567" type="curve" smooth="yes"/>
      <point x="349" y="567"/>
      <point x="359" y="577"/>
      <point x="359" y="586" type="curve" smooth="yes"/>
      <point x="359" y="603"/>
      <point x="346" y="613"/>
      <point x="294" y="669" type="curve" smooth="yes"/>
      <point x="257" y="708"/>
      <point x="242" y="732"/>
      <point x="227" y="732" type="curve" smooth="yes"/>
      <point x="206" y="732"/>
      <point x="190" y="707"/>
      <point x="190" y="690" type="curve" smooth="yes"/>
      <point x="190" y="671"/>
      <point x="218" y="654"/>
    </contour>
  </outline>
</glyph>
<glyph name="yacute" format="1">
  <advance width="442"/>
  <unicode hex="00FD"/>
  <outline>
    <contour>
      <point x="276" y="470" type="move" name="top"/>
    </contour>
    <contour>
      <point x="174" y="502" type="curve" smooth="yes"/>
      <point x="134" y="502"/>
      <point x="31" y="264"/>
      <point x="31" y="132" type="curve" smooth="yes"/>
      <point x="31" y="77"/>
      <point x="75" y="17"/>
      <point x="139" y="17" type="curve" smooth="yes"/>
      <point x="218" y="17"/>
      <point x="295" y="98"/>
      <point x="351" y="250" type="curve"/>
      <point x="326" y="230" type="line"/>
      <point x="247" y="25"/>
      <point x="203" y="-191"/>
      <point x="129" y="-191" type="curve" smooth="yes"/>
      <point x="58" y="-191"/>
      <point x="20" y="-106"/>
      <point x="2" y="-106" type="curve" smooth="yes"/>
      <point x="-5" y="-106"/>
      <point x="-20" y="-124"/>
      <point x="-20" y="-137" type="curve" smooth="yes"/>
      <point x="-20" y="-187"/>
      <point x="64" y="-239"/>
      <point x="131" y="-239" type="curve" smooth="yes"/>
      <point x="191" y="-239"/>
      <point x="231" y="-192"/>
      <point x="264" y="-100" type="curve" smooth="yes"/>
      <point x="363" y="176"/>
      <point x="454" y="423"/>
      <point x="454" y="444" type="curve" smooth="yes"/>
      <point x="454" y="476"/>
      <point x="431" y="502"/>
      <point x="415" y="502" type="curve" smooth="yes"/>
      <point x="401" y="502"/>
      <point x="403" y="493"/>
      <point x="397" y="472" type="curve" smooth="yes"/>
      <point x="353" y="327"/>
      <point x="248" y="71"/>
      <point x="142" y="71" type="curve" smooth="yes"/>
      <point x="115" y="71"/>
      <point x="92" y="94"/>
      <point x="92" y="125" type="curve" smooth="yes"/>
      <point x="92" y="272"/>
      <point x="203" y="433"/>
      <point x="203" y="464" type="curve" smooth="yes"/>
      <point x="203" y="485"/>
      <point x="187" y="502"/>
    </contour>
    <contour>
      <point x="318" y="586" type="curve" smooth="yes"/>
      <point x="318" y="574"/>
      <point x="328" y="567"/>
      <point x="337" y="567" type="curve" smooth="yes"/>
      <point x="352" y="567"/>
      <point x="367" y="581"/>
      <point x="417" y="620" type="curve" smooth="yes"/>
      <point x="469" y="661"/>
      <point x="491" y="674"/>
      <point x="491" y="695" type="curve" smooth="yes"/>
      <point x="491" y="713"/>
      <point x="477" y="738"/>
      <point x="460" y="738" type="curve" smooth="yes"/>
      <point x="443" y="738"/>
      <point x="415" y="702"/>
      <point x="383" y="668" type="curve" smooth="yes"/>
      <point x="339" y="621"/>
      <point x="318" y="605"/>
    </contour>
  </outline>
</glyph>
<glyph name="thorn" format="1">
  <advance width="526"/>
  <unicode hex="00FE"/>
  <outline>
    <contour>
      <point x="167" y="439" type="curve"/>
      <point x="159" y="369" type="line"/>
      <point x="228" y="417"/>
      <point x="289" y="435"/>
      <point x="323" y="435" type="curve" smooth="yes"/>
      <point x="383" y="435"/>
      <point x="431" y="382"/>
      <point x="431" y="315" type="curve" smooth="yes"/>
      <point x="431" y="232"/>
      <point x="303" y="150"/>
      <point x="192" y="150" type="curve" smooth="yes"/>
      <point x="165" y="150"/>
      <point x="141" y="171"/>
      <point x="131" y="171" type="curve" smooth="yes"/>
      <point x="121" y="171"/>
      <point x="119" y="157"/>
      <point x="119" y="150" type="curve" smooth="yes"/>
      <point x="119" y="111"/>
      <point x="172" y="93"/>
      <point x="204" y="93" type="curve" smooth="yes"/>
      <point x="322" y="93"/>
      <point x="490" y="185"/>
      <point x="490" y="319" type="curve" smooth="yes"/>
      <point x="490" y="408"/>
      <point x="404" y="498"/>
      <point x="325" y="498" type="curve" smooth="yes"/>
      <point x="296" y="498"/>
      <point x="223" y="481"/>
    </contour>
    <contour>
      <point x="1" y="-157" type="curve" smooth="yes"/>
      <point x="1" y="-178"/>
      <point x="22" y="-200"/>
      <point x="35" y="-200" type="curve" smooth="yes"/>
      <point x="49" y="-200"/>
      <point x="132" y="146"/>
      <point x="162" y="261" type="curve" smooth="yes"/>
      <point x="205" y="429"/>
      <point x="229" y="610"/>
      <point x="229" y="646" type="curve" smooth="yes"/>
      <point x="229" y="679"/>
      <point x="205" y="713"/>
      <point x="188" y="713" type="curve" smooth="yes"/>
      <point x="173" y="713"/>
      <point x="170" y="705"/>
      <point x="170" y="683" type="curve" smooth="yes"/>
      <point x="170" y="507"/>
      <point x="1" y="-92"/>
    </contour>
  </outline>
</glyph>
<glyph name="Aogonek" format="1">
  <advance width="596"/>
  <unicode hex="0104"/>
  <outline>
    <contour>
      <point x="365" y="683" type="move" name="top"/>
    </contour>
    <contour>
      <point x="420" y="0" type="move" name="ogonek"/>
    </contour>
    <contour>
      <point x="302" y="662" type="curve" smooth="yes"/>
      <point x="282" y="622"/>
      <point x="228" y="500"/>
      <point x="178" y="380" type="curve" smooth="yes"/>
      <point x="116" y="230"/>
      <point x="47" y="73"/>
      <point x="47" y="65" type="curve" smooth="yes"/>
      <point x="47" y="39"/>
      <point x="63" y="17"/>
      <point x="79" y="17" type="curve" smooth="yes"/>
      <point x="102" y="17"/>
      <point x="194" y="299"/>
      <point x="359" y="655" type="curve"/>
      <point x="352" y="655" type="line"/>
      <point x="389" y="503"/>
      <point x="407" y="320"/>
      <point x="419" y="96" type="curve" smooth="yes"/>
      <point x="422" y="43"/>
      <point x="431" y="17"/>
      <point x="452" y="17" type="curve" smooth="yes"/>
      <point x="469" y="17"/>
      <point x="476" y="60"/>
      <point x="476" y="123" type="curve" smooth="yes"/>
      <point x="476" y="244"/>
      <point x="435" y="722"/>
      <point x="367" y="722" type="curve" smooth="yes"/>
      <point x="332" y="722"/>
      <point x="320" y="699"/>
    </contour>
    <contour>
      <point x="524" y="390" type="curve" smooth="yes"/>
      <point x="460" y="390"/>
      <point x="48" y="291"/>
      <point x="48" y="257" type="curve" smooth="yes"/>
      <point x="48" y="236"/>
      <point x="68" y="232"/>
      <point x="88" y="232" type="curve" smooth="yes"/>
      <point x="108" y="232"/>
      <point x="158" y="248"/>
      <point x="298" y="286" type="curve" smooth="yes"/>
      <point x="441" y="324"/>
      <point x="553" y="350"/>
      <point x="553" y="369" type="curve" smooth="yes"/>
      <point x="553" y="385"/>
      <point x="540" y="390"/>
    </contour>
    <contour>
      <point x="444" y="31" type="curve" smooth="yes"/>
      <point x="401" y="31"/>
      <point x="311" y="-65"/>
      <point x="311" y="-124" type="curve" smooth="yes"/>
      <point x="311" y="-161"/>
      <point x="353" y="-190"/>
      <point x="393" y="-190" type="curve" smooth="yes"/>
      <point x="431" y="-190"/>
      <point x="489" y="-171"/>
      <point x="489" y="-144" type="curve" smooth="yes"/>
      <point x="489" y="-131"/>
      <point x="480" y="-124"/>
      <point x="468" y="-124" type="curve" smooth="yes"/>
      <point x="452" y="-124"/>
      <point x="438" y="-140"/>
      <point x="410" y="-140" type="curve" smooth="yes"/>
      <point x="382" y="-140"/>
      <point x="367" y="-132"/>
      <point x="367" y="-117" type="curve" smooth="yes"/>
      <point x="367" y="-62"/>
      <point x="466" y="-31"/>
      <point x="466" y="13" type="curve" smooth="yes"/>
      <point x="466" y="27"/>
      <point x="455" y="31"/>
    </contour>
  </outline>
</glyph>
<glyph name="cacute" format="1">
  <advance width="422"/>
  <unicode hex="0107"/>
  <outline>
    <contour>
      <point x="270" y="470" type="move" name="top"/>
    </contour>
    <contour>
      <point x="175" y="0" type="move" name="cedilla"/>
    </contour>
    <contour>
      <point x="298" y="586" type="curve" smooth="yes"/>
      <point x="298" y="574"/>
      <point x="308" y="567"/>
      <point x="317" y="567" type="curve" smooth="yes"/>
      <point x="332" y="567"/>
      <point x="347" y="581"/>
      <point x="397" y="620" type="curve" smooth="yes"/>
      <point x="449" y="661"/>
      <point x="471" y="674"/>
      <point x="471" y="695" type="curve" smooth="yes"/>
      <point x="471" y="713"/>
      <point x="457" y="738"/>
      <point x="440" y="738" type="curve" smooth="yes"/>
      <point x="423" y="738"/>
      <point x="395" y="702"/>
      <point x="363" y="668" type="curve" smooth="yes"/>
      <point x="319" y="621"/>
      <point x="298" y="605"/>
    </contour>
    <contour>
      <point x="35" y="160" type="curve" smooth="yes"/>
      <point x="35" y="76"/>
      <point x="107" y="17"/>
      <point x="189" y="17" type="curve" smooth="yes"/>
      <point x="256" y="17"/>
      <point x="369" y="80"/>
      <point x="369" y="107" type="curve" smooth="yes"/>
      <point x="369" y="118"/>
      <point x="366" y="123"/>
      <point x="355" y="123" type="curve" smooth="yes"/>
      <point x="325" y="123"/>
      <point x="289" y="76"/>
      <point x="181" y="76" type="curve" smooth="yes"/>
      <point x="129" y="76"/>
      <point x="96" y="112"/>
      <point x="96" y="158" type="curve" smooth="yes"/>
      <point x="96" y="261"/>
      <point x="225" y="442"/>
      <point x="309" y="442" type="curve" smooth="yes"/>
      <point x="346" y="442"/>
      <point x="366" y="399"/>
      <point x="391" y="399" type="curve" smooth="yes"/>
      <point x="398" y="399"/>
      <point x="404" y="405"/>
      <point x="404" y="414" type="curve" smooth="yes"/>
      <point x="404" y="438"/>
      <point x="372" y="502"/>
      <point x="305" y="502" type="curve" smooth="yes"/>
      <point x="181" y="502"/>
      <point x="35" y="296"/>
    </contour>
  </outline>
</glyph>
<glyph name="Dcaron" format="1">
  <advance width="633"/>
  <unicode hex="010E"/>
  <outline>
    <contour>
      <point x="445" y="633" type="move" name="top"/>
    </contour>
    <contour>
      <point x="268" y="576" type="curve" smooth="yes"/>
      <point x="268" y="629"/>
      <point x="243" y="656"/>
      <point x="226" y="656" type="curve" smooth="yes"/>
      <point x="211" y="656"/>
      <point x="211" y="643"/>
      <point x="211" y="619" type="curve" smooth="yes"/>
      <point x="211" y="508"/>
      <point x="95" y="180"/>
      <point x="95" y="97" type="curve" smooth="yes"/>
      <point x="95" y="56"/>
      <point x="124" y="15"/>
      <point x="150" y="15" type="curve" smooth="yes"/>
      <point x="297" y="15"/>
      <point x="598" y="224"/>
      <point x="598" y="356" type="curve" smooth="yes"/>
      <point x="598" y="544"/>
      <point x="346" y="707"/>
      <point x="173" y="707" type="curve" smooth="yes"/>
      <point x="161" y="707"/>
      <point x="153" y="702"/>
      <point x="153" y="689" type="curve" smooth="yes"/>
      <point x="153" y="670"/>
      <point x="177" y="648"/>
      <point x="228" y="639" type="curve" smooth="yes"/>
      <point x="386" y="611"/>
      <point x="534" y="471"/>
      <point x="534" y="358" type="curve" smooth="yes"/>
      <point x="534" y="283"/>
      <point x="311" y="84"/>
      <point x="155" y="77" type="curve"/>
      <point x="161" y="130"/>
      <point x="175" y="205"/>
      <point x="190" y="256" type="curve" smooth="yes"/>
      <point x="239" y="435"/>
      <point x="268" y="529"/>
    </contour>
    <contour>
      <point x="463" y="775" type="curve"/>
      <point x="377" y="841"/>
      <point x="365" y="915"/>
      <point x="333" y="915" type="curve" smooth="yes"/>
      <point x="321" y="915"/>
      <point x="310" y="904"/>
      <point x="310" y="888" type="curve" smooth="yes"/>
      <point x="310" y="833"/>
      <point x="441" y="720"/>
      <point x="460" y="720" type="curve" smooth="yes"/>
      <point x="480" y="720"/>
      <point x="508" y="755"/>
      <point x="547" y="784" type="curve" smooth="yes"/>
      <point x="590" y="816"/>
      <point x="638" y="831"/>
      <point x="638" y="861" type="curve" smooth="yes"/>
      <point x="638" y="873"/>
      <point x="629" y="881"/>
      <point x="613" y="881" type="curve" smooth="yes"/>
      <point x="595" y="881"/>
      <point x="542" y="853"/>
    </contour>
  </outline>
</glyph>
<glyph name="dcaron" format="1">
  <advance width="707"/>
  <unicode hex="010F"/>
  <outline>
    <contour>
      <point x="333" y="58" type="curve" smooth="yes"/>
      <point x="333" y="36"/>
      <point x="353" y="17"/>
      <point x="366" y="17" type="curve" smooth="yes"/>
      <point x="381" y="17"/>
      <point x="419" y="163"/>
      <point x="449" y="280" type="curve" smooth="yes"/>
      <point x="509" y="513"/>
      <point x="534" y="683"/>
      <point x="534" y="715" type="curve" smooth="yes"/>
      <point x="534" y="748"/>
      <point x="509" y="782"/>
      <point x="492" y="782" type="curve" smooth="yes"/>
      <point x="477" y="782"/>
      <point x="475" y="773"/>
      <point x="475" y="752" type="curve" smooth="yes"/>
      <point x="458" y="478"/>
      <point x="333" y="123"/>
    </contour>
    <contour>
      <point x="436" y="303" type="curve" smooth="yes"/>
      <point x="436" y="317"/>
      <point x="426" y="327"/>
      <point x="415" y="327" type="curve" smooth="yes"/>
      <point x="405" y="327"/>
      <point x="398" y="323"/>
      <point x="395" y="311" type="curve" smooth="yes"/>
      <point x="365" y="182"/>
      <point x="228" y="71"/>
      <point x="167" y="71" type="curve" smooth="yes"/>
      <point x="139" y="71"/>
      <point x="107" y="94"/>
      <point x="107" y="126" type="curve" smooth="yes"/>
      <point x="107" y="254"/>
      <point x="226" y="443"/>
      <point x="320" y="443" type="curve" smooth="yes"/>
      <point x="366" y="443"/>
      <point x="389" y="372"/>
      <point x="389" y="291" type="curve" smooth="yes"/>
      <point x="389" y="276"/>
      <point x="396" y="267"/>
      <point x="407" y="267" type="curve" smooth="yes"/>
      <point x="420" y="267"/>
      <point x="424" y="293"/>
      <point x="424" y="316" type="curve" smooth="yes"/>
      <point x="424" y="421"/>
      <point x="394" y="502"/>
      <point x="316" y="502" type="curve" smooth="yes"/>
      <point x="172" y="502"/>
      <point x="47" y="256"/>
      <point x="47" y="132" type="curve" smooth="yes"/>
      <point x="47" y="79"/>
      <point x="94" y="17"/>
      <point x="158" y="17" type="curve" smooth="yes"/>
      <point x="291" y="17"/>
      <point x="436" y="238"/>
    </contour>
    <contour>
      <point x="707" y="702" type="curve" smooth="yes"/>
      <point x="707" y="743"/>
      <point x="673" y="767"/>
      <point x="641" y="767" type="curve" smooth="yes"/>
      <point x="623" y="767"/>
      <point x="605" y="754"/>
      <point x="605" y="735" type="curve" smooth="yes"/>
      <point x="605" y="707"/>
      <point x="647" y="725"/>
      <point x="651" y="685" type="curve" smooth="yes"/>
      <point x="648" y="640"/>
      <point x="566" y="607"/>
      <point x="566" y="583" type="curve"/>
      <point x="566" y="575"/>
      <point x="571" y="573"/>
      <point x="581" y="573" type="curve" smooth="yes"/>
      <point x="610" y="573"/>
      <point x="707" y="625"/>
    </contour>
  </outline>
</glyph>
<glyph name="Gbreve" format="1">
  <advance width="618"/>
  <unicode hex="011E"/>
  <outline>
    <contour>
      <point x="487" y="683" type="move" name="top"/>
    </contour>
    <contour>
      <point x="59" y="195" type="curve" smooth="yes"/>
      <point x="59" y="107"/>
      <point x="143" y="16"/>
      <point x="229" y="16" type="curve" smooth="yes"/>
      <point x="305" y="16"/>
      <point x="417" y="108"/>
      <point x="486" y="265" type="curve"/>
      <point x="481" y="277" type="line"/>
      <point x="435" y="109"/>
      <point x="377" y="-17"/>
      <point x="377" y="-64" type="curve" smooth="yes"/>
      <point x="377" y="-84"/>
      <point x="385" y="-93"/>
      <point x="398" y="-93" type="curve"/>
      <point x="428" y="-93"/>
      <point x="523" y="215"/>
      <point x="523" y="269" type="curve" smooth="yes"/>
      <point x="523" y="296"/>
      <point x="493" y="335"/>
      <point x="461" y="335" type="curve" smooth="yes"/>
      <point x="366" y="335"/>
      <point x="309" y="324"/>
      <point x="309" y="307" type="curve" smooth="yes"/>
      <point x="309" y="294"/>
      <point x="334" y="273"/>
      <point x="358" y="273" type="curve" smooth="yes"/>
      <point x="378" y="273"/>
      <point x="412" y="279"/>
      <point x="463" y="296" type="curve"/>
      <point x="378" y="166"/>
      <point x="291" y="80"/>
      <point x="226" y="80" type="curve" smooth="yes"/>
      <point x="176" y="80"/>
      <point x="125" y="132"/>
      <point x="125" y="200" type="curve" smooth="yes"/>
      <point x="125" y="390"/>
      <point x="344" y="638"/>
      <point x="466" y="638" type="curve"/>
      <point x="501" y="638"/>
      <point x="516" y="619"/>
      <point x="530" y="619" type="curve"/>
      <point x="537" y="619"/>
      <point x="540" y="623"/>
      <point x="540" y="634" type="curve"/>
      <point x="540" y="653"/>
      <point x="504" y="704"/>
      <point x="464" y="704" type="curve" smooth="yes"/>
      <point x="288" y="704"/>
      <point x="59" y="392"/>
    </contour>
    <contour>
      <point x="545" y="839" type="curve" smooth="yes"/>
      <point x="472" y="839"/>
      <point x="472" y="925"/>
      <point x="447" y="925" type="curve" smooth="yes"/>
      <point x="432" y="925"/>
      <point x="415" y="909"/>
      <point x="415" y="883" type="curve" smooth="yes"/>
      <point x="415" y="841"/>
      <point x="480" y="788"/>
      <point x="534" y="788" type="curve" smooth="yes"/>
      <point x="598" y="788"/>
      <point x="673" y="842"/>
      <point x="673" y="876" type="curve" smooth="yes"/>
      <point x="673" y="889"/>
      <point x="668" y="895"/>
      <point x="654" y="895" type="curve" smooth="yes"/>
      <point x="625" y="895"/>
      <point x="608" y="839"/>
    </contour>
  </outline>
</glyph>
<glyph name="Iogonek" format="1">
  <advance width="311"/>
  <unicode hex="012E"/>
  <outline>
    <contour>
      <point x="247" y="683" type="move" name="top"/>
    </contour>
    <contour>
      <point x="74" y="29" type="move" name="ogonek"/>
    </contour>
    <contour>
      <point x="77" y="66" type="curve" smooth="yes"/>
      <point x="77" y="45"/>
      <point x="99" y="22"/>
      <point x="111" y="22" type="curve" smooth="yes"/>
      <point x="123" y="22"/>
      <point x="158" y="170"/>
      <point x="192" y="296" type="curve" smooth="yes"/>
      <point x="238" y="465"/>
      <point x="266" y="598"/>
      <point x="266" y="635" type="curve"/>
      <point x="266" y="670"/>
      <point x="240" y="704"/>
      <point x="223" y="704" type="curve" smooth="yes"/>
      <point x="210" y="704"/>
      <point x="208" y="698"/>
      <point x="208" y="675" type="curve" smooth="yes"/>
      <point x="208" y="559"/>
      <point x="77" y="132"/>
    </contour>
    <contour>
      <point x="98" y="60" type="curve" smooth="yes"/>
      <point x="55" y="60"/>
      <point x="-35" y="-36"/>
      <point x="-35" y="-95" type="curve" smooth="yes"/>
      <point x="-35" y="-132"/>
      <point x="7" y="-161"/>
      <point x="47" y="-161" type="curve" smooth="yes"/>
      <point x="85" y="-161"/>
      <point x="143" y="-142"/>
      <point x="143" y="-115" type="curve" smooth="yes"/>
      <point x="143" y="-102"/>
      <point x="134" y="-95"/>
      <point x="122" y="-95" type="curve" smooth="yes"/>
      <point x="106" y="-95"/>
      <point x="92" y="-111"/>
      <point x="64" y="-111" type="curve" smooth="yes"/>
      <point x="36" y="-111"/>
      <point x="21" y="-103"/>
      <point x="21" y="-88" type="curve" smooth="yes"/>
      <point x="21" y="-33"/>
      <point x="120" y="-2"/>
      <point x="120" y="42" type="curve" smooth="yes"/>
      <point x="120" y="56"/>
      <point x="109" y="60"/>
    </contour>
  </outline>
</glyph>
<glyph name="dotlessi" format="1">
  <advance width="260"/>
  <unicode hex="0131"/>
  <outline>
    <contour>
      <point x="171" y="470" type="move" name="top"/>
    </contour>
    <contour>
      <point x="31" y="-30" type="move" name="ogonek"/>
    </contour>
    <contour>
      <point x="164" y="502" type="curve" smooth="yes"/>
      <point x="147" y="502"/>
      <point x="140" y="476"/>
      <point x="101" y="308" type="curve" smooth="yes"/>
      <point x="82" y="227"/>
      <point x="32" y="71"/>
      <point x="32" y="49" type="curve" smooth="yes"/>
      <point x="32" y="31"/>
      <point x="43" y="17"/>
      <point x="56" y="17" type="curve" smooth="yes"/>
      <point x="66" y="17"/>
      <point x="81" y="31"/>
      <point x="95" y="73" type="curve" smooth="yes"/>
      <point x="167" y="300"/>
      <point x="197" y="432"/>
      <point x="197" y="462" type="curve" smooth="yes"/>
      <point x="197" y="480"/>
      <point x="178" y="502"/>
    </contour>
  </outline>
</glyph>
<glyph name="Lcommaaccent" format="1">
  <advance width="546"/>
  <unicode hex="013B"/>
  <outline>
    <contour>
      <point x="223" y="-122" type="curve" smooth="yes"/>
      <point x="220" y="-167"/>
      <point x="138" y="-200"/>
      <point x="138" y="-224" type="curve"/>
      <point x="138" y="-232"/>
      <point x="143" y="-234"/>
      <point x="153" y="-234" type="curve" smooth="yes"/>
      <point x="182" y="-234"/>
      <point x="279" y="-182"/>
      <point x="279" y="-105" type="curve" smooth="yes"/>
      <point x="279" y="-64"/>
      <point x="245" y="-40"/>
      <point x="213" y="-40" type="curve" smooth="yes"/>
      <point x="195" y="-40"/>
      <point x="177" y="-53"/>
      <point x="177" y="-72" type="curve" smooth="yes"/>
      <point x="177" y="-100"/>
      <point x="219" y="-82"/>
    </contour>
    <component base="L"/>
  </outline>
</glyph>
<glyph name="lcommaaccent" format="1">
  <advance width="234"/>
  <unicode hex="013C"/>
  <outline>
    <contour>
      <point x="105" y="-133" type="curve" smooth="yes"/>
      <point x="105" y="-92"/>
      <point x="71" y="-68"/>
      <point x="38" y="-68" type="curve" smooth="yes"/>
      <point x="21" y="-68"/>
      <point x="3" y="-81"/>
      <point x="3" y="-100" type="curve" smooth="yes"/>
      <point x="3" y="-128"/>
      <point x="44" y="-110"/>
      <point x="49" y="-150" type="curve" smooth="yes"/>
      <point x="45" y="-195"/>
      <point x="-37" y="-228"/>
      <point x="-37" y="-252" type="curve"/>
      <point x="-37" y="-260"/>
      <point x="-31" y="-262"/>
      <point x="-21" y="-262" type="curve" smooth="yes"/>
      <point x="7" y="-262"/>
      <point x="105" y="-210"/>
    </contour>
    <contour>
      <point x="206" y="720" type="curve" smooth="yes"/>
      <point x="206" y="751"/>
      <point x="172" y="782"/>
      <point x="161" y="782" type="curve" smooth="yes"/>
      <point x="149" y="782"/>
      <point x="148" y="776"/>
      <point x="148" y="757" type="curve" smooth="yes"/>
      <point x="148" y="477"/>
      <point x="28" y="99"/>
      <point x="28" y="58" type="curve" smooth="yes"/>
      <point x="28" y="42"/>
      <point x="47" y="17"/>
      <point x="60" y="17" type="curve" smooth="yes"/>
      <point x="71" y="17"/>
      <point x="86" y="62"/>
      <point x="106" y="136" type="curve" smooth="yes"/>
      <point x="167" y="362"/>
      <point x="206" y="569"/>
    </contour>
  </outline>
</glyph>
<glyph name="Lcaron" format="1">
  <advance width="546"/>
  <unicode hex="013D"/>
  <outline>
    <contour>
      <point x="413" y="618" type="curve" smooth="yes"/>
      <point x="410" y="573"/>
      <point x="328" y="540"/>
      <point x="328" y="516" type="curve"/>
      <point x="328" y="508"/>
      <point x="333" y="506"/>
      <point x="343" y="506" type="curve" smooth="yes"/>
      <point x="372" y="506"/>
      <point x="469" y="558"/>
      <point x="469" y="635" type="curve" smooth="yes"/>
      <point x="469" y="676"/>
      <point x="435" y="700"/>
      <point x="403" y="700" type="curve" smooth="yes"/>
      <point x="385" y="700"/>
      <point x="367" y="687"/>
      <point x="367" y="668" type="curve" smooth="yes"/>
      <point x="367" y="640"/>
      <point x="409" y="658"/>
    </contour>
    <component base="L"/>
  </outline>
</glyph>
<glyph name="Ncommaaccent" format="1">
  <advance width="702"/>
  <unicode hex="0145"/>
  <outline>
    <contour>
      <point x="410" y="683" type="move" name="top"/>
    </contour>
    <contour>
      <point x="188" y="-224" type="curve"/>
      <point x="188" y="-232"/>
      <point x="193" y="-234"/>
      <point x="203" y="-234" type="curve" smooth="yes"/>
      <point x="232" y="-234"/>
      <point x="329" y="-182"/>
      <point x="329" y="-105" type="curve" smooth="yes"/>
      <point x="329" y="-64"/>
      <point x="295" y="-40"/>
      <point x="263" y="-40" type="curve" smooth="yes"/>
      <point x="245" y="-40"/>
      <point x="227" y="-53"/>
      <point x="227" y="-72" type="curve" smooth="yes"/>
      <point x="227" y="-100"/>
      <point x="269" y="-82"/>
      <point x="273" y="-122" type="curve" smooth="yes"/>
      <point x="270" y="-167"/>
      <point x="188" y="-200"/>
    </contour>
    <contour>
      <point x="615" y="708" type="curve" smooth="yes"/>
      <point x="599" y="708"/>
      <point x="592" y="680"/>
      <point x="592" y="653" type="curve" smooth="yes"/>
      <point x="592" y="601"/>
      <point x="587" y="331"/>
      <point x="491" y="88" type="curve"/>
      <point x="417" y="247"/>
      <point x="273" y="602"/>
      <point x="261" y="651" type="curve" smooth="yes"/>
      <point x="253" y="683"/>
      <point x="226" y="708"/>
      <point x="216" y="708" type="curve" smooth="yes"/>
      <point x="204" y="708"/>
      <point x="202" y="703"/>
      <point x="202" y="679" type="curve" smooth="yes"/>
      <point x="202" y="563"/>
      <point x="64" y="136"/>
      <point x="64" y="64" type="curve" smooth="yes"/>
      <point x="64" y="42"/>
      <point x="86" y="19"/>
      <point x="96" y="19" type="curve" smooth="yes"/>
      <point x="108" y="19"/>
      <point x="115" y="70"/>
      <point x="241" y="546" type="curve"/>
      <point x="271" y="460"/>
      <point x="419" y="108"/>
      <point x="444" y="59" type="curve" smooth="yes"/>
      <point x="456" y="35"/>
      <point x="475" y="19"/>
      <point x="490" y="19" type="curve" smooth="yes"/>
      <point x="573" y="19"/>
      <point x="656" y="474"/>
      <point x="656" y="652" type="curve" smooth="yes"/>
      <point x="656" y="676"/>
      <point x="631" y="708"/>
    </contour>
  </outline>
</glyph>
<glyph name="ncommaaccent" format="1">
  <advance width="521"/>
  <unicode hex="0146"/>
  <outline>
    <contour>
      <point x="166" y="445" type="curve" smooth="yes"/>
      <point x="166" y="475"/>
      <point x="141" y="503"/>
      <point x="124" y="503" type="curve" smooth="yes"/>
      <point x="111" y="503"/>
      <point x="106" y="487"/>
      <point x="106" y="456" type="curve" smooth="yes"/>
      <point x="106" y="409"/>
      <point x="94" y="316"/>
      <point x="76" y="239" type="curve" smooth="yes"/>
      <point x="57" y="157"/>
      <point x="26" y="72"/>
      <point x="26" y="63" type="curve" smooth="yes"/>
      <point x="26" y="39"/>
      <point x="48" y="17"/>
      <point x="62" y="17" type="curve" smooth="yes"/>
      <point x="73" y="17"/>
      <point x="120" y="104"/>
      <point x="176" y="187" type="curve" smooth="yes"/>
      <point x="272" y="332"/>
      <point x="333" y="435"/>
      <point x="378" y="435" type="curve" smooth="yes"/>
      <point x="392" y="435"/>
      <point x="417" y="413"/>
      <point x="417" y="379" type="curve" smooth="yes"/>
      <point x="417" y="345"/>
      <point x="404" y="291"/>
      <point x="386" y="231" type="curve" smooth="yes"/>
      <point x="357" y="137"/>
      <point x="324" y="69"/>
      <point x="324" y="37" type="curve" smooth="yes"/>
      <point x="324" y="24"/>
      <point x="329" y="17"/>
      <point x="340" y="17" type="curve" smooth="yes"/>
      <point x="371" y="17"/>
      <point x="405" y="106"/>
      <point x="442" y="219" type="curve" smooth="yes"/>
      <point x="463" y="283"/>
      <point x="475" y="340"/>
      <point x="475" y="383" type="curve" smooth="yes"/>
      <point x="475" y="443"/>
      <point x="418" y="502"/>
      <point x="386" y="502" type="curve" smooth="yes"/>
      <point x="323" y="502"/>
      <point x="243" y="398"/>
      <point x="72" y="99" type="curve"/>
      <point x="84" y="109" type="line"/>
      <point x="121" y="195"/>
      <point x="166" y="383"/>
    </contour>
    <contour>
      <point x="124" y="-227" type="curve" smooth="yes"/>
      <point x="153" y="-227"/>
      <point x="250" y="-175"/>
      <point x="250" y="-98" type="curve" smooth="yes"/>
      <point x="250" y="-57"/>
      <point x="216" y="-33"/>
      <point x="184" y="-33" type="curve" smooth="yes"/>
      <point x="166" y="-33"/>
      <point x="148" y="-46"/>
      <point x="148" y="-65" type="curve" smooth="yes"/>
      <point x="148" y="-93"/>
      <point x="190" y="-75"/>
      <point x="194" y="-115" type="curve" smooth="yes"/>
      <point x="191" y="-160"/>
      <point x="109" y="-193"/>
      <point x="109" y="-217" type="curve"/>
      <point x="109" y="-225"/>
      <point x="114" y="-227"/>
    </contour>
  </outline>
</glyph>
<glyph name="Ncaron" format="1">
  <advance width="702"/>
  <unicode hex="0147"/>
  <outline>
    <contour>
      <point x="410" y="683" type="move" name="top"/>
    </contour>
    <contour>
      <point x="615" y="708" type="curve" smooth="yes"/>
      <point x="599" y="708"/>
      <point x="592" y="680"/>
      <point x="592" y="653" type="curve" smooth="yes"/>
      <point x="592" y="601"/>
      <point x="587" y="331"/>
      <point x="491" y="88" type="curve"/>
      <point x="417" y="247"/>
      <point x="273" y="602"/>
      <point x="261" y="651" type="curve" smooth="yes"/>
      <point x="253" y="683"/>
      <point x="226" y="708"/>
      <point x="216" y="708" type="curve" smooth="yes"/>
      <point x="204" y="708"/>
      <point x="202" y="703"/>
      <point x="202" y="679" type="curve" smooth="yes"/>
      <point x="202" y="563"/>
      <point x="64" y="136"/>
      <point x="64" y="64" type="curve" smooth="yes"/>
      <point x="64" y="42"/>
      <point x="86" y="19"/>
      <point x="96" y="19" type="curve" smooth="yes"/>
      <point x="108" y="19"/>
      <point x="115" y="70"/>
      <point x="241" y="546" type="curve"/>
      <point x="271" y="460"/>
      <point x="419" y="108"/>
      <point x="444" y="59" type="curve" smooth="yes"/>
      <point x="456" y="35"/>
      <point x="475" y="19"/>
      <point x="490" y="19" type="curve" smooth="yes"/>
      <point x="573" y="19"/>
      <point x="656" y="474"/>
      <point x="656" y="652" type="curve" smooth="yes"/>
      <point x="656" y="676"/>
      <point x="631" y="708"/>
    </contour>
    <contour>
      <point x="428" y="825" type="curve"/>
      <point x="342" y="891"/>
      <point x="330" y="965"/>
      <point x="298" y="965" type="curve" smooth="yes"/>
      <point x="286" y="965"/>
      <point x="275" y="954"/>
      <point x="275" y="938" type="curve" smooth="yes"/>
      <point x="275" y="883"/>
      <point x="406" y="770"/>
      <point x="425" y="770" type="curve" smooth="yes"/>
      <point x="445" y="770"/>
      <point x="473" y="805"/>
      <point x="512" y="834" type="curve" smooth="yes"/>
      <point x="555" y="866"/>
      <point x="603" y="881"/>
      <point x="603" y="911" type="curve" smooth="yes"/>
      <point x="603" y="923"/>
      <point x="594" y="931"/>
      <point x="578" y="931" type="curve" smooth="yes"/>
      <point x="560" y="931"/>
      <point x="507" y="903"/>
    </contour>
  </outline>
</glyph>
<glyph name="omacron" format="1">
  <advance width="452"/>
  <unicode hex="014D"/>
  <outline>
    <contour>
      <point x="287" y="470" type="move" name="top"/>
    </contour>
    <contour>
      <point x="475" y="622" type="curve" smooth="yes"/>
      <point x="475" y="642"/>
      <point x="412" y="642"/>
      <point x="256" y="642" type="curve" smooth="yes"/>
      <point x="209" y="642"/>
      <point x="136" y="637"/>
      <point x="136" y="621" type="curve" smooth="yes"/>
      <point x="136" y="607"/>
      <point x="162" y="581"/>
      <point x="189" y="581" type="curve" smooth="yes"/>
      <point x="213" y="581"/>
      <point x="249" y="587"/>
      <point x="322" y="593" type="curve" smooth="yes"/>
      <point x="445" y="602"/>
      <point x="475" y="606"/>
    </contour>
    <contour>
      <point x="289" y="502" type="curve" smooth="yes"/>
      <point x="158" y="502"/>
      <point x="45" y="325"/>
      <point x="45" y="175" type="curve" smooth="yes"/>
      <point x="45" y="87"/>
      <point x="87" y="17"/>
      <point x="155" y="17" type="curve" smooth="yes"/>
      <point x="294" y="17"/>
      <point x="410" y="185"/>
      <point x="410" y="337" type="curve" smooth="yes"/>
      <point x="410" y="421"/>
      <point x="364" y="502"/>
    </contour>
    <contour>
      <point x="351" y="341" type="curve" smooth="yes"/>
      <point x="351" y="240"/>
      <point x="274" y="79"/>
      <point x="156" y="67" type="curve"/>
      <point x="117" y="81"/>
      <point x="105" y="120"/>
      <point x="105" y="160" type="curve" smooth="yes"/>
      <point x="105" y="282"/>
      <point x="177" y="435"/>
      <point x="294" y="457" type="curve"/>
      <point x="330" y="440"/>
      <point x="351" y="392"/>
    </contour>
  </outline>
</glyph>
<glyph name="Ohungarumlaut" format="1">
  <advance width="610"/>
  <unicode hex="0150"/>
  <outline>
    <contour>
      <point x="455" y="683" type="move" name="top"/>
    </contour>
    <contour>
      <point x="218" y="19" type="curve" smooth="yes"/>
      <point x="396" y="19"/>
      <point x="584" y="283"/>
      <point x="584" y="469" type="curve" smooth="yes"/>
      <point x="584" y="589"/>
      <point x="507" y="708"/>
      <point x="402" y="708" type="curve" smooth="yes"/>
      <point x="261" y="708"/>
      <point x="66" y="454"/>
      <point x="66" y="206" type="curve" smooth="yes"/>
      <point x="66" y="127"/>
      <point x="130" y="19"/>
    </contour>
    <contour>
      <point x="519" y="457" type="curve" smooth="yes"/>
      <point x="519" y="306"/>
      <point x="338" y="75"/>
      <point x="227" y="75" type="curve" smooth="yes"/>
      <point x="178" y="75"/>
      <point x="126" y="127"/>
      <point x="126" y="215" type="curve" smooth="yes"/>
      <point x="126" y="419"/>
      <point x="316" y="648"/>
      <point x="404" y="648" type="curve" smooth="yes"/>
      <point x="456" y="648"/>
      <point x="519" y="581"/>
    </contour>
    <contour>
      <point x="442" y="891" type="curve" smooth="yes"/>
      <point x="422" y="839"/>
      <point x="408" y="817"/>
      <point x="408" y="801" type="curve" smooth="yes"/>
      <point x="408" y="789"/>
      <point x="415" y="779"/>
      <point x="426" y="779" type="curve" smooth="yes"/>
      <point x="447" y="779"/>
      <point x="461" y="808"/>
      <point x="494" y="863" type="curve" smooth="yes"/>
      <point x="515" y="898"/>
      <point x="533" y="925"/>
      <point x="533" y="938" type="curve" smooth="yes"/>
      <point x="533" y="960"/>
      <point x="515" y="980"/>
      <point x="494" y="980" type="curve" smooth="yes"/>
      <point x="473" y="980"/>
      <point x="465" y="949"/>
    </contour>
    <contour>
      <point x="570" y="875" type="curve" smooth="yes"/>
      <point x="545" y="828"/>
      <point x="536" y="815"/>
      <point x="536" y="799" type="curve" smooth="yes"/>
      <point x="536" y="788"/>
      <point x="543" y="780"/>
      <point x="553" y="780" type="curve" smooth="yes"/>
      <point x="577" y="780"/>
      <point x="594" y="813"/>
      <point x="623" y="853" type="curve" smooth="yes"/>
      <point x="653" y="895"/>
      <point x="672" y="913"/>
      <point x="672" y="932" type="curve" smooth="yes"/>
      <point x="672" y="953"/>
      <point x="655" y="974"/>
      <point x="635" y="974" type="curve" smooth="yes"/>
      <point x="619" y="974"/>
      <point x="604" y="939"/>
    </contour>
  </outline>
</glyph>
<glyph name="oe" format="1">
  <advance width="906"/>
  <unicode hex="0153"/>
  <outline>
    <contour>
      <point x="570" y="502" type="curve" smooth="yes"/>
      <point x="510" y="502"/>
      <point x="449" y="456"/>
      <point x="403" y="392" type="curve"/>
      <point x="387" y="453"/>
      <point x="347" y="502"/>
      <point x="289" y="502" type="curve" smooth="yes"/>
      <point x="158" y="502"/>
      <point x="45" y="325"/>
      <point x="45" y="175" type="curve" smooth="yes"/>
      <point x="45" y="87"/>
      <point x="87" y="17"/>
      <point x="155" y="17" type="curve" smooth="yes"/>
      <point x="224" y="17"/>
      <point x="287" y="58"/>
      <point x="333" y="118" type="curve"/>
      <point x="356" y="55"/>
      <point x="419" y="17"/>
      <point x="490" y="17" type="curve" smooth="yes"/>
      <point x="559" y="17"/>
      <point x="657" y="71"/>
      <point x="657" y="96" type="curve" smooth="yes"/>
      <point x="657" y="106"/>
      <point x="651" y="112"/>
      <point x="639" y="112" type="curve" smooth="yes"/>
      <point x="611" y="112"/>
      <point x="563" y="74"/>
      <point x="479" y="74" type="curve" smooth="yes"/>
      <point x="423" y="74"/>
      <point x="380" y="104"/>
      <point x="380" y="160" type="curve" smooth="yes"/>
      <point x="380" y="190"/>
      <point x="387" y="222"/>
      <point x="398" y="249" type="curve"/>
      <point x="441" y="238"/>
      <point x="485" y="231"/>
      <point x="532" y="231" type="curve" smooth="yes"/>
      <point x="633" y="231"/>
      <point x="716" y="274"/>
      <point x="716" y="341" type="curve" smooth="yes"/>
      <point x="716" y="413"/>
      <point x="646" y="502"/>
    </contour>
    <contour>
      <point x="294" y="457" type="curve"/>
      <point x="330" y="440"/>
      <point x="351" y="392"/>
      <point x="351" y="341" type="curve" smooth="yes"/>
      <point x="351" y="232"/>
      <point x="271" y="80"/>
      <point x="156" y="67" type="curve"/>
      <point x="117" y="81"/>
      <point x="105" y="120"/>
      <point x="105" y="160" type="curve" smooth="yes"/>
      <point x="105" y="282"/>
      <point x="177" y="435"/>
    </contour>
    <contour>
      <point x="576" y="446" type="curve" smooth="yes"/>
      <point x="616" y="446"/>
      <point x="659" y="390"/>
      <point x="659" y="347" type="curve" smooth="yes"/>
      <point x="659" y="308"/>
      <point x="611" y="278"/>
      <point x="520" y="278" type="curve" smooth="yes"/>
      <point x="490" y="278"/>
      <point x="450" y="282"/>
      <point x="412" y="292" type="curve"/>
      <point x="450" y="375"/>
      <point x="514" y="446"/>
    </contour>
  </outline>
</glyph>
<glyph name="racute" format="1">
  <advance width="314"/>
  <unicode hex="0155"/>
  <outline>
    <contour>
      <point x="193" y="470" type="move" name="top"/>
    </contour>
    <contour>
      <point x="215" y="586" type="curve" smooth="yes"/>
      <point x="215" y="574"/>
      <point x="225" y="567"/>
      <point x="234" y="567" type="curve" smooth="yes"/>
      <point x="249" y="567"/>
      <point x="264" y="581"/>
      <point x="314" y="620" type="curve" smooth="yes"/>
      <point x="366" y="661"/>
      <point x="388" y="674"/>
      <point x="388" y="695" type="curve" smooth="yes"/>
      <point x="388" y="713"/>
      <point x="374" y="738"/>
      <point x="357" y="738" type="curve" smooth="yes"/>
      <point x="340" y="738"/>
      <point x="312" y="702"/>
      <point x="280" y="668" type="curve" smooth="yes"/>
      <point x="236" y="621"/>
      <point x="215" y="605"/>
    </contour>
    <contour>
      <point x="110" y="502" type="curve" smooth="yes"/>
      <point x="95" y="502"/>
      <point x="95" y="483"/>
      <point x="95" y="459" type="curve" smooth="yes"/>
      <point x="95" y="442"/>
      <point x="97" y="421"/>
      <point x="97" y="405" type="curve" smooth="yes"/>
      <point x="97" y="334"/>
      <point x="89" y="274"/>
      <point x="79" y="225" type="curve" smooth="yes"/>
      <point x="61" y="136"/>
      <point x="36" y="82"/>
      <point x="36" y="58" type="curve" smooth="yes"/>
      <point x="36" y="36"/>
      <point x="48" y="13"/>
      <point x="63" y="13" type="curve" smooth="yes"/>
      <point x="95" y="13"/>
      <point x="94" y="99"/>
      <point x="157" y="236" type="curve" smooth="yes"/>
      <point x="209" y="349"/>
      <point x="247" y="421"/>
      <point x="333" y="454" type="curve" smooth="yes"/>
      <point x="355" y="463"/>
      <point x="364" y="472"/>
      <point x="364" y="480" type="curve" smooth="yes"/>
      <point x="364" y="490"/>
      <point x="349" y="498"/>
      <point x="328" y="498" type="curve" smooth="yes"/>
      <point x="223" y="498"/>
      <point x="154" y="332"/>
      <point x="121" y="267" type="curve"/>
      <point x="128" y="243" type="line"/>
      <point x="152" y="350"/>
      <point x="152" y="400"/>
      <point x="152" y="436" type="curve" smooth="yes"/>
      <point x="152" y="470"/>
      <point x="127" y="502"/>
    </contour>
  </outline>
</glyph>
<glyph name="sacute" format="1">
  <advance width="404"/>
  <unicode hex="015B"/>
  <outline>
    <contour>
      <point x="240" y="470" type="move" name="top"/>
    </contour>
    <contour>
      <point x="151" y="-30" type="move" name="cedilla"/>
    </contour>
    <contour>
      <point x="248" y="586" type="curve" smooth="yes"/>
      <point x="248" y="574"/>
      <point x="258" y="567"/>
      <point x="267" y="567" type="curve" smooth="yes"/>
      <point x="282" y="567"/>
      <point x="297" y="581"/>
      <point x="347" y="620" type="curve" smooth="yes"/>
      <point x="399" y="661"/>
      <point x="421" y="674"/>
      <point x="421" y="695" type="curve" smooth="yes"/>
      <point x="421" y="713"/>
      <point x="407" y="738"/>
      <point x="390" y="738" type="curve" smooth="yes"/>
      <point x="373" y="738"/>
      <point x="345" y="702"/>
      <point x="313" y="668" type="curve" smooth="yes"/>
      <point x="269" y="621"/>
      <point x="248" y="605"/>
    </contour>
    <contour>
      <point x="302" y="502" type="curve" smooth="yes"/>
      <point x="235" y="502"/>
      <point x="96" y="415"/>
      <point x="96" y="342" type="curve" smooth="yes"/>
      <point x="96" y="251"/>
      <point x="284" y="216"/>
      <point x="284" y="136" type="curve" smooth="yes"/>
      <point x="284" y="105"/>
      <point x="258" y="74"/>
      <point x="166" y="74" type="curve" smooth="yes"/>
      <point x="78" y="74"/>
      <point x="47" y="133"/>
      <point x="21" y="133" type="curve" smooth="yes"/>
      <point x="13" y="133"/>
      <point x="4" y="125"/>
      <point x="4" y="112" type="curve" smooth="yes"/>
      <point x="4" y="79"/>
      <point x="85" y="17"/>
      <point x="172" y="17" type="curve" smooth="yes"/>
      <point x="276" y="17"/>
      <point x="349" y="75"/>
      <point x="349" y="130" type="curve" smooth="yes"/>
      <point x="349" y="231"/>
      <point x="159" y="288"/>
      <point x="159" y="339" type="curve" smooth="yes"/>
      <point x="159" y="389"/>
      <point x="264" y="442"/>
      <point x="298" y="442" type="curve" smooth="yes"/>
      <point x="333" y="442"/>
      <point x="349" y="398"/>
      <point x="374" y="398" type="curve" smooth="yes"/>
      <point x="383" y="398"/>
      <point x="387" y="403"/>
      <point x="387" y="412" type="curve" smooth="yes"/>
      <point x="387" y="436"/>
      <point x="350" y="502"/>
    </contour>
  </outline>
</glyph>
<glyph name="scedilla" format="1">
  <advance width="404"/>
  <unicode hex="015F"/>
  <outline>
    <contour>
      <point x="240" y="470" type="move" name="top"/>
    </contour>
    <contour>
      <point x="151" y="-30" type="move" name="cedilla"/>
    </contour>
    <contour>
      <point x="302" y="502" type="curve" smooth="yes"/>
      <point x="235" y="502"/>
      <point x="96" y="415"/>
      <point x="96" y="342" type="curve" smooth="yes"/>
      <point x="96" y="251"/>
      <point x="284" y="216"/>
      <point x="284" y="136" type="curve" smooth="yes"/>
      <point x="284" y="105"/>
      <point x="258" y="74"/>
      <point x="166" y="74" type="curve" smooth="yes"/>
      <point x="78" y="74"/>
      <point x="47" y="133"/>
      <point x="21" y="133" type="curve" smooth="yes"/>
      <point x="13" y="133"/>
      <point x="4" y="125"/>
      <point x="4" y="112" type="curve" smooth="yes"/>
      <point x="4" y="79"/>
      <point x="85" y="17"/>
      <point x="172" y="17" type="curve" smooth="yes"/>
      <point x="276" y="17"/>
      <point x="349" y="75"/>
      <point x="349" y="130" type="curve" smooth="yes"/>
      <point x="349" y="231"/>
      <point x="159" y="288"/>
      <point x="159" y="339" type="curve" smooth="yes"/>
      <point x="159" y="389"/>
      <point x="264" y="442"/>
      <point x="298" y="442" type="curve" smooth="yes"/>
      <point x="333" y="442"/>
      <point x="349" y="398"/>
      <point x="374" y="398" type="curve" smooth="yes"/>
      <point x="383" y="398"/>
      <point x="387" y="403"/>
      <point x="387" y="412" type="curve" smooth="yes"/>
      <point x="387" y="436"/>
      <point x="350" y="502"/>
    </contour>
    <contour>
      <point x="123" y="33" type="curve" smooth="yes"/>
      <point x="113" y="33"/>
      <point x="101" y="29"/>
      <point x="96" y="12" type="curve" smooth="yes"/>
      <point x="82" y="-32"/>
      <point x="56" y="-71"/>
      <point x="56" y="-90" type="curve" smooth="yes"/>
      <point x="56" y="-112"/>
      <point x="138" y="-107"/>
      <point x="147" y="-128" type="curve"/>
      <point x="117" y="-179"/>
      <point x="7" y="-163"/>
      <point x="7" y="-192" type="curve" smooth="yes"/>
      <point x="7" y="-204"/>
      <point x="18" y="-209"/>
      <point x="37" y="-209" type="curve" smooth="yes"/>
      <point x="96" y="-209"/>
      <point x="212" y="-186"/>
      <point x="212" y="-119" type="curve" smooth="yes"/>
      <point x="212" y="-91"/>
      <point x="165" y="-66"/>
      <point x="123" y="-66" type="curve" smooth="yes"/>
      <point x="110" y="-66"/>
      <point x="92" y="-67"/>
      <point x="82" y="-70" type="curve"/>
      <point x="107" y="-79" type="line"/>
      <point x="131" y="-40"/>
      <point x="145" y="-6"/>
      <point x="145" y="10" type="curve" smooth="yes"/>
      <point x="145" y="25"/>
      <point x="139" y="33"/>
    </contour>
  </outline>
</glyph>
<glyph name="tcedilla" format="1">
  <advance width="364"/>
  <unicode hex="0163"/>
  <outline>
    <contour>
      <point x="111" y="-30" type="move" name="cedilla"/>
    </contour>
    <contour>
      <point x="184" y="645" type="curve" smooth="yes"/>
      <point x="172" y="645"/>
      <point x="169" y="635"/>
      <point x="169" y="615" type="curve" smooth="yes"/>
      <point x="169" y="436"/>
      <point x="51" y="174"/>
      <point x="51" y="92" type="curve" smooth="yes"/>
      <point x="51" y="51"/>
      <point x="87" y="17"/>
      <point x="145" y="17" type="curve" smooth="yes"/>
      <point x="213" y="17"/>
      <point x="305" y="76"/>
      <point x="305" y="107" type="curve" smooth="yes"/>
      <point x="305" y="115"/>
      <point x="302" y="119"/>
      <point x="291" y="119" type="curve" smooth="yes"/>
      <point x="269" y="119"/>
      <point x="220" y="78"/>
      <point x="139" y="78" type="curve" smooth="yes"/>
      <point x="123" y="78"/>
      <point x="112" y="86"/>
      <point x="112" y="103" type="curve" smooth="yes"/>
      <point x="112" y="117"/>
      <point x="117" y="148"/>
      <point x="154" y="269" type="curve" smooth="yes"/>
      <point x="199" y="416"/>
      <point x="229" y="557"/>
      <point x="229" y="594" type="curve" smooth="yes"/>
      <point x="229" y="621"/>
      <point x="197" y="645"/>
    </contour>
    <contour>
      <point x="35" y="434" type="curve" smooth="yes"/>
      <point x="35" y="422"/>
      <point x="55" y="403"/>
      <point x="70" y="403" type="curve" smooth="yes"/>
      <point x="92" y="403"/>
      <point x="129" y="412"/>
      <point x="206" y="427" type="curve" smooth="yes"/>
      <point x="342" y="453"/>
      <point x="362" y="457"/>
      <point x="362" y="473" type="curve" smooth="yes"/>
      <point x="362" y="486"/>
      <point x="342" y="494"/>
      <point x="310" y="494" type="curve" smooth="yes"/>
      <point x="254" y="494"/>
      <point x="35" y="462"/>
    </contour>
    <contour>
      <point x="95" y="33" type="curve" smooth="yes"/>
      <point x="85" y="33"/>
      <point x="73" y="29"/>
      <point x="68" y="12" type="curve" smooth="yes"/>
      <point x="54" y="-32"/>
      <point x="28" y="-71"/>
      <point x="28" y="-90" type="curve" smooth="yes"/>
      <point x="28" y="-112"/>
      <point x="110" y="-107"/>
      <point x="119" y="-128" type="curve"/>
      <point x="89" y="-179"/>
      <point x="-21" y="-163"/>
      <point x="-21" y="-192" type="curve" smooth="yes"/>
      <point x="-21" y="-204"/>
      <point x="-10" y="-209"/>
      <point x="9" y="-209" type="curve" smooth="yes"/>
      <point x="68" y="-209"/>
      <point x="184" y="-186"/>
      <point x="184" y="-119" type="curve" smooth="yes"/>
      <point x="184" y="-91"/>
      <point x="137" y="-66"/>
      <point x="95" y="-66" type="curve" smooth="yes"/>
      <point x="82" y="-66"/>
      <point x="64" y="-67"/>
      <point x="54" y="-70" type="curve"/>
      <point x="79" y="-79" type="line"/>
      <point x="103" y="-40"/>
      <point x="117" y="-6"/>
      <point x="117" y="10" type="curve" smooth="yes"/>
      <point x="117" y="25"/>
      <point x="111" y="33"/>
    </contour>
  </outline>
</glyph>
<glyph name="tcaron" format="1">
  <advance width="384"/>
  <unicode hex="0165"/>
  <outline>
    <contour>
      <point x="123" y="-30" type="move" name="cedilla"/>
    </contour>
    <contour>
      <point x="427" y="666" type="curve" smooth="yes"/>
      <point x="427" y="708"/>
      <point x="393" y="731"/>
      <point x="361" y="731" type="curve" smooth="yes"/>
      <point x="343" y="731"/>
      <point x="325" y="719"/>
      <point x="325" y="700" type="curve" smooth="yes"/>
      <point x="325" y="672"/>
      <point x="367" y="690"/>
      <point x="371" y="649" type="curve" smooth="yes"/>
      <point x="368" y="604"/>
      <point x="286" y="571"/>
      <point x="286" y="547" type="curve"/>
      <point x="286" y="540"/>
      <point x="292" y="537"/>
      <point x="301" y="537" type="curve" smooth="yes"/>
      <point x="330" y="537"/>
      <point x="427" y="589"/>
    </contour>
    <contour>
      <point x="196" y="645" type="curve" smooth="yes"/>
      <point x="184" y="645"/>
      <point x="181" y="635"/>
      <point x="181" y="615" type="curve" smooth="yes"/>
      <point x="181" y="436"/>
      <point x="63" y="174"/>
      <point x="63" y="92" type="curve" smooth="yes"/>
      <point x="63" y="51"/>
      <point x="99" y="17"/>
      <point x="157" y="17" type="curve" smooth="yes"/>
      <point x="225" y="17"/>
      <point x="317" y="76"/>
      <point x="317" y="107" type="curve" smooth="yes"/>
      <point x="317" y="115"/>
      <point x="314" y="119"/>
      <point x="303" y="119" type="curve" smooth="yes"/>
      <point x="281" y="119"/>
      <point x="232" y="78"/>
      <point x="151" y="78" type="curve" smooth="yes"/>
      <point x="135" y="78"/>
      <point x="124" y="86"/>
      <point x="124" y="103" type="curve" smooth="yes"/>
      <point x="124" y="117"/>
      <point x="129" y="148"/>
      <point x="166" y="269" type="curve" smooth="yes"/>
      <point x="211" y="416"/>
      <point x="241" y="557"/>
      <point x="241" y="594" type="curve" smooth="yes"/>
      <point x="241" y="621"/>
      <point x="209" y="645"/>
    </contour>
    <contour>
      <point x="47" y="434" type="curve" smooth="yes"/>
      <point x="47" y="422"/>
      <point x="67" y="403"/>
      <point x="82" y="403" type="curve" smooth="yes"/>
      <point x="104" y="403"/>
      <point x="141" y="412"/>
      <point x="218" y="427" type="curve" smooth="yes"/>
      <point x="354" y="453"/>
      <point x="374" y="457"/>
      <point x="374" y="473" type="curve" smooth="yes"/>
      <point x="374" y="486"/>
      <point x="354" y="494"/>
      <point x="322" y="494" type="curve" smooth="yes"/>
      <point x="266" y="494"/>
      <point x="47" y="462"/>
    </contour>
  </outline>
</glyph>
<glyph name="Uring" format="1">
  <advance width="599"/>
  <unicode hex="016E"/>
  <outline>
    <contour>
      <point x="354" y="683" type="move" name="top"/>
    </contour>
    <contour>
      <point x="286" y="40" type="move" name="ogonek"/>
    </contour>
    <contour>
      <point x="199" y="704" type="curve" smooth="yes"/>
      <point x="187" y="704"/>
      <point x="185" y="699"/>
      <point x="185" y="675" type="curve" smooth="yes"/>
      <point x="185" y="531"/>
      <point x="99" y="336"/>
      <point x="99" y="193" type="curve" smooth="yes"/>
      <point x="99" y="96"/>
      <point x="157" y="10"/>
      <point x="242" y="10" type="curve" smooth="yes"/>
      <point x="398" y="10"/>
      <point x="558" y="243"/>
      <point x="558" y="608" type="curve" smooth="yes"/>
      <point x="558" y="679"/>
      <point x="519" y="704"/>
      <point x="502" y="704" type="curve" smooth="yes"/>
      <point x="491" y="704"/>
      <point x="488" y="701"/>
      <point x="488" y="688" type="curve" smooth="yes"/>
      <point x="488" y="658"/>
      <point x="495" y="618"/>
      <point x="495" y="558" type="curve" smooth="yes"/>
      <point x="495" y="286"/>
      <point x="344" y="66"/>
      <point x="249" y="66" type="curve" smooth="yes"/>
      <point x="195" y="66"/>
      <point x="158" y="119"/>
      <point x="158" y="207" type="curve" smooth="yes"/>
      <point x="158" y="308"/>
      <point x="245" y="542"/>
      <point x="245" y="636" type="curve" smooth="yes"/>
      <point x="245" y="671"/>
      <point x="214" y="704"/>
    </contour>
    <contour>
      <point x="317" y="842" type="curve" smooth="yes"/>
      <point x="317" y="799"/>
      <point x="346" y="764"/>
      <point x="385" y="764" type="curve" smooth="yes"/>
      <point x="437" y="764"/>
      <point x="474" y="822"/>
      <point x="474" y="866" type="curve" smooth="yes"/>
      <point x="474" y="909"/>
      <point x="445" y="944"/>
      <point x="406" y="944" type="curve" smooth="yes"/>
      <point x="354" y="944"/>
      <point x="317" y="886"/>
    </contour>
    <contour>
      <point x="427" y="860" type="curve" smooth="yes"/>
      <point x="427" y="828"/>
      <point x="408" y="807"/>
      <point x="390" y="807" type="curve" smooth="yes"/>
      <point x="374" y="807"/>
      <point x="363" y="824"/>
      <point x="363" y="845" type="curve" smooth="yes"/>
      <point x="363" y="877"/>
      <point x="383" y="899"/>
      <point x="400" y="899" type="curve" smooth="yes"/>
      <point x="416" y="899"/>
      <point x="427" y="882"/>
    </contour>
  </outline>
</glyph>
<glyph name="Uhungarumlaut" format="1">
  <advance width="599"/>
  <unicode hex="0170"/>
  <outline>
    <contour>
      <point x="354" y="683" type="move" name="top"/>
    </contour>
    <contour>
      <point x="286" y="40" type="move" name="ogonek"/>
    </contour>
    <contour>
      <point x="199" y="704" type="curve" smooth="yes"/>
      <point x="187" y="704"/>
      <point x="185" y="699"/>
      <point x="185" y="675" type="curve" smooth="yes"/>
      <point x="185" y="531"/>
      <point x="99" y="336"/>
      <point x="99" y="193" type="curve" smooth="yes"/>
      <point x="99" y="96"/>
      <point x="157" y="10"/>
      <point x="242" y="10" type="curve" smooth="yes"/>
      <point x="398" y="10"/>
      <point x="558" y="243"/>
      <point x="558" y="608" type="curve" smooth="yes"/>
      <point x="558" y="679"/>
      <point x="519" y="704"/>
      <point x="502" y="704" type="curve" smooth="yes"/>
      <point x="491" y="704"/>
      <point x="488" y="701"/>
      <point x="488" y="688" type="curve" smooth="yes"/>
      <point x="488" y="658"/>
      <point x="495" y="618"/>
      <point x="495" y="558" type="curve" smooth="yes"/>
      <point x="495" y="286"/>
      <point x="344" y="66"/>
      <point x="249" y="66" type="curve" smooth="yes"/>
      <point x="195" y="66"/>
      <point x="158" y="119"/>
      <point x="158" y="207" type="curve" smooth="yes"/>
      <point x="158" y="308"/>
      <point x="245" y="542"/>
      <point x="245" y="636" type="curve" smooth="yes"/>
      <point x="245" y="671"/>
      <point x="214" y="704"/>
    </contour>
    <contour>
      <point x="341" y="891" type="curve" smooth="yes"/>
      <point x="321" y="839"/>
      <point x="307" y="817"/>
      <point x="307" y="801" type="curve" smooth="yes"/>
      <point x="307" y="789"/>
      <point x="314" y="779"/>
      <point x="325" y="779" type="curve" smooth="yes"/>
      <point x="346" y="779"/>
      <point x="360" y="808"/>
      <point x="393" y="863" type="curve" smooth="yes"/>
      <point x="414" y="898"/>
      <point x="432" y="925"/>
      <point x="432" y="938" type="curve" smooth="yes"/>
      <point x="432" y="960"/>
      <point x="414" y="980"/>
      <point x="393" y="980" type="curve" smooth="yes"/>
      <point x="372" y="980"/>
      <point x="364" y="949"/>
    </contour>
    <contour>
      <point x="469" y="875" type="curve" smooth="yes"/>
      <point x="444" y="828"/>
      <point x="435" y="815"/>
      <point x="435" y="799" type="curve" smooth="yes"/>
      <point x="435" y="788"/>
      <point x="442" y="780"/>
      <point x="452" y="780" type="curve" smooth="yes"/>
      <point x="476" y="780"/>
      <point x="493" y="813"/>
      <point x="522" y="853" type="curve" smooth="yes"/>
      <point x="552" y="895"/>
      <point x="571" y="913"/>
      <point x="571" y="932" type="curve" smooth="yes"/>
      <point x="571" y="953"/>
      <point x="554" y="974"/>
      <point x="534" y="974" type="curve" smooth="yes"/>
      <point x="518" y="974"/>
      <point x="503" y="939"/>
    </contour>
  </outline>
</glyph>
<glyph name="uhungarumlaut" format="1">
  <advance width="479"/>
  <unicode hex="0171"/>
  <outline>
    <contour>
      <point x="287" y="470" type="move" name="top"/>
    </contour>
    <contour>
      <point x="283" y="-30" type="move" name="ogonek"/>
    </contour>
    <contour>
      <point x="163" y="502" type="curve" smooth="yes"/>
      <point x="122" y="502"/>
      <point x="19" y="262"/>
      <point x="19" y="130" type="curve" smooth="yes"/>
      <point x="19" y="77"/>
      <point x="64" y="17"/>
      <point x="127" y="17" type="curve" smooth="yes"/>
      <point x="201" y="17"/>
      <point x="292" y="106"/>
      <point x="350" y="252" type="curve"/>
      <point x="343" y="254" type="line"/>
      <point x="313" y="171"/>
      <point x="287" y="81"/>
      <point x="287" y="50" type="curve" smooth="yes"/>
      <point x="287" y="29"/>
      <point x="297" y="17"/>
      <point x="309" y="17" type="curve" smooth="yes"/>
      <point x="317" y="17"/>
      <point x="329" y="32"/>
      <point x="337" y="59" type="curve" smooth="yes"/>
      <point x="401" y="282"/>
      <point x="446" y="429"/>
      <point x="446" y="445" type="curve" smooth="yes"/>
      <point x="446" y="473"/>
      <point x="424" y="502"/>
      <point x="408" y="502" type="curve" smooth="yes"/>
      <point x="394" y="502"/>
      <point x="395" y="494"/>
      <point x="390" y="472" type="curve" smooth="yes"/>
      <point x="364" y="354"/>
      <point x="238" y="71"/>
      <point x="130" y="71" type="curve" smooth="yes"/>
      <point x="103" y="71"/>
      <point x="80" y="94"/>
      <point x="80" y="125" type="curve" smooth="yes"/>
      <point x="80" y="272"/>
      <point x="191" y="436"/>
      <point x="191" y="464" type="curve" smooth="yes"/>
      <point x="191" y="485"/>
      <point x="177" y="502"/>
    </contour>
    <contour>
      <point x="274" y="678" type="curve" smooth="yes"/>
      <point x="254" y="626"/>
      <point x="240" y="604"/>
      <point x="240" y="588" type="curve" smooth="yes"/>
      <point x="240" y="576"/>
      <point x="247" y="566"/>
      <point x="258" y="566" type="curve" smooth="yes"/>
      <point x="279" y="566"/>
      <point x="293" y="595"/>
      <point x="326" y="650" type="curve" smooth="yes"/>
      <point x="347" y="685"/>
      <point x="365" y="712"/>
      <point x="365" y="725" type="curve" smooth="yes"/>
      <point x="365" y="747"/>
      <point x="347" y="767"/>
      <point x="326" y="767" type="curve" smooth="yes"/>
      <point x="305" y="767"/>
      <point x="297" y="736"/>
    </contour>
    <contour>
      <point x="402" y="662" type="curve" smooth="yes"/>
      <point x="377" y="615"/>
      <point x="368" y="602"/>
      <point x="368" y="586" type="curve" smooth="yes"/>
      <point x="368" y="575"/>
      <point x="375" y="567"/>
      <point x="385" y="567" type="curve" smooth="yes"/>
      <point x="409" y="567"/>
      <point x="426" y="600"/>
      <point x="455" y="640" type="curve" smooth="yes"/>
      <point x="485" y="682"/>
      <point x="504" y="700"/>
      <point x="504" y="719" type="curve" smooth="yes"/>
      <point x="504" y="740"/>
      <point x="487" y="761"/>
      <point x="467" y="761" type="curve" smooth="yes"/>
      <point x="451" y="761"/>
      <point x="436" y="726"/>
    </contour>
  </outline>
</glyph>
<glyph name="uogonek" format="1">
  <advance width="479"/>
  <unicode hex="0173"/>
  <outline>
    <contour>
      <point x="287" y="470" type="move" name="top"/>
    </contour>
    <contour>
      <point x="283" y="-30" type="move" name="ogonek"/>
    </contour>
    <contour>
      <point x="301" y="51" type="curve" smooth="yes"/>
      <point x="258" y="51"/>
      <point x="168" y="-45"/>
      <point x="168" y="-104" type="curve" smooth="yes"/>
      <point x="168" y="-141"/>
      <point x="210" y="-170"/>
      <point x="250" y="-170" type="curve" smooth="yes"/>
      <point x="288" y="-170"/>
      <point x="346" y="-151"/>
      <point x="346" y="-124" type="curve" smooth="yes"/>
      <point x="346" y="-111"/>
      <point x="337" y="-104"/>
      <point x="325" y="-104" type="curve" smooth="yes"/>
      <point x="309" y="-104"/>
      <point x="295" y="-120"/>
      <point x="267" y="-120" type="curve" smooth="yes"/>
      <point x="239" y="-120"/>
      <point x="224" y="-112"/>
      <point x="224" y="-97" type="curve" smooth="yes"/>
      <point x="224" y="-42"/>
      <point x="323" y="-11"/>
      <point x="323" y="33" type="curve" smooth="yes"/>
      <point x="323" y="47"/>
      <point x="312" y="51"/>
    </contour>
    <contour>
      <point x="163" y="502" type="curve" smooth="yes"/>
      <point x="122" y="502"/>
      <point x="19" y="262"/>
      <point x="19" y="130" type="curve" smooth="yes"/>
      <point x="19" y="77"/>
      <point x="64" y="17"/>
      <point x="127" y="17" type="curve" smooth="yes"/>
      <point x="201" y="17"/>
      <point x="292" y="106"/>
      <point x="350" y="252" type="curve"/>
      <point x="343" y="254" type="line"/>
      <point x="313" y="171"/>
      <point x="287" y="81"/>
      <point x="287" y="50" type="curve" smooth="yes"/>
      <point x="287" y="29"/>
      <point x="297" y="17"/>
      <point x="309" y="17" type="curve" smooth="yes"/>
      <point x="317" y="17"/>
      <point x="329" y="32"/>
      <point x="337" y="59" type="curve" smooth="yes"/>
      <point x="401" y="282"/>
      <point x="446" y="429"/>
      <point x="446" y="445" type="curve" smooth="yes"/>
      <point x="446" y="473"/>
      <point x="424" y="502"/>
      <point x="408" y="502" type="curve" smooth="yes"/>
      <point x="394" y="502"/>
      <point x="395" y="494"/>
      <point x="390" y="472" type="curve" smooth="yes"/>
      <point x="364" y="354"/>
      <point x="238" y="71"/>
      <point x="130" y="71" type="curve" smooth="yes"/>
      <point x="103" y="71"/>
      <point x="80" y="94"/>
      <point x="80" y="125" type="curve" smooth="yes"/>
      <point x="80" y="272"/>
      <point x="191" y="436"/>
      <point x="191" y="464" type="curve" smooth="yes"/>
      <point x="191" y="485"/>
      <point x="177" y="502"/>
    </contour>
  </outline>
</glyph>
<glyph name="Zdotaccent" format="1">
  <advance width="606"/>
  <unicode hex="017B"/>
  <outline>
    <contour>
      <point x="374" y="683" type="move" name="top"/>
    </contour>
    <contour>
      <point x="460" y="675" type="curve" smooth="yes"/>
      <point x="406" y="692"/>
      <point x="355" y="699"/>
      <point x="278" y="699" type="curve" smooth="yes"/>
      <point x="180" y="699"/>
      <point x="125" y="678"/>
      <point x="126" y="667" type="curve" smooth="yes"/>
      <point x="127" y="648"/>
      <point x="153" y="621"/>
      <point x="180" y="621" type="curve" smooth="yes"/>
      <point x="214" y="621"/>
      <point x="259" y="637"/>
      <point x="338" y="637" type="curve" smooth="yes"/>
      <point x="416" y="637"/>
      <point x="502" y="617"/>
      <point x="502" y="594" type="curve" smooth="yes"/>
      <point x="502" y="479"/>
      <point x="65" y="223"/>
      <point x="65" y="105" type="curve" smooth="yes"/>
      <point x="65" y="66"/>
      <point x="108" y="26"/>
      <point x="153" y="26" type="curve" smooth="yes"/>
      <point x="342" y="26"/>
      <point x="524" y="74"/>
      <point x="524" y="103" type="curve" smooth="yes"/>
      <point x="524" y="117"/>
      <point x="521" y="121"/>
      <point x="507" y="121" type="curve" smooth="yes"/>
      <point x="441" y="121"/>
      <point x="263" y="84"/>
      <point x="161" y="84" type="curve" smooth="yes"/>
      <point x="137" y="84"/>
      <point x="128" y="101"/>
      <point x="128" y="111" type="curve" smooth="yes"/>
      <point x="128" y="175"/>
      <point x="562" y="457"/>
      <point x="562" y="581" type="curve" smooth="yes"/>
      <point x="562" y="613"/>
      <point x="521" y="655"/>
    </contour>
    <contour>
      <point x="425" y="790" type="curve" smooth="yes"/>
      <point x="433" y="790"/>
      <point x="443" y="799"/>
      <point x="443" y="804" type="curve" smooth="yes"/>
      <point x="443" y="830"/>
      <point x="414" y="906"/>
      <point x="393" y="906" type="curve" smooth="yes"/>
      <point x="375" y="906"/>
      <point x="354" y="877"/>
      <point x="354" y="857" type="curve" smooth="yes"/>
      <point x="354" y="830"/>
      <point x="401" y="790"/>
    </contour>
  </outline>
</glyph>
<glyph name="Zcaron" format="1">
  <advance width="606"/>
  <unicode hex="017D"/>
  <outline>
    <contour>
      <point x="374" y="683" type="move" name="top"/>
    </contour>
    <contour>
      <point x="460" y="675" type="curve" smooth="yes"/>
      <point x="406" y="692"/>
      <point x="355" y="699"/>
      <point x="278" y="699" type="curve" smooth="yes"/>
      <point x="180" y="699"/>
      <point x="125" y="678"/>
      <point x="126" y="667" type="curve" smooth="yes"/>
      <point x="127" y="648"/>
      <point x="153" y="621"/>
      <point x="180" y="621" type="curve" smooth="yes"/>
      <point x="214" y="621"/>
      <point x="259" y="637"/>
      <point x="338" y="637" type="curve" smooth="yes"/>
      <point x="416" y="637"/>
      <point x="502" y="617"/>
      <point x="502" y="594" type="curve" smooth="yes"/>
      <point x="502" y="479"/>
      <point x="65" y="223"/>
      <point x="65" y="105" type="curve" smooth="yes"/>
      <point x="65" y="66"/>
      <point x="108" y="26"/>
      <point x="153" y="26" type="curve" smooth="yes"/>
      <point x="342" y="26"/>
      <point x="524" y="74"/>
      <point x="524" y="103" type="curve" smooth="yes"/>
      <point x="524" y="117"/>
      <point x="521" y="121"/>
      <point x="507" y="121" type="curve" smooth="yes"/>
      <point x="441" y="121"/>
      <point x="263" y="84"/>
      <point x="161" y="84" type="curve" smooth="yes"/>
      <point x="137" y="84"/>
      <point x="128" y="101"/>
      <point x="128" y="111" type="curve" smooth="yes"/>
      <point x="128" y="175"/>
      <point x="562" y="457"/>
      <point x="562" y="581" type="curve" smooth="yes"/>
      <point x="562" y="613"/>
      <point x="521" y="655"/>
    </contour>
    <contour>
      <point x="392" y="825" type="curve"/>
      <point x="306" y="891"/>
      <point x="294" y="965"/>
      <point x="262" y="965" type="curve" smooth="yes"/>
      <point x="250" y="965"/>
      <point x="239" y="954"/>
      <point x="239" y="938" type="curve" smooth="yes"/>
      <point x="239" y="883"/>
      <point x="370" y="770"/>
      <point x="389" y="770" type="curve" smooth="yes"/>
      <point x="409" y="770"/>
      <point x="437" y="805"/>
      <point x="476" y="834" type="curve" smooth="yes"/>
      <point x="519" y="866"/>
      <point x="567" y="881"/>
      <point x="567" y="911" type="curve" smooth="yes"/>
      <point x="567" y="923"/>
      <point x="558" y="931"/>
      <point x="542" y="931" type="curve" smooth="yes"/>
      <point x="524" y="931"/>
      <point x="471" y="903"/>
    </contour>
  </outline>
</glyph>
<glyph name="zcaron" format="1">
  <advance width="418"/>
  <unicode hex="017E"/>
  <outline>
    <contour>
      <point x="215" y="470" type="move" name="top"/>
    </contour>
    <contour>
      <point x="275" y="612" type="curve"/>
      <point x="189" y="678"/>
      <point x="177" y="752"/>
      <point x="145" y="752" type="curve" smooth="yes"/>
      <point x="133" y="752"/>
      <point x="122" y="741"/>
      <point x="122" y="725" type="curve" smooth="yes"/>
      <point x="122" y="670"/>
      <point x="253" y="557"/>
      <point x="272" y="557" type="curve" smooth="yes"/>
      <point x="292" y="557"/>
      <point x="320" y="592"/>
      <point x="359" y="621" type="curve" smooth="yes"/>
      <point x="402" y="653"/>
      <point x="450" y="668"/>
      <point x="450" y="698" type="curve" smooth="yes"/>
      <point x="450" y="710"/>
      <point x="441" y="718"/>
      <point x="425" y="718" type="curve" smooth="yes"/>
      <point x="407" y="718"/>
      <point x="354" y="690"/>
    </contour>
    <contour>
      <point x="209" y="502" type="curve" smooth="yes"/>
      <point x="110" y="502"/>
      <point x="54" y="489"/>
      <point x="54" y="471" type="curve" smooth="yes"/>
      <point x="54" y="454"/>
      <point x="78" y="431"/>
      <point x="93" y="431" type="curve" smooth="yes"/>
      <point x="128" y="431"/>
      <point x="167" y="442"/>
      <point x="209" y="442" type="curve" smooth="yes"/>
      <point x="288" y="442"/>
      <point x="325" y="435"/>
      <point x="325" y="418" type="curve" smooth="yes"/>
      <point x="325" y="359"/>
      <point x="5" y="172"/>
      <point x="5" y="99" type="curve" smooth="yes"/>
      <point x="5" y="64"/>
      <point x="51" y="17"/>
      <point x="109" y="17" type="curve" smooth="yes"/>
      <point x="184" y="17"/>
      <point x="393" y="45"/>
      <point x="393" y="82" type="curve" smooth="yes"/>
      <point x="393" y="95"/>
      <point x="383" y="96"/>
      <point x="362" y="96" type="curve" smooth="yes"/>
      <point x="325" y="96"/>
      <point x="219" y="76"/>
      <point x="111" y="76" type="curve" smooth="yes"/>
      <point x="85" y="76"/>
      <point x="74" y="86"/>
      <point x="74" y="100" type="curve" smooth="yes"/>
      <point x="74" y="150"/>
      <point x="380" y="312"/>
      <point x="380" y="416" type="curve" smooth="yes"/>
      <point x="380" y="438"/>
      <point x="361" y="467"/>
      <point x="340" y="480" type="curve" smooth="yes"/>
      <point x="323" y="491"/>
      <point x="271" y="502"/>
    </contour>
  </outline>
</glyph>
<glyph name="florin" format="1">
  <advance width="393"/>
  <unicode hex="0192"/>
  <outline>
    <contour>
      <point x="371" y="780" type="curve" smooth="yes"/>
      <point x="278" y="780"/>
      <point x="248" y="711"/>
      <point x="176" y="383" type="curve" smooth="yes"/>
      <point x="90" y="-10"/>
      <point x="75" y="-44"/>
      <point x="42" y="-44" type="curve" smooth="yes"/>
      <point x="11" y="-44"/>
      <point x="-5" y="-7"/>
      <point x="-16" y="-7" type="curve" smooth="yes"/>
      <point x="-24" y="-7"/>
      <point x="-30" y="-16"/>
      <point x="-30" y="-31" type="curve" smooth="yes"/>
      <point x="-30" y="-64"/>
      <point x="6" y="-99"/>
      <point x="36" y="-99" type="curve" smooth="yes"/>
      <point x="114" y="-99"/>
      <point x="150" y="-64"/>
      <point x="238" y="355" type="curve" smooth="yes"/>
      <point x="301" y="654"/>
      <point x="325" y="722"/>
      <point x="376" y="722" type="curve" smooth="yes"/>
      <point x="437" y="722"/>
      <point x="431" y="625"/>
      <point x="463" y="625" type="curve" smooth="yes"/>
      <point x="470" y="625"/>
      <point x="478" y="632"/>
      <point x="478" y="666" type="curve" smooth="yes"/>
      <point x="478" y="713"/>
      <point x="447" y="780"/>
    </contour>
    <contour>
      <point x="377" y="453" type="curve" smooth="yes"/>
      <point x="377" y="466"/>
      <point x="357" y="474"/>
      <point x="325" y="474" type="curve" smooth="yes"/>
      <point x="268" y="474"/>
      <point x="79" y="449"/>
      <point x="79" y="419" type="curve" smooth="yes"/>
      <point x="79" y="406"/>
      <point x="100" y="386"/>
      <point x="116" y="386" type="curve" smooth="yes"/>
      <point x="138" y="386"/>
      <point x="173" y="396"/>
      <point x="251" y="411" type="curve" smooth="yes"/>
      <point x="354" y="430"/>
      <point x="377" y="436"/>
    </contour>
  </outline>
</glyph>
<glyph name="Scommaaccent" format="1">
  <advance width="539"/>
  <unicode hex="0218"/>
  <outline>
    <contour>
      <point x="370" y="683" type="move" name="top"/>
    </contour>
    <contour>
      <point x="229" y="0" type="move" name="cedilla"/>
    </contour>
    <contour>
      <point x="145" y="-224" type="curve"/>
      <point x="145" y="-232"/>
      <point x="150" y="-234"/>
      <point x="160" y="-234" type="curve" smooth="yes"/>
      <point x="189" y="-234"/>
      <point x="286" y="-182"/>
      <point x="286" y="-105" type="curve" smooth="yes"/>
      <point x="286" y="-64"/>
      <point x="252" y="-40"/>
      <point x="220" y="-40" type="curve" smooth="yes"/>
      <point x="202" y="-40"/>
      <point x="184" y="-53"/>
      <point x="184" y="-72" type="curve" smooth="yes"/>
      <point x="184" y="-100"/>
      <point x="226" y="-82"/>
      <point x="230" y="-122" type="curve" smooth="yes"/>
      <point x="227" y="-167"/>
      <point x="145" y="-200"/>
    </contour>
    <contour>
      <point x="472" y="211" type="curve"/>
      <point x="472" y="323"/>
      <point x="230" y="477"/>
      <point x="230" y="523" type="curve" smooth="yes"/>
      <point x="230" y="552"/>
      <point x="267" y="585"/>
      <point x="341" y="615" type="curve" smooth="yes"/>
      <point x="431" y="652"/>
      <point x="505" y="648"/>
      <point x="505" y="666" type="curve" smooth="yes"/>
      <point x="505" y="683"/>
      <point x="481" y="704"/>
      <point x="446" y="704" type="curve"/>
      <point x="380" y="704"/>
      <point x="245" y="649"/>
      <point x="202" y="597" type="curve" smooth="yes"/>
      <point x="189" y="581"/>
      <point x="174" y="544"/>
      <point x="174" y="521" type="curve" smooth="yes"/>
      <point x="174" y="430"/>
      <point x="407" y="302"/>
      <point x="407" y="208" type="curve" smooth="yes"/>
      <point x="407" y="140"/>
      <point x="328" y="82"/>
      <point x="211" y="82" type="curve" smooth="yes"/>
      <point x="109" y="82"/>
      <point x="60" y="177"/>
      <point x="38" y="177" type="curve"/>
      <point x="29" y="177"/>
      <point x="26" y="171"/>
      <point x="26" y="160" type="curve"/>
      <point x="26" y="116"/>
      <point x="112" y="25"/>
      <point x="227" y="25" type="curve" smooth="yes"/>
      <point x="364" y="25"/>
      <point x="472" y="103"/>
    </contour>
  </outline>
</glyph>
<glyph name="scommaaccent" format="1">
  <advance width="404"/>
  <unicode hex="0219"/>
  <outline>
    <contour>
      <point x="387" y="412" type="curve" smooth="yes"/>
      <point x="387" y="436"/>
      <point x="350" y="502"/>
      <point x="302" y="502" type="curve" smooth="yes"/>
      <point x="235" y="502"/>
      <point x="96" y="415"/>
      <point x="96" y="342" type="curve" smooth="yes"/>
      <point x="96" y="251"/>
      <point x="284" y="216"/>
      <point x="284" y="136" type="curve" smooth="yes"/>
      <point x="284" y="105"/>
      <point x="258" y="74"/>
      <point x="166" y="74" type="curve" smooth="yes"/>
      <point x="78" y="74"/>
      <point x="47" y="133"/>
      <point x="21" y="133" type="curve" smooth="yes"/>
      <point x="13" y="133"/>
      <point x="4" y="125"/>
      <point x="4" y="112" type="curve" smooth="yes"/>
      <point x="4" y="79"/>
      <point x="85" y="17"/>
      <point x="172" y="17" type="curve" smooth="yes"/>
      <point x="276" y="17"/>
      <point x="349" y="75"/>
      <point x="349" y="130" type="curve" smooth="yes"/>
      <point x="349" y="231"/>
      <point x="159" y="288"/>
      <point x="159" y="339" type="curve" smooth="yes"/>
      <point x="159" y="389"/>
      <point x="264" y="442"/>
      <point x="298" y="442" type="curve" smooth="yes"/>
      <point x="333" y="442"/>
      <point x="349" y="398"/>
      <point x="374" y="398" type="curve" smooth="yes"/>
      <point x="383" y="398"/>
      <point x="387" y="403"/>
    </contour>
    <contour>
      <point x="69" y="-227" type="curve" smooth="yes"/>
      <point x="97" y="-227"/>
      <point x="195" y="-175"/>
      <point x="195" y="-98" type="curve" smooth="yes"/>
      <point x="195" y="-57"/>
      <point x="161" y="-33"/>
      <point x="128" y="-33" type="curve" smooth="yes"/>
      <point x="111" y="-33"/>
      <point x="93" y="-46"/>
      <point x="93" y="-65" type="curve" smooth="yes"/>
      <point x="93" y="-93"/>
      <point x="134" y="-75"/>
      <point x="139" y="-115" type="curve" smooth="yes"/>
      <point x="135" y="-160"/>
      <point x="53" y="-193"/>
      <point x="53" y="-217" type="curve"/>
      <point x="53" y="-225"/>
      <point x="59" y="-227"/>
    </contour>
  </outline>
</glyph>
<glyph name="Tcommaaccent" format="1">
  <advance width="530"/>
  <unicode hex="021A"/>
  <outline>
    <contour>
      <point x="361" y="883" type="move" name="top"/>
    </contour>
    <contour>
      <point x="224" y="0" type="move" name="cedilla"/>
    </contour>
    <contour>
      <point x="86" y="-224" type="curve"/>
      <point x="86" y="-232"/>
      <point x="91" y="-234"/>
      <point x="101" y="-234" type="curve" smooth="yes"/>
      <point x="130" y="-234"/>
      <point x="227" y="-182"/>
      <point x="227" y="-105" type="curve" smooth="yes"/>
      <point x="227" y="-64"/>
      <point x="193" y="-40"/>
      <point x="161" y="-40" type="curve" smooth="yes"/>
      <point x="143" y="-40"/>
      <point x="125" y="-53"/>
      <point x="125" y="-72" type="curve" smooth="yes"/>
      <point x="125" y="-100"/>
      <point x="167" y="-82"/>
      <point x="171" y="-122" type="curve" smooth="yes"/>
      <point x="168" y="-167"/>
      <point x="86" y="-200"/>
    </contour>
    <contour>
      <point x="174" y="63" type="curve" smooth="yes"/>
      <point x="174" y="41"/>
      <point x="196" y="20"/>
      <point x="209" y="20" type="curve" smooth="yes"/>
      <point x="226" y="20"/>
      <point x="254" y="165"/>
      <point x="288" y="288" type="curve" smooth="yes"/>
      <point x="335" y="459"/>
      <point x="364" y="591"/>
      <point x="364" y="628" type="curve" smooth="yes"/>
      <point x="364" y="664"/>
      <point x="336" y="698"/>
      <point x="320" y="698" type="curve" smooth="yes"/>
      <point x="308" y="698"/>
      <point x="306" y="693"/>
      <point x="306" y="669" type="curve" smooth="yes"/>
      <point x="306" y="540"/>
      <point x="174" y="135"/>
    </contour>
    <contour>
      <point x="67" y="685" type="curve" smooth="yes"/>
      <point x="67" y="669"/>
      <point x="90" y="639"/>
      <point x="106" y="639" type="curve" smooth="yes"/>
      <point x="152" y="639"/>
      <point x="271" y="648"/>
      <point x="335" y="648" type="curve" smooth="yes"/>
      <point x="466" y="648"/>
      <point x="490" y="638"/>
      <point x="566" y="638" type="curve" smooth="yes"/>
      <point x="586" y="638"/>
      <point x="594" y="640"/>
      <point x="594" y="648" type="curve" smooth="yes"/>
      <point x="594" y="671"/>
      <point x="496" y="701"/>
      <point x="390" y="701" type="curve" smooth="yes"/>
      <point x="73" y="701"/>
      <point x="67" y="701"/>
    </contour>
  </outline>
</glyph>
<glyph name="macronmod" format="1">
  <advance width="358"/>
  <unicode hex="02C9"/>
  <outline>
    <contour>
      <point x="348" y="626" type="curve" smooth="yes"/>
      <point x="348" y="636"/>
      <point x="341" y="641"/>
      <point x="309" y="641" type="curve" smooth="yes"/>
      <point x="218" y="641"/>
      <point x="10" y="625"/>
      <point x="10" y="601" type="curve" smooth="yes"/>
      <point x="10" y="588"/>
      <point x="37" y="565"/>
      <point x="63" y="565" type="curve" smooth="yes"/>
      <point x="85" y="565"/>
      <point x="155" y="580"/>
      <point x="198" y="586" type="curve" smooth="yes"/>
      <point x="320" y="604"/>
      <point x="348" y="610"/>
    </contour>
  </outline>
</glyph>
<glyph name="dotaccent" format="1">
  <advance width="0"/>
  <unicode hex="02D9"/>
  <outline>
    <contour>
      <point x="0" y="566" type="move" name="_top"/>
    </contour>
    <contour>
      <point x="-20" y="740" type="curve" smooth="yes"/>
      <point x="-20" y="713"/>
      <point x="27" y="673"/>
      <point x="51" y="673" type="curve" smooth="yes"/>
      <point x="59" y="673"/>
      <point x="69" y="682"/>
      <point x="69" y="687" type="curve" smooth="yes"/>
      <point x="69" y="713"/>
      <point x="40" y="789"/>
      <point x="19" y="789" type="curve" smooth="yes"/>
      <point x="1" y="789"/>
      <point x="-20" y="760"/>
    </contour>
  </outline>
</glyph>
<glyph name="ogonek" format="1">
  <advance width="198"/>
  <unicode hex="02DB"/>
  <outline>
    <contour>
      <point x="143" y="31" type="curve" smooth="yes"/>
      <point x="100" y="31"/>
      <point x="10" y="-65"/>
      <point x="10" y="-124" type="curve" smooth="yes"/>
      <point x="10" y="-161"/>
      <point x="52" y="-190"/>
      <point x="92" y="-190" type="curve" smooth="yes"/>
      <point x="130" y="-190"/>
      <point x="188" y="-171"/>
      <point x="188" y="-144" type="curve" smooth="yes"/>
      <point x="188" y="-131"/>
      <point x="179" y="-124"/>
      <point x="167" y="-124" type="curve" smooth="yes"/>
      <point x="151" y="-124"/>
      <point x="137" y="-140"/>
      <point x="109" y="-140" type="curve" smooth="yes"/>
      <point x="81" y="-140"/>
      <point x="66" y="-132"/>
      <point x="66" y="-117" type="curve" smooth="yes"/>
      <point x="66" y="-62"/>
      <point x="165" y="-31"/>
      <point x="165" y="13" type="curve" smooth="yes"/>
      <point x="165" y="27"/>
      <point x="154" y="31"/>
    </contour>
  </outline>
</glyph>
<glyph name="tilde" format="1">
  <advance width="0"/>
  <unicode hex="02DC"/>
  <outline>
    <contour>
      <point x="0" y="470" type="move" name="_top"/>
    </contour>
    <contour>
      <point x="-112" y="591" type="curve" smooth="yes"/>
      <point x="-112" y="579"/>
      <point x="-105" y="570"/>
      <point x="-90" y="570" type="curve" smooth="yes"/>
      <point x="-66" y="570"/>
      <point x="-55" y="621"/>
      <point x="-6" y="645" type="curve"/>
      <point x="31" y="593"/>
      <point x="62" y="566"/>
      <point x="98" y="566" type="curve" smooth="yes"/>
      <point x="152" y="566"/>
      <point x="191" y="620"/>
      <point x="191" y="658" type="curve" smooth="yes"/>
      <point x="191" y="673"/>
      <point x="185" y="682"/>
      <point x="174" y="682" type="curve" smooth="yes"/>
      <point x="145" y="682"/>
      <point x="140" y="621"/>
      <point x="100" y="619" type="curve" smooth="yes"/>
      <point x="63" y="621"/>
      <point x="58" y="695"/>
      <point x="-3" y="695" type="curve" smooth="yes"/>
      <point x="-52" y="695"/>
      <point x="-112" y="633"/>
    </contour>
  </outline>
</glyph>
<glyph name="hungarumlaut" format="1">
  <advance width="0"/>
  <unicode hex="02DD"/>
  <outline>
    <contour>
      <point x="0" y="566" type="move" name="_top"/>
    </contour>
    <contour>
      <point x="-13" y="774" type="curve" smooth="yes"/>
      <point x="-33" y="722"/>
      <point x="-47" y="700"/>
      <point x="-47" y="684" type="curve" smooth="yes"/>
      <point x="-47" y="672"/>
      <point x="-40" y="662"/>
      <point x="-29" y="662" type="curve" smooth="yes"/>
      <point x="-8" y="662"/>
      <point x="6" y="691"/>
      <point x="39" y="746" type="curve" smooth="yes"/>
      <point x="60" y="781"/>
      <point x="78" y="808"/>
      <point x="78" y="821" type="curve" smooth="yes"/>
      <point x="78" y="843"/>
      <point x="60" y="863"/>
      <point x="39" y="863" type="curve" smooth="yes"/>
      <point x="18" y="863"/>
      <point x="10" y="832"/>
    </contour>
    <contour>
      <point x="115" y="758" type="curve" smooth="yes"/>
      <point x="90" y="711"/>
      <point x="81" y="698"/>
      <point x="81" y="682" type="curve" smooth="yes"/>
      <point x="81" y="671"/>
      <point x="88" y="663"/>
      <point x="98" y="663" type="curve" smooth="yes"/>
      <point x="122" y="663"/>
      <point x="139" y="696"/>
      <point x="168" y="736" type="curve" smooth="yes"/>
      <point x="198" y="778"/>
      <point x="217" y="796"/>
      <point x="217" y="815" type="curve" smooth="yes"/>
      <point x="217" y="836"/>
      <point x="200" y="857"/>
      <point x="180" y="857" type="curve" smooth="yes"/>
      <point x="164" y="857"/>
      <point x="149" y="822"/>
    </contour>
  </outline>
</glyph>
<glyph name="pi" format="1">
  <advance width="634"/>
  <unicode hex="03C0"/>
  <outline>
    <contour>
      <point x="67" y="501" type="curve" smooth="yes"/>
      <point x="67" y="489"/>
      <point x="88" y="468"/>
      <point x="103" y="468" type="curve" smooth="yes"/>
      <point x="136" y="468"/>
      <point x="379" y="484"/>
      <point x="530" y="489" type="curve" smooth="yes"/>
      <point x="632" y="492"/>
      <point x="654" y="499"/>
      <point x="654" y="517" type="curve" smooth="yes"/>
      <point x="654" y="549"/>
      <point x="569" y="549"/>
      <point x="511" y="549" type="curve" smooth="yes"/>
      <point x="368" y="549"/>
      <point x="67" y="538"/>
    </contour>
    <contour>
      <point x="218" y="524" type="curve" smooth="yes"/>
      <point x="202" y="524"/>
      <point x="202" y="489"/>
      <point x="202" y="429" type="curve" smooth="yes"/>
      <point x="202" y="136"/>
      <point x="94" y="78"/>
      <point x="94" y="46" type="curve" smooth="yes"/>
      <point x="94" y="26"/>
      <point x="110" y="17"/>
      <point x="125" y="17" type="curve" smooth="yes"/>
      <point x="184" y="17"/>
      <point x="263" y="227"/>
      <point x="263" y="420" type="curve" smooth="yes"/>
      <point x="263" y="467"/>
      <point x="261" y="524"/>
    </contour>
    <contour>
      <point x="525" y="507" type="curve" smooth="yes"/>
      <point x="525" y="523"/>
      <point x="523" y="532"/>
      <point x="504" y="532" type="curve" smooth="yes"/>
      <point x="461" y="532"/>
      <point x="420" y="343"/>
      <point x="420" y="227" type="curve" smooth="yes"/>
      <point x="420" y="95"/>
      <point x="456" y="17"/>
      <point x="501" y="17" type="curve" smooth="yes"/>
      <point x="518" y="17"/>
      <point x="533" y="27"/>
      <point x="533" y="40" type="curve" smooth="yes"/>
      <point x="533" y="71"/>
      <point x="478" y="84"/>
      <point x="478" y="227" type="curve" smooth="yes"/>
      <point x="478" y="400"/>
      <point x="525" y="441"/>
    </contour>
  </outline>
</glyph>
<glyph name="dvAnusvara" format="1">
  <advance width="0"/>
  <unicode hex="0902"/>
  <outline>
    <contour>
      <point x="-32" y="636" type="move" name="_abvm.bindu"/>
    </contour>
    <contour>
      <point x="30" y="737" type="curve" smooth="yes"/>
      <point x="30" y="758"/>
      <point x="-1" y="814"/>
      <point x="-18" y="814" type="curve" smooth="yes"/>
      <point x="-30" y="814"/>
      <point x="-41" y="800"/>
      <point x="-41" y="782" type="curve" smooth="yes"/>
      <point x="-41" y="762"/>
      <point x="2" y="718"/>
      <point x="17" y="718" type="curve" smooth="yes"/>
      <point x="26" y="718"/>
      <point x="30" y="725"/>
    </contour>
  </outline>
</glyph>
<glyph name="dvVisarga" format="1">
  <advance width="0"/>
  <unicode hex="0903"/>
  <outline>
    <contour>
      <point x="170" y="376" type="curve" smooth="yes"/>
      <point x="170" y="397"/>
      <point x="143" y="444"/>
      <point x="126" y="444" type="curve" smooth="yes"/>
      <point x="116" y="444"/>
      <point x="105" y="429"/>
      <point x="105" y="416" type="curve" smooth="yes"/>
      <point x="105" y="399"/>
      <point x="141" y="359"/>
      <point x="156" y="359" type="curve" smooth="yes"/>
      <point x="165" y="359"/>
      <point x="170" y="364"/>
    </contour>
    <contour>
      <point x="115" y="108" type="curve" smooth="yes"/>
      <point x="115" y="129"/>
      <point x="88" y="176"/>
      <point x="71" y="176" type="curve" smooth="yes"/>
      <point x="61" y="176"/>
      <point x="50" y="161"/>
      <point x="50" y="148" type="curve" smooth="yes"/>
      <point x="50" y="131"/>
      <point x="86" y="91"/>
      <point x="101" y="91" type="curve" smooth="yes"/>
      <point x="110" y="91"/>
      <point x="115" y="96"/>
    </contour>
  </outline>
</glyph>
<glyph name="dvTTA" format="1">
  <advance width="586"/>
  <unicode hex="091F"/>
  <outline>
    <contour>
      <point x="462" y="646" type="move" name="abvm.bindu"/>
    </contour>
    <contour>
      <point x="286" y="39" type="move" name="blwm.virama"/>
    </contour>
    <contour>
      <point x="454" y="636" type="move" name="abvm.e"/>
    </contour>
    <contour>
      <point x="280" y="85" type="move" name="blwm.u"/>
    </contour>
    <contour>
      <point x="463" y="611" type="curve" smooth="yes"/>
      <point x="434" y="611"/>
      <point x="398" y="540"/>
      <point x="398" y="460" type="curve" smooth="yes"/>
      <point x="398" y="408"/>
      <point x="407" y="361"/>
      <point x="429" y="361" type="curve" smooth="yes"/>
      <point x="446" y="361"/>
      <point x="450" y="377"/>
      <point x="450" y="396" type="curve" smooth="yes"/>
      <point x="450" y="410"/>
      <point x="448" y="426"/>
      <point x="448" y="439" type="curve" smooth="yes"/>
      <point x="448" y="549"/>
      <point x="492" y="584"/>
      <point x="492" y="598" type="curve" smooth="yes"/>
      <point x="492" y="606"/>
      <point x="475" y="611"/>
    </contour>
    <contour>
      <point x="290" y="139" type="curve" smooth="yes"/>
      <point x="212" y="139"/>
      <point x="112" y="154"/>
      <point x="112" y="194" type="curve" smooth="yes"/>
      <point x="112" y="254"/>
      <point x="269" y="416"/>
      <point x="341" y="416" type="curve" smooth="yes"/>
      <point x="385" y="416"/>
      <point x="404" y="361"/>
      <point x="430" y="361" type="curve" smooth="yes"/>
      <point x="440" y="361"/>
      <point x="449" y="376"/>
      <point x="449" y="387" type="curve" smooth="yes"/>
      <point x="449" y="412"/>
      <point x="379" y="473"/>
      <point x="342" y="473" type="curve" smooth="yes"/>
      <point x="258" y="473"/>
      <point x="55" y="292"/>
      <point x="55" y="189" type="curve" smooth="yes"/>
      <point x="55" y="111"/>
      <point x="173" y="87"/>
      <point x="288" y="87" type="curve" smooth="yes"/>
      <point x="405" y="87"/>
      <point x="530" y="129"/>
      <point x="530" y="174" type="curve" smooth="yes"/>
      <point x="530" y="189"/>
      <point x="516" y="209"/>
      <point x="504" y="209" type="curve" smooth="yes"/>
      <point x="489" y="209"/>
      <point x="462" y="139"/>
    </contour>
    <contour>
      <point x="675" y="588" type="line"/>
      <point x="712" y="588"/>
      <point x="722" y="597"/>
      <point x="722" y="612" type="curve" smooth="yes"/>
      <point x="722" y="627"/>
      <point x="712" y="636"/>
      <point x="675" y="636" type="curve" smooth="yes"/>
      <point x="101" y="636" type="line" smooth="yes"/>
      <point x="64" y="636"/>
      <point x="54" y="627"/>
      <point x="54" y="612" type="curve" smooth="yes"/>
      <point x="54" y="597"/>
      <point x="64" y="588"/>
      <point x="101" y="588" type="curve" smooth="yes"/>
    </contour>
  </outline>
</glyph>
<glyph name="dvBHA" format="1">
  <advance width="646"/>
  <unicode hex="092D"/>
  <outline>
    <contour>
      <point x="326" y="480" type="line"/>
      <point x="295" y="468"/>
      <point x="269" y="460"/>
      <point x="226" y="460" type="curve" smooth="yes"/>
      <point x="182" y="460"/>
      <point x="166" y="478"/>
      <point x="166" y="511" type="curve" smooth="yes"/>
      <point x="166" y="557"/>
      <point x="210" y="636"/>
      <point x="248" y="636" type="curve" smooth="yes"/>
      <point x="291" y="636"/>
      <point x="299" y="571"/>
      <point x="299" y="504" type="curve" smooth="yes"/>
      <point x="299" y="334"/>
      <point x="210" y="130"/>
      <point x="137" y="130" type="curve" smooth="yes"/>
      <point x="104" y="130"/>
      <point x="64" y="188"/>
      <point x="64" y="229" type="curve" smooth="yes"/>
      <point x="64" y="271"/>
      <point x="179" y="278"/>
      <point x="297" y="291" type="curve" smooth="yes"/>
      <point x="435" y="306"/>
      <point x="566" y="311"/>
      <point x="566" y="332" type="curve" smooth="yes"/>
      <point x="566" y="344"/>
      <point x="558" y="359"/>
      <point x="540" y="359" type="curve" smooth="yes"/>
      <point x="498" y="359"/>
      <point x="410" y="348"/>
      <point x="322" y="337" type="curve" smooth="yes"/>
      <point x="182" y="319"/>
      <point x="15" y="320"/>
      <point x="15" y="233" type="curve" smooth="yes"/>
      <point x="15" y="165"/>
      <point x="77" y="83"/>
      <point x="138" y="83" type="curve" smooth="yes"/>
      <point x="269" y="83"/>
      <point x="351" y="343"/>
      <point x="351" y="528" type="curve" smooth="yes"/>
      <point x="351" y="593"/>
      <point x="334" y="686"/>
      <point x="246" y="686" type="curve" smooth="yes"/>
      <point x="186" y="686"/>
      <point x="119" y="591"/>
      <point x="119" y="508" type="curve" smooth="yes"/>
      <point x="119" y="456"/>
      <point x="147" y="414"/>
      <point x="226" y="414" type="curve" smooth="yes"/>
      <point x="268" y="414"/>
      <point x="308" y="423"/>
      <point x="342" y="434" type="curve"/>
    </contour>
    <contour>
      <point x="455" y="37" type="curve" smooth="yes"/>
      <point x="455" y="28"/>
      <point x="475" y="12"/>
      <point x="483" y="12" type="curve" smooth="yes"/>
      <point x="497" y="12"/>
      <point x="541" y="195"/>
      <point x="572" y="328" type="curve" smooth="yes"/>
      <point x="595" y="426"/>
      <point x="627" y="578"/>
      <point x="627" y="593" type="curve" smooth="yes"/>
      <point x="627" y="616"/>
      <point x="610" y="628"/>
      <point x="596" y="628" type="curve" smooth="yes"/>
      <point x="584" y="628"/>
      <point x="578" y="620"/>
      <point x="574" y="598" type="curve" smooth="yes"/>
      <point x="558" y="512"/>
      <point x="537" y="419"/>
      <point x="516" y="319" type="curve" smooth="yes"/>
      <point x="489" y="189"/>
      <point x="455" y="58"/>
    </contour>
    <contour>
      <point x="742" y="588" type="line"/>
      <point x="779" y="588"/>
      <point x="789" y="597"/>
      <point x="789" y="612" type="curve" smooth="yes"/>
      <point x="789" y="627"/>
      <point x="779" y="636"/>
      <point x="742" y="636" type="curve" smooth="yes"/>
      <point x="499" y="636" type="line" smooth="yes"/>
      <point x="462" y="636"/>
      <point x="452" y="627"/>
      <point x="452" y="612" type="curve" smooth="yes"/>
      <point x="452" y="597"/>
      <point x="462" y="588"/>
      <point x="499" y="588" type="curve" smooth="yes"/>
    </contour>
  </outline>
</glyph>
<glyph name="dvVA" format="1">
  <advance width="494"/>
  <unicode hex="0935"/>
  <outline>
    <contour>
      <point x="386" y="300" type="curve"/>
      <point x="373" y="396"/>
      <point x="321" y="491"/>
      <point x="259" y="491" type="curve" smooth="yes"/>
      <point x="137" y="491"/>
      <point x="47" y="315"/>
      <point x="47" y="189" type="curve" smooth="yes"/>
      <point x="47" y="124"/>
      <point x="73" y="73"/>
      <point x="137" y="73" type="curve" smooth="yes"/>
      <point x="233" y="73"/>
      <point x="353" y="153"/>
      <point x="402" y="244" type="curve"/>
      <point x="368" y="272" type="line"/>
      <point x="316" y="189"/>
      <point x="225" y="122"/>
      <point x="140" y="122" type="curve" smooth="yes"/>
      <point x="106" y="122"/>
      <point x="95" y="146"/>
      <point x="95" y="188" type="curve" smooth="yes"/>
      <point x="95" y="282"/>
      <point x="173" y="440"/>
      <point x="249" y="440" type="curve" smooth="yes"/>
      <point x="300" y="440"/>
      <point x="356" y="324"/>
      <point x="356" y="198" type="curve" smooth="yes"/>
      <point x="356" y="105"/>
      <point x="328" y="62"/>
      <point x="328" y="33" type="curve" smooth="yes"/>
      <point x="328" y="23"/>
      <point x="340" y="12"/>
      <point x="348" y="12" type="curve" smooth="yes"/>
      <point x="376" y="12"/>
      <point x="415" y="195"/>
      <point x="446" y="328" type="curve" smooth="yes"/>
      <point x="468" y="421"/>
      <point x="501" y="570"/>
      <point x="501" y="596" type="curve" smooth="yes"/>
      <point x="501" y="619"/>
      <point x="493" y="631"/>
      <point x="469" y="631" type="curve" smooth="yes"/>
      <point x="448" y="631"/>
      <point x="409" y="393"/>
    </contour>
    <contour>
      <point x="617" y="588" type="line"/>
      <point x="654" y="588"/>
      <point x="664" y="597"/>
      <point x="664" y="612" type="curve" smooth="yes"/>
      <point x="664" y="627"/>
      <point x="654" y="636"/>
      <point x="617" y="636" type="curve" smooth="yes"/>
      <point x="95" y="636" type="line" smooth="yes"/>
      <point x="58" y="636"/>
      <point x="48" y="627"/>
      <point x="48" y="612" type="curve" smooth="yes"/>
      <point x="48" y="597"/>
      <point x="58" y="588"/>
      <point x="95" y="588" type="curve" smooth="yes"/>
    </contour>
  </outline>
</glyph>
<glyph name="dvHA" format="1">
  <advance width="477"/>
  <unicode hex="0939"/>
  <outline>
    <contour>
      <point x="390" y="646" type="move" name="abvm.bindu"/>
    </contour>
    <contour>
      <point x="190" y="-100" type="move" name="blwm.virama"/>
    </contour>
    <contour>
      <point x="390" y="636" type="move" name="abvm.e"/>
    </contour>
    <contour>
      <point x="355" y="-24" type="move" name="blwm.u"/>
    </contour>
    <contour>
      <point x="251" y="310" type="line"/>
      <point x="221" y="330"/>
      <point x="206" y="352"/>
      <point x="206" y="379" type="curve" smooth="yes"/>
      <point x="206" y="418"/>
      <point x="243" y="434"/>
      <point x="309" y="434" type="curve" smooth="yes"/>
      <point x="353" y="434"/>
      <point x="375" y="431"/>
      <point x="401" y="431" type="curve" smooth="yes"/>
      <point x="416" y="431"/>
      <point x="423" y="439"/>
      <point x="423" y="450" type="curve" smooth="yes"/>
      <point x="423" y="472"/>
      <point x="374" y="488"/>
      <point x="305" y="488" type="curve" smooth="yes"/>
      <point x="213" y="488"/>
      <point x="146" y="449"/>
      <point x="146" y="390" type="curve" smooth="yes"/>
      <point x="146" y="352"/>
      <point x="167" y="321"/>
      <point x="203" y="295" type="curve"/>
    </contour>
    <contour>
      <point x="349" y="-60" type="curve" smooth="yes"/>
      <point x="349" y="-49"/>
      <point x="336" y="-44"/>
      <point x="300" y="-44" type="curve" smooth="yes"/>
      <point x="184" y="-44"/>
      <point x="103" y="12"/>
      <point x="103" y="131" type="curve" smooth="yes"/>
      <point x="103" y="215"/>
      <point x="154" y="271"/>
      <point x="248" y="271" type="curve" smooth="yes"/>
      <point x="330" y="271"/>
      <point x="356" y="233"/>
      <point x="356" y="162" type="curve" smooth="yes"/>
      <point x="356" y="142"/>
      <point x="359" y="123"/>
      <point x="372" y="123" type="curve" smooth="yes"/>
      <point x="397" y="123"/>
      <point x="402" y="162"/>
      <point x="402" y="190" type="curve" smooth="yes"/>
      <point x="402" y="258"/>
      <point x="362" y="324"/>
      <point x="246" y="324" type="curve" smooth="yes"/>
      <point x="119" y="324"/>
      <point x="50" y="241"/>
      <point x="50" y="131" type="curve" smooth="yes"/>
      <point x="50" y="4"/>
      <point x="147" y="-88"/>
      <point x="279" y="-88" type="curve" smooth="yes"/>
      <point x="321" y="-88"/>
      <point x="349" y="-77"/>
    </contour>
    <contour>
      <point x="378" y="460" type="curve" smooth="yes"/>
      <point x="378" y="441"/>
      <point x="387" y="431"/>
      <point x="405" y="431" type="curve" smooth="yes"/>
      <point x="428" y="431"/>
      <point x="435" y="470"/>
      <point x="435" y="521" type="curve" smooth="yes"/>
      <point x="435" y="576"/>
      <point x="415" y="630"/>
      <point x="390" y="630" type="curve" smooth="yes"/>
      <point x="373" y="630"/>
      <point x="367" y="623"/>
      <point x="367" y="605" type="curve" smooth="yes"/>
      <point x="367" y="581"/>
      <point x="378" y="558"/>
    </contour>
    <contour>
      <point x="549" y="588" type="line"/>
      <point x="586" y="588"/>
      <point x="596" y="597"/>
      <point x="596" y="612" type="curve" smooth="yes"/>
      <point x="596" y="627"/>
      <point x="586" y="636"/>
      <point x="549" y="636" type="curve" smooth="yes"/>
      <point x="127" y="636" type="line" smooth="yes"/>
      <point x="90" y="636"/>
      <point x="80" y="627"/>
      <point x="80" y="612" type="curve" smooth="yes"/>
      <point x="80" y="597"/>
      <point x="90" y="588"/>
      <point x="127" y="588" type="curve" smooth="yes"/>
    </contour>
  </outline>
</glyph>
